<?xml version="1.0" encoding="UTF-8" standalone="no"?>
<!-- Generator: Adobe Illustrator 15.0.0, SVG Export Plug-In . SVG Version: 6.00 Build 0)  -->

<svg
   xmlns:dc="http://purl.org/dc/elements/1.1/"
   xmlns:cc="http://creativecommons.org/ns#"
   xmlns:rdf="http://www.w3.org/1999/02/22-rdf-syntax-ns#"
   xmlns:svg="http://www.w3.org/2000/svg"
   xmlns="http://www.w3.org/2000/svg"
   xmlns:sodipodi="http://sodipodi.sourceforge.net/DTD/sodipodi-0.dtd"
   xmlns:inkscape="http://www.inkscape.org/namespaces/inkscape"
   version="1.1"
   x="0px"
   y="0px"
   width="113.391px"
   height="113.391px"
   viewBox="0 0 113.391 113.391"
   enable-background="new 0 0 113.391 113.391"
   xml:space="preserve"
   id="svg3042"
   inkscape:version="0.48.5 r10040"
   sodipodi:docname="album.svg"><metadata
     id="metadata3059"><rdf:RDF><cc:Work
         rdf:about=""><dc:format>image/svg+xml</dc:format><dc:type
           rdf:resource="http://purl.org/dc/dcmitype/StillImage" /></cc:Work></rdf:RDF></metadata><defs
     id="defs3057" /><sodipodi:namedview
     pagecolor="#ffffff"
     bordercolor="#666666"
     borderopacity="1"
     objecttolerance="10"
     gridtolerance="10"
     guidetolerance="10"
     inkscape:pageopacity="0"
     inkscape:pageshadow="2"
     inkscape:window-width="964"
     inkscape:window-height="634"
     id="namedview3055"
     showgrid="false"
     inkscape:zoom="2.1165701"
     inkscape:cx="56.695499"
     inkscape:cy="56.695499"
     inkscape:window-x="163"
     inkscape:window-y="73"
     inkscape:window-maximized="0"
     inkscape:current-layer="svg3042" /><g
     id="ZDJ3_2_"><polygon
       id="_x33_3"
       points="49.079,2.405 47.004,6.623 63.201,10.536 64.713,10.097  " /><polygon
       id="_x33_2"
       points="107.604,31.205 105.985,37.934 109.128,39.48 102.795,52.961 95.594,82.891 118.321,36.478  " /><polygon
       id="_x33_1"
       points="64.927,92.153 58.917,93.604 84.943,106.055 87.787,97.875  " /></g><g
     id="ZDJ2_1_"><polygon
       id="_x32_2"
       points="47.73,14.645 62.011,10.995 33.318,4.392 29.857,19.243 37.462,17.193 38.542,12.533  " /><polygon
       id="_x32_1"
       points="71.454,13.194 73.509,20.698 100.231,26.817 88.847,75.979 91.41,85.04 67.075,91.445 91.092,96.98    108.499,21.801  " /></g><g
     id="ZDJ1_1_"><polygon
       id="_x31_3"
       points="55.841,43.849 51.563,64.97 40.67,57.66 34.585,69.757 24.976,61.978 21.304,82.202 74.272,67.548     " /><path
       id="_x31_2"
       d="M-4.931,30.187l20.468,74.404l74.406-20.469L69.476,9.717L-4.931,30.187z M79.123,70.893L18.069,87.688   L3.537,34.859l61.054-16.795L79.123,70.893z" /><circle
       id="_x31_1"
       cx="20.869"
       cy="41.706"
       r="7.827" /></g><path
     style="fill:#ffffff"
     d=""
     id="path3061"
     inkscape:connector-curvature="0" /><path
     style="fill:#ffffff"
     d="M 15.089918,101.90729 C 11.794308,90.37591 -4.5343411,30.551276 -4.4179078,30.434842 -4.2588008,30.275735 67.524208,10.467834 68.648819,10.27271 c 0.49414,-0.08573 3.221812,9.189027 10.782686,36.663775 5.566666,20.228197 10.047595,36.852159 9.95762,36.942139 -0.08998,0.08998 -16.104116,4.543271 -35.586967,9.896205 -19.482852,5.352933 -36.005566,9.924711 -36.717143,10.159501 -1.25326,0.41353 -1.315737,0.35005 -1.995097,-2.02704 z M 48.720455,79.528383 C 72.579178,72.968846 79.088757,71.018965 79.08338,70.43348 79.075212,69.5432 65.025547,18.377748 64.699803,18.052008 64.575616,17.927821 51.126074,21.500047 34.811925,25.990289 18.497779,30.480531 4.777777,34.254627 4.3230318,34.377168 c -0.4547451,0.122541 -0.8268093,0.463521 -0.8268093,0.757733 0,0.957058 14.3324795,52.743123 14.5973575,52.743123 0.14141,0 13.923503,-3.757338 30.626875,-8.349641 l 0,0 z"
     id="path3063"
     inkscape:connector-curvature="0" /><path
     style="fill:#ffffff"
     d="m 17.130795,48.11676 c -4.067097,-2.358368 -4.930045,-8.18064 -1.720351,-11.607142 1.465234,-1.564209 4.72435,-2.666907 6.755855,-2.285794 2.275216,0.426833 5.275347,3.198574 5.969339,5.514913 1.860039,6.208258 -5.320014,11.674456 -11.004843,8.378023 z"
     id="path3065"
     inkscape:connector-curvature="0" /><path
     style="fill:#ffffff"
     d="m 23.298676,72.590978 c 0.932025,-5.068192 1.825659,-9.343121 1.985856,-9.499843 0.160195,-0.156721 2.252879,1.316661 4.650407,3.274183 2.397529,1.957522 4.502783,3.559131 4.678343,3.559131 0.175561,0 1.644288,-2.660217 3.26384,-5.911595 l 2.94464,-5.911594 5.300173,3.541684 c 3.679419,2.458663 5.39849,3.363413 5.621689,2.958704 0.176834,-0.320639 1.095196,-4.51623 2.040806,-9.323536 0.945609,-4.807306 1.878316,-9.135075 2.072682,-9.617264 0.28707,-0.712175 1.514485,0.617844 6.540216,7.086937 3.402753,4.380005 7.366971,9.471163 8.80937,11.313683 l 2.622545,3.350038 -25.126681,6.941927 c -13.819676,3.81806 -25.570337,7.056792 -26.11258,7.197183 -0.967532,0.250501 -0.954332,0.08362 0.708694,-8.959638 z"
     id="path3067"
     inkscape:connector-curvature="0" /><path
     style="fill:#ffffff"
     d="m 79.090222,93.993139 c -5.327015,-1.254988 -9.977338,-2.347014 -10.334052,-2.426723 -0.356714,-0.07971 4.586425,-1.508847 10.984753,-3.17586 9.221088,-2.402453 11.633324,-3.191229 11.633324,-3.803965 0,-0.425165 -0.510424,-2.5287 -1.134275,-4.674516 l -1.134274,-3.901487 5.68523,-24.556295 C 97.917804,37.948331 100.39095,26.81279 100.28681,26.708647 100.18266,26.604504 94.162609,25.163188 86.908908,23.505722 L 73.72036,20.492148 72.826414,17.289676 c -0.49167,-1.76136 -0.802539,-3.29388 -0.690819,-3.4056 0.11172,-0.11172 8.206762,1.649751 17.988983,3.91438 12.903142,2.987135 17.785852,4.297948 17.785852,4.774783 0,0.60402 -15.508522,68.000746 -16.576373,72.037376 -0.370671,1.401196 -0.68721,1.760504 -1.513524,1.718029 -0.574657,-0.02953 -5.403297,-1.080512 -10.730311,-2.335505 z"
     id="path3069"
     inkscape:connector-curvature="0" /><path
     style="fill:#ffffff"
     d="m 97.037551,78.625635 c -0.0034,-0.238201 1.305254,-5.960903 2.908198,-12.717117 2.682561,-11.30668 3.174091,-12.846659 6.177861,-19.355651 3.46147,-7.50078 3.41427,-7.116344 1.04872,-8.54099 -0.74144,-0.44653 -0.76201,-0.740601 -0.21485,-3.071006 0.3328,-1.417455 0.69386,-2.73332 0.80234,-2.924145 0.14784,-0.260053 9.20547,3.91059 9.9706,4.591028 0.12553,0.111635 -20.120297,41.823846 -20.508849,42.254112 -0.09778,0.10827 -0.180585,0.0019 -0.18402,-0.236231 l 0,0 z"
     id="path3071"
     inkscape:connector-curvature="0" /><path
     style="fill:#ffffff"
     d="m 30.426585,18.354541 c 0,-0.504257 2.907263,-13.2986745 3.072151,-13.5200641 0.103725,-0.139268 26.797026,5.9787131 27.008547,6.1902341 0.07239,0.07239 -2.790945,0.841352 -6.36297,1.708802 L 47.649722,14.310695 43.190931,13.3309 c -2.452335,-0.538887 -4.614392,-0.883628 -4.804571,-0.766092 -0.190179,0.117538 -0.488508,1.165485 -0.662954,2.328773 -0.174446,1.163288 -0.402029,2.115069 -0.505741,2.115069 -0.103712,0 -1.674132,0.411671 -3.489824,0.914825 -1.971566,0.546349 -3.301256,0.719975 -3.301256,0.431066 z"
     id="path3073"
     inkscape:connector-curvature="0" /><path
     style="fill:#ffffff"
     d="m 55.130225,8.3936194 -7.66004,-1.8931413 0.706322,-1.6904679 c 0.388478,-0.9297574 0.783107,-1.7672519 0.876954,-1.8610988 0.213218,-0.2132181 14.445498,6.8923208 14.445498,7.2119886 0,0.312492 0.319186,0.379897 -8.368734,-1.7672806 l 0,0 z"
     id="path3075"
     inkscape:connector-curvature="0" /><path
     style="fill:#ffffff"
     d="M 71.851889,99.487916 59.6527,93.630236 62.346195,93.027458 c 2.633211,-0.589287 2.944773,-0.540573 13.920768,2.176586 l 11.227272,2.779363 -1.249116,3.535733 c -0.687014,1.94465 -1.461724,3.60115 -1.721579,3.68109 -0.259854,0.0799 -5.962097,-2.49059 -12.671651,-5.712314 z"
     id="path3077"
     inkscape:connector-curvature="0" /></svg>