<?xml version="1.0" encoding="utf-8"?>
<!-- Generator: Adobe Illustrator 15.0.0, SVG Export Plug-In . SVG Version: 6.00 Build 0)  -->
<!DOCTYPE svg PUBLIC "-//W3C//DTD SVG 1.1//EN" "http://www.w3.org/Graphics/SVG/1.1/DTD/svg11.dtd">
<svg version="1.1" xmlns="http://www.w3.org/2000/svg" xmlns:xlink="http://www.w3.org/1999/xlink" x="0px" y="0px"
	 width="113.391px" height="113.391px" viewBox="0 0 113.391 113.391" enable-background="new 0 0 113.391 113.391"
	 xml:space="preserve">
<g id="ZDJ3_2_">
	<polygon id="_x33_3" points="49.079,2.405 47.004,6.623 63.201,10.536 64.713,10.097 	"/>
	<polygon id="_x33_2" points="107.604,31.205 105.985,37.934 109.128,39.48 102.795,52.961 95.594,82.891 118.321,36.478 	"/>
	<polygon id="_x33_1" points="64.927,92.153 58.917,93.604 84.943,106.055 87.787,97.875 	"/>
</g>
<g id="ZDJ2_1_">
	<polygon id="_x32_2" points="47.73,14.645 62.011,10.995 33.318,4.392 29.857,19.243 37.462,17.193 38.542,12.533 	"/>
	<polygon id="_x32_1" points="71.454,13.194 73.509,20.698 100.231,26.817 88.847,75.979 91.41,85.04 67.075,91.445 91.092,96.98 
		108.499,21.801 	"/>
</g>
<g id="ZDJ1_1_">
	<polygon id="_x31_3" points="55.841,43.849 51.563,64.97 40.67,57.66 34.585,69.757 24.976,61.978 21.304,82.202 74.272,67.548 	
		"/>
	<path id="_x31_2" d="M-4.931,30.187l20.468,74.404l74.406-20.469L69.476,9.717L-4.931,30.187z M79.123,70.893L18.069,87.688
		L3.537,34.859l61.054-16.795L79.123,70.893z"/>
	<circle id="_x31_1" cx="20.869" cy="41.706" r="7.827"/>
</g>
</svg>
