<?xml version="1.0" encoding="UTF-8" standalone="no"?>
<!-- Generator: Adobe Illustrator 15.0.0, SVG Export Plug-In . SVG Version: 6.00 Build 0)  -->

<svg
   xmlns:dc="http://purl.org/dc/elements/1.1/"
   xmlns:cc="http://creativecommons.org/ns#"
   xmlns:rdf="http://www.w3.org/1999/02/22-rdf-syntax-ns#"
   xmlns:svg="http://www.w3.org/2000/svg"
   xmlns="http://www.w3.org/2000/svg"
   xmlns:sodipodi="http://sodipodi.sourceforge.net/DTD/sodipodi-0.dtd"
   xmlns:inkscape="http://www.inkscape.org/namespaces/inkscape"
   version="1.1"
   id="AUTO_PRZEWRACANIE"
   x="0px"
   y="0px"
   width="113.391px"
   height="113.391px"
   viewBox="0 0 113.391 113.391"
   enable-background="new 0 0 113.391 113.391"
   xml:space="preserve"
   inkscape:version="0.48.5 r10040"
   sodipodi:docname="auto_white.svg"><metadata
     id="metadata3042"><rdf:RDF><cc:Work
         rdf:about=""><dc:format>image/svg+xml</dc:format><dc:type
           rdf:resource="http://purl.org/dc/dcmitype/StillImage" /><dc:title></dc:title></cc:Work></rdf:RDF></metadata><defs
     id="defs3040" /><sodipodi:namedview
     pagecolor="#ffffff"
     bordercolor="#666666"
     borderopacity="1"
     objecttolerance="10"
     gridtolerance="10"
     guidetolerance="10"
     inkscape:pageopacity="0"
     inkscape:pageshadow="2"
     inkscape:window-width="640"
     inkscape:window-height="480"
     id="namedview3038"
     showgrid="false"
     inkscape:zoom="2.1165701"
     inkscape:cx="56.695499"
     inkscape:cy="56.695499"
     inkscape:window-x="0"
     inkscape:window-y="0"
     inkscape:window-maximized="0"
     inkscape:current-layer="AUTO_PRZEWRACANIE" /><path
     id="L1"
     d="M17.976,51.221c0,0-4.133-6.834-1.088-12.219c2.881-5.094,9.208-4.729,9.208-4.729h56.339l-0.058,19.393  l23.636-26.856L82.437,0v19.345h-56.63c-9.063,0.336-15.938,1.523-22.405,12.3C-5.3,46.147,5.42,65.928,5.42,65.928L17.976,51.221z   M95.403,62.169c0,0,4.135,6.834,1.09,12.218c-2.884,5.095-9.208,4.73-9.208,4.73H30.943L31,59.724L7.365,86.582l23.576,26.809  V94.047h56.629c9.064-0.337,15.94-1.523,22.405-12.3c8.701-14.502-2.018-34.284-2.018-34.284L95.403,62.169z" /><path
     style="fill:#ffffff;stroke:#ffffff;stroke-width:0.47246251"
     d="M 19.181977,99.578903 C 13.0754,92.625224 8.0791087,86.776251 8.0791087,86.581185 c 0,-0.272882 22.3842383,-26.009664 22.6236353,-26.012033 0.03001,-2.97e-4 -0.01105,4.259354 -0.09124,9.465892 l -0.145806,9.466432 30.147175,-0.134758 30.147175,-0.134758 1.980596,-1.058679 c 1.089329,-0.582274 2.575138,-1.838167 3.301804,-2.790874 1.796988,-2.355974 2.116708,-7.264731 0.705562,-10.832688 l -0.948507,-2.398216 5.919847,-6.92782 c 3.25592,-3.8103 6.09038,-6.822422 6.29881,-6.693603 0.5612,0.346837 2.66228,6.065841 3.81568,10.385993 1.45833,5.462312 1.49513,13.019527 0.0852,17.500731 -1.88633,5.995434 -6.84818,12.282877 -11.58921,14.685334 -4.80214,2.433432 -6.187154,2.522867 -39.206835,2.531725 l -30.581959,0.0082 -0.128104,9.289947 -0.128103,9.28995 L 19.18196,99.578899 z"
     id="path3044"
     inkscape:connector-curvature="0" /><path
     style="fill:#ffffff;stroke:#ffffff;stroke-width:0.47246251"
     d="M 19.181977,99.578903 C 13.0754,92.625224 8.0791087,86.776251 8.0791087,86.581185 c 0,-0.272882 22.3842383,-26.009664 22.6236353,-26.012033 0.03001,-2.97e-4 -0.01105,4.259354 -0.09124,9.465892 l -0.145806,9.466432 30.147175,-0.134758 30.147175,-0.134758 1.980596,-1.058679 c 1.089329,-0.582274 2.575138,-1.838167 3.301804,-2.790874 1.796988,-2.355974 2.116708,-7.264731 0.705562,-10.832688 l -0.948507,-2.398216 5.919847,-6.92782 c 3.25592,-3.8103 6.09038,-6.822422 6.29881,-6.693603 0.5612,0.346837 2.66228,6.065841 3.81568,10.385993 1.45833,5.462312 1.49513,13.019527 0.0852,17.500731 -1.88633,5.995434 -6.84818,12.282877 -11.58921,14.685334 -4.80214,2.433432 -6.187154,2.522867 -39.206835,2.531725 l -30.581959,0.0082 -0.128104,9.289947 -0.128103,9.28995 L 19.18196,99.578899 z"
     id="path3046"
     inkscape:connector-curvature="0" /><path
     style="fill:#ffffff;stroke:#ffffff;stroke-width:0.47246251"
     d="M 4.3386609,62.829849 C 0.31149485,53.72371 -0.75563653,43.110173 1.6670381,36.258266 3.621016,30.731948 8.5991047,24.563866 12.854743,22.396185 c 5.271188,-2.684969 4.465306,-2.625722 38.336568,-2.818444 l 31.300641,-0.178096 0,-9.4290771 0,-9.42907694 10.699159,12.17864104 c 5.884539,6.698253 11.086929,12.61063 11.560859,13.138616 0.84875,0.945536 0.68782,1.157376 -10.699154,14.083977 l -11.560864,13.124003 0,-9.477469 0,-9.477467 -29.174559,0.0026 c -18.086704,0.0016 -29.824143,0.18306 -30.883754,0.477391 -5.880862,1.633541 -8.087707,6.862546 -5.908292,13.999389 l 0.886838,2.90409 -5.975532,6.936312 -5.9755313,6.936311 -1.1224608,-2.538082 0,0 z"
     id="path3048"
     inkscape:connector-curvature="0" /></svg>