<?xml version="1.0" encoding="UTF-8" standalone="no"?>
<!-- Generator: Adobe Illustrator 15.0.0, SVG Export Plug-In . SVG Version: 6.00 Build 0)  -->

<svg
   xmlns:dc="http://purl.org/dc/elements/1.1/"
   xmlns:cc="http://creativecommons.org/ns#"
   xmlns:rdf="http://www.w3.org/1999/02/22-rdf-syntax-ns#"
   xmlns:svg="http://www.w3.org/2000/svg"
   xmlns="http://www.w3.org/2000/svg"
   xmlns:sodipodi="http://sodipodi.sourceforge.net/DTD/sodipodi-0.dtd"
   xmlns:inkscape="http://www.inkscape.org/namespaces/inkscape"
   version="1.1"
   id="PANEL_STARTOWY"
   x="0px"
   y="0px"
   width="113.39px"
   height="113.39px"
   viewBox="0 0 113.39 113.39"
   enable-background="new 0 0 113.39 113.39"
   xml:space="preserve"
   inkscape:version="0.48.5 r10040"
   sodipodi:docname="bib.svg"><metadata
     id="metadata3929"><rdf:RDF><cc:Work
         rdf:about=""><dc:format>image/svg+xml</dc:format><dc:type
           rdf:resource="http://purl.org/dc/dcmitype/StillImage" /></cc:Work></rdf:RDF></metadata><defs
     id="defs3927" /><sodipodi:namedview
     pagecolor="#ffffff"
     bordercolor="#666666"
     borderopacity="1"
     objecttolerance="10"
     gridtolerance="10"
     guidetolerance="10"
     inkscape:pageopacity="0"
     inkscape:pageshadow="2"
     inkscape:window-width="640"
     inkscape:window-height="480"
     id="namedview3925"
     showgrid="false"
     inkscape:zoom="2.0813123"
     inkscape:cx="56.695"
     inkscape:cy="56.695"
     inkscape:window-x="0"
     inkscape:window-y="0"
     inkscape:window-maximized="0"
     inkscape:current-layer="PANEL_STARTOWY" /><path
     id="f1"
     d="M20.509,6.25c-3.15-0.015-3.775,1.3-3.775,1.3v55.665c3.357-2.596,7.549,0,7.549,0V7.629  C24.283,7.629,24.033,6.267,20.509,6.25z" /><path
     id="f2"
     d="M20.466,0.106c-2.374,0-3.143,0.986-3.143,0.986v4.372c0.448-0.716,5.292-0.869,6.302,0V1.149  C23.077,0.606,22.055,0.106,20.466,0.106z" /><path
     id="f3"
     d="M20.465,64.147c-2.374,0-3.142,0.668-3.142,0.668v47.931c0,0,0.066,0.618,2.929,0.643  c2.864,0.026,3.375-0.643,3.375-0.643V64.864C23.077,64.502,22.054,64.147,20.465,64.147z" /><path
     id="f4"
     d="M113.247,14.53C87.179,1.362,39.887,3.668,26.51,6.958v56.104c15.859-3.442,86.737,1.086,86.737,1.086  L86.868,33.014L113.247,14.53z M33.75,56c1.134,3.551,10.652,3.018,11.583,3.417c0,0-9.154,0.224-11.504,0.482  c-0.697,0.078-0.605-0.047-3.498,0.351l-0.19-51.735C34.343,6.118,48.5,6.25,48.5,6.25c-4.914,0.134-14.512,2.938-15.167,5.833  C31.731,19.181,32.761,52.909,33.75,56z" /><path
     style="fill:#ffffff;stroke:#ffffff;stroke-width:0.4804661"
     d="M 110.65935,63.811231 C 110.54924,63.708459 102.13508,63.236598 91.961211,62.762657 72.771642,61.868716 37.590234,61.550556 30.581667,62.207579 l -3.963845,0.371593 0,-27.605667 c 0,-25.876443 0.05267,-27.6211803 0.840816,-27.8533499 7.977295,-2.3499243 38.899424,-2.9546314 53.451853,-1.045294 11.060085,1.4511276 22.665789,4.3538109 28.960759,7.2433239 l 2.77536,1.273944 -12.38468,8.650234 c -6.811572,4.757629 -12.676919,8.930903 -13.034098,9.273942 -0.539981,0.518602 1.394544,3.041581 11.479729,14.971694 6.671039,7.891393 12.568359,14.83446 13.105169,15.429037 0.97384,1.078632 0.97387,1.081048 0.0114,1.081048 -0.53054,0 -1.0547,-0.08409 -1.1648,-0.186853 l -2e-5,0 z M 39.014915,59.88417 c 3.515197,-0.176139 6.320779,-0.390744 6.234626,-0.476896 -0.08615,-0.08615 -1.933914,-0.379491 -4.106137,-0.651863 C 36.880057,58.22083 34.61754,57.32725 34.085896,55.96805 33.384076,54.173773 32.781569,38.259175 32.939607,25.690039 L 33.104114,12.606464 34.569452,11.14124 C 36.177638,9.5331782 41.433726,7.482533 45.20068,6.9935015 49.649626,6.4159326 48.978426,5.8693662 44.154835,6.1418565 38.079032,6.4850856 32.888349,7.1348931 31.251626,7.7571739 l -1.270541,0.4830591 0,26.23547 0,26.23547 1.321281,-0.253379 c 0.726705,-0.139354 4.197352,-0.39749 7.712549,-0.573624 z"
     id="path3931"
     inkscape:connector-curvature="0" /><path
     style="fill:#ffffff;stroke:#ffffff;stroke-width:0.4804661"
     d="M 17.010839,34.832353 17.0085,7.3482523 18.780974,6.8588486 c 1.815285,-0.5012243 3.766536,-0.2714157 4.833935,0.5693169 0.467831,0.3684848 0.600582,6.4889515 0.600582,27.6895625 l 0,27.216517 -3.601156,-0.0089 -3.601156,-0.0089 -0.0023,-27.4841 z"
     id="path3933"
     inkscape:connector-curvature="0" /><path
     style="fill:#ffffff;stroke:#ffffff;stroke-width:0.4804661"
     d="M 17.718873,112.43034 C 17.586975,112.08611 17.53534,101.21018 17.604129,88.261622 l 0.12507,-23.542838 2.642564,0 2.642563,0 0,24.023305 0,24.023301 -2.527819,0.14542 c -1.743969,0.10032 -2.602184,-0.0487 -2.767634,-0.48047 l 0,0 z"
     id="path3935"
     inkscape:connector-curvature="0" /><path
     style="fill:#ffffff;stroke:#ffffff;stroke-width:0.4804661"
     d=""
     id="path3937"
     inkscape:connector-curvature="0" /><path
     style="fill:#ffffff;stroke:#ffffff;stroke-width:0.4804661"
     d="m 17.583804,2.8107267 c 0.137185,-1.88134061 0.237325,-2.00271605 1.773393,-2.14945097 3.065863,-0.29287054 3.897362,0.1932929 3.897362,2.27872127 l 0,1.864664 -2.908074,0 -2.908075,0 0.145394,-1.9939343 z"
     id="path3939"
     inkscape:connector-curvature="0" /></svg>