<?xml version="1.0" encoding="UTF-8" standalone="no"?>
<!-- Generator: Adobe Illustrator 17.0.2, SVG Export Plug-In . SVG Version: 6.00 Build 0)  -->

<svg
   xmlns:dc="http://purl.org/dc/elements/1.1/"
   xmlns:cc="http://creativecommons.org/ns#"
   xmlns:rdf="http://www.w3.org/1999/02/22-rdf-syntax-ns#"
   xmlns:svg="http://www.w3.org/2000/svg"
   xmlns="http://www.w3.org/2000/svg"
   xmlns:sodipodi="http://sodipodi.sourceforge.net/DTD/sodipodi-0.dtd"
   xmlns:inkscape="http://www.inkscape.org/namespaces/inkscape"
   version="1.1"
   id="Capa_1"
   x="0px"
   y="0px"
   width="64px"
   height="64px"
   viewBox="0 0 64 64"
   style="enable-background:new 0 0 64 64;"
   xml:space="preserve"
   inkscape:version="0.48.5 r10040"
   sodipodi:docname="contour.svg"><metadata
     id="metadata3364"><rdf:RDF><cc:Work
         rdf:about=""><dc:format>image/svg+xml</dc:format><dc:type
           rdf:resource="http://purl.org/dc/dcmitype/StillImage" /></cc:Work></rdf:RDF></metadata><defs
     id="defs3362" /><sodipodi:namedview
     pagecolor="#ffffff"
     bordercolor="#666666"
     borderopacity="1"
     objecttolerance="10"
     gridtolerance="10"
     guidetolerance="10"
     inkscape:pageopacity="0"
     inkscape:pageshadow="2"
     inkscape:window-width="640"
     inkscape:window-height="480"
     id="namedview3360"
     showgrid="false"
     inkscape:zoom="3.6875"
     inkscape:cx="32"
     inkscape:cy="32"
     inkscape:window-x="0"
     inkscape:window-y="0"
     inkscape:window-maximized="0"
     inkscape:current-layer="Capa_1" /><g
     id="g3324"><path
       d="M41.629,35.152c-0.874-0.664-3.144-1.094-2.586-2.335c0.718-1.597,1.087-3.367,1.424-5.075   c0.534-2.708,0.65-12.72-4.882-9.955c-1.533,0.766-3.392,0.468-4.842,1.685c-2.334,1.958-2.978,4.645-3.069,7.611   c-0.092,2.997,2.843,7.607,0.207,9.296c-3.743,2.399-6.741,5.636-7.44,10.128c-0.064,0.416,0.567,0.378,0.817,0.352   c0.189-0.02,0.379-0.041,0.568-0.061c0.314-0.035-0.087,0.545-0.894,1.299c-1.019,0.95-2.038,1.901-3.057,2.852   c-0.808,0.753-0.918,1.512-0.224,1.565c0.694,0.053,1.919-0.511,2.734-1.257c0.983-0.901,1.964-1.805,2.946-2.708   c0.813-0.747,1.438-1.516,1.392-1.717c-0.045-0.201,0.805-0.472,1.901-0.607c6.159-0.761,12.285-1.49,18.528-0.76   c0.02,0.002,0.044,0.001,0.067,0.001c0.545,0.053,1.421-0.224,1.496-0.625C47.484,40.716,44.732,37.508,41.629,35.152z    M43.319,44.235c-0.863-0.05-1.549-0.079-1.531-0.098c0.018-0.018-0.328-0.034-0.771-0.028c-0.268,0.003-0.535,0.008-0.802,0.015   c-3.752,0.039-7.449,0.388-11.197,0.858c-2.046,0.258-7.148,2.135-6.029-1.419c0.026-0.084,0.056-0.167,0.087-0.249   c0.052-0.137,0.26-0.399,0.462-0.588c0.203-0.188,0.365-0.365,0.36-0.393c-0.004-0.027-0.16,0.102-0.348,0.291   c-0.188,0.188-0.007-0.5,0.632-1.4c1.769-2.495,4.762-4.349,7.19-5.786c0.109-0.065,0.489-0.311,0.378-0.502   c-1.617-2.79-2.219-5.917-2.12-9.124c0.056-1.812,0.597-3.546,1.586-5.06c1.54-2.357,2.807-1.111,4.347-1.881   c5.244-2.621,2.278,12.966,1.045,15.261c-0.07,0.13,0.082,0.272,0.187,0.307c3.483,1.16,7.157,4.191,7.95,7.921   C44.974,43.441,44.183,44.285,43.319,44.235z"
       id="path3326" /><path
       d="M49.558,21.508c-2.498,2.317-4.994,4.635-7.492,6.955c-0.81,0.752-1.471,1.379-1.479,1.402   c-0.007,0.023,0.083,0.542,0.248,1.148c0.165,0.606,0.989,0.479,1.799-0.273c2.452-2.275,4.903-4.549,7.351-6.824   c0.808-0.752,1.443-1.911,1.33-2.578C51.203,20.67,50.368,20.756,49.558,21.508z"
       id="path3328" /><path
       d="M44.818,18.355c-0.085,0.027-0.577,0.479-1.099,1.008c-0.523,0.53-0.453,0.51,0.155-0.045   C44.481,18.762,44.903,18.328,44.818,18.355z"
       id="path3330" /><path
       d="M17.067,37.553c0.187-0.204,0.375-0.408,0.562-0.613c0.31-0.339-0.083,0.008-0.878,0.775   c-0.578,0.558-1.132,1.092-1.629,1.571c-0.795,0.767-1.437,1.436-1.426,1.495c0.01,0.06,0.651-0.523,1.434-1.302   C15.773,38.837,16.417,38.194,17.067,37.553z"
       id="path3332" /><path
       d="M21.333,30.985c0.787-0.775,1.403-1.96,1.379-2.645c-0.024-0.685-0.661-0.598-1.43,0.194   c-2.212,2.28-4.422,4.562-6.631,6.842c-0.769,0.793-1.351,1.869-1.292,2.401c0.059,0.532,0.747,0.334,1.533-0.441   C17.039,35.218,19.186,33.102,21.333,30.985z"
       id="path3334" /><path
       d="M42.799,24.727c0.563-0.528,1.124-1.054,1.682-1.577c0.806-0.755,1.335-1.185,2.154-1.926   c0.453-0.411,1.039-0.946,1.743-1.591c0.814-0.747,1.273-1.533,0.989-1.7c-0.284-0.166-0.705-0.088-0.904,0.098   c-0.117,0.109-0.235,0.22-0.36,0.337c-3.644,3.595-2.985,2.833-5.195,4.969c-0.794,0.768-1.452,1.702-1.49,2.077   C41.38,25.791,41.993,25.482,42.799,24.727z"
       id="path3336" /><path
       d="M50.463,28.869c0.233-0.23,0.433-0.46,0.442-0.514c0.01-0.055-0.621,0.526-1.411,1.298   c-1.604,1.568-3.198,3.125-4.781,4.672c-0.79,0.771-1.392,1.43-1.345,1.47c0.047,0.041,0.736-0.544,1.538-1.304   c1.509-1.431,2.983-2.829,4.42-4.194c0.801-0.761,1.474-1.48,1.505-1.607c0.031-0.126-0.135-0.044-0.368,0.183   C50.229,29.101,50.229,29.099,50.463,28.869z"
       id="path3338" /><path
       d="M45.394,54.74c-0.218,0.229-0.356,0.415-0.31,0.415c0.046,0.001,0.263-0.18,0.486-0.404   c0.222-0.225,0.362-0.411,0.311-0.417C45.83,54.329,45.612,54.511,45.394,54.74z"
       id="path3340" /><path
       d="M55.054,37.713c-0.061,0.062-0.096-0.784-0.08-1.889c0.078-5.352,0.108-10.724-0.071-16.057   c-0.134-1.959,0.7-5.894-1.639-6.914c-3.496-1.524-7.758-1.221-11.485-1.666c-3.9-0.465-7.682-0.699-11.432-0.753   c-1.104-0.016-1.932-0.081-1.847-0.166c0.084-0.085-0.153-0.16-0.532-0.166c-0.378-0.006-0.759,0.068-0.85,0.159   c-0.09,0.09-1.059,0.175-2.163,0.209c-0.207,0.006-0.414,0.013-0.622,0.021c-1.104,0.039-1.918,0.006-1.818-0.094   c0.099-0.1-0.318-0.15-0.93-0.092c-0.612,0.058-1.18,0.175-1.267,0.259c-0.086,0.083-0.182,0.152-0.213,0.154   c-0.032,0.002,0.012-0.063,0.098-0.146c0.086-0.083,0.129-0.146,0.096-0.143c-0.033,0.003-0.126,0.071-0.209,0.152   c-0.083,0.081-1.043,0.208-2.145,0.299c-2.167,0.178-4.353,0.402-6.576,0.676c-0.317,0.039-1.029,0.228-1.108,0.621   c-0.896,4.482-0.238,9.657-0.179,14.219c0.09,6.905,0.615,13.771,1.915,20.558c0.429,2.236,0.32,6.14,3.1,6.51   c5.997,0.8,12.083,1.283,18.113,1.792c4.508,0.38,9.137,1.324,13.678,0.84c1.917-0.205,5.331-0.208,6.593-2.047   c0.765-1.115,0.702-3.579,0.884-4.822c0.295-2.005,0.413-4.034,0.475-6.063c0.033-1.104,0.199-2.164,0.388-2.366   c0.188-0.201,0.35-0.878,0.355-1.512c0.006-0.633-0.086-1.268-0.203-1.416C55.263,37.72,55.115,37.652,55.054,37.713z M53,37.784   c-0.01,1.104-0.65,2.634-1.431,3.414c-0.521,0.521-1.043,1.043-1.566,1.566c-0.78,0.781-0.621,1.371,0.356,1.354   c0.977-0.017,1.947-0.189,2.164-0.422c0.217-0.232,0.36,0.474,0.289,1.576c-0.131,2.013-0.34,4.017-0.635,6.025   c-0.141,0.961-0.412,1.686-0.79,2.234c-0.627,0.909-1.938,1.177-2.416,1.126c-0.477-0.05-0.999,0.042-1.163,0.208   c-0.164,0.166-0.131,0.295,0.074,0.279c0.205-0.016-0.521,0.057-1.625,0.049c-0.676-0.006-1.386-0.027-2.119-0.033   c-6.628-0.056-13.544-1.127-20.122-1.899c-2.569-0.302-5.137-0.582-7.716-0.775c-2.108-0.159-2.458-6.514-2.724-7.896   C12.28,37.826,12.079,30.866,11.99,24c-0.04-3.12-0.012-6.24-0.002-9.359c0.002-0.618-0.006-1.069,0.004-1.4   c0.025-0.773,0.716-0.906,0.7-0.827s-0.028,0.624-0.03,1.217c-0.002,0.593,0.639,0.448,1.43-0.322   c0.023-0.023,0.047-0.046,0.07-0.068c0.791-0.771,2.179-1.534,3.103-1.681c0.554-0.087,1.113-0.166,1.681-0.226   c0.067-0.007,0.135-0.012,0.203-0.016c0.112-0.008-0.436,0.61-1.226,1.382c-1.254,1.226-2.529,2.472-3.838,3.749   c-0.791,0.771-1.433,1.41-1.433,1.426s0.641-0.596,1.432-1.366c1.399-1.363,2.766-2.693,3.932-3.824   c0.793-0.769,1.463-1.393,1.496-1.395c0.033-0.003-0.585,0.618-1.379,1.386c-1.094,1.057-2.46,2.378-4.044,3.912   c-0.793,0.768-1.438,1.935-1.438,2.607c0,0.671,0.628,0.576,1.401-0.212c2.128-2.169,4.245-4.316,6.352-6.449   c0.776-0.786,2.3-1.473,3.405-1.496c6.177-0.129,12.399,0.606,18.496,1.333c2.41,0.288,4.828,0.394,7.239,0.658   c4.331,0.475,3.235,4.455,3.427,7.255C53.166,26.107,53.057,31.953,53,37.784z"
       id="path3342" /><path
       d="M14.443,32.731c2.367-2.437,4.645-4.779,6.792-6.981c0.771-0.791,1.387-2.15,1.378-3.038   c-0.008-0.887-0.648-0.978-1.436-0.203c-2.284,2.248-4.585,4.515-6.91,6.809c-0.787,0.776-1.39,2.177-1.331,3.128   C12.996,33.396,13.674,33.523,14.443,32.731z"
       id="path3344" /><path
       d="M47.575,37.426c-0.819,0.741-1.392,1.475-1.284,1.64c0.108,0.164,0.816-0.337,1.589-1.126   c0.683-0.697,1.366-1.395,2.048-2.092c0.773-0.79,1.338-1.464,1.264-1.504c-0.074-0.039-0.798,0.53-1.617,1.271   C48.901,36.225,48.234,36.829,47.575,37.426z"
       id="path3346" /><path
       d="M31.865,52.922c-0.577-0.063-1.327,0.149-1.658,0.487c-0.331,0.339,0.164-0.037-0.001,0.114   c-0.166,0.152,0.155,0.324,0.714,0.387c0.56,0.062,1.232-0.111,1.501-0.381C32.69,53.26,32.442,52.985,31.865,52.922z"
       id="path3348" /><path
       d="M25.386,49.773c-0.012-0.058-0.68,0.504-1.491,1.254c-0.191,0.177-0.381,0.353-0.572,0.529   c-0.81,0.75-1.312,1.376-1.121,1.398c0.192,0.021,0.976-0.599,1.752-1.385c0.032-0.032,0.063-0.064,0.095-0.097   c0.776-0.786,1.396-1.463,1.383-1.51c-0.007-0.027-0.014-0.056-0.022-0.086C25.401,49.844,25.394,49.809,25.386,49.773z"
       id="path3350" /><path
       d="M20.092,18.727c0.418-0.424,0.837-0.845,1.257-1.266c0.696-0.698,1.259-1.576,1.259-1.958   c0.001-0.383-0.629-0.057-1.407,0.728c-2.373,2.395-4.742,4.791-7.11,7.187c-0.776,0.786-1.403,1.65-1.401,1.932   c0.003,0.282,0.654-0.107,1.452-0.872C16.127,22.577,18.107,20.662,20.092,18.727z"
       id="path3352" /><path
       d="M42.376,54.069c-0.553-0.05-1.097-0.107-1.637-0.168c-0.903-0.102-1.829,0.008-2.067,0.245   c-0.238,0.236,0.408,0.524,1.443,0.634c1.035,0.109,2.057-0.01,2.281-0.249c0.224-0.239,0.309-0.439,0.191-0.447   C42.516,54.078,42.444,54.072,42.376,54.069z"
       id="path3354" /><path
       d="M23.125,37.745c0.094-0.098,0.123-0.621,0.066-1.167c-0.057-0.547-0.73-0.358-1.513,0.42   c-2.047,2.036-4.044,4.023-5.989,5.956c-0.783,0.779-1.336,1.869-1.223,2.435c0.112,0.565,0.29,0.949,0.388,0.857   c0.06-0.057,0.119-0.112,0.179-0.17c2.646-2.734,5.289-5.467,7.921-8.155C23.012,37.861,23.068,37.804,23.125,37.745z"
       id="path3356" /><path
       d="M55.384,44.213c-0.038,0.039-0.04,0.072-0.005,0.076c0.035,0.005,0.065-0.028,0.068-0.071   C55.45,44.175,55.422,44.173,55.384,44.213z"
       id="path3358" /></g><path
     style="fill:#ffffff"
     d="m 42.00678,55.998522 c -0.596611,-0.04507 -2.854238,-0.2617 -5.016949,-0.481407 -2.162712,-0.21971 -6.61695,-0.647813 -9.898306,-0.951344 -9.26884,-0.857378 -12.278182,-1.256776 -12.991619,-1.724236 -0.889178,-0.582612 -1.410181,-2.15065 -2.041953,-6.145559 -1.327161,-8.392084 -1.87364,-15.653034 -1.989825,-26.438349 -0.06494,-6.0285 0.125864,-8.128902 0.760574,-8.372464 0.214013,-0.08212 2.191207,-0.344233 4.393766,-0.582463 2.202558,-0.238231 4.431769,-0.501313 4.953803,-0.584627 1.890844,-0.301771 13.644763,-0.105983 18.493055,0.308043 10.613888,0.906387 11.502994,1.013495 13.215374,1.59202 3.025003,1.021994 2.856005,0.250333 2.939433,13.421676 0.04806,7.588474 0.170156,11.494922 0.371544,11.887949 0.164977,0.321964 0.233343,0.99315 0.15193,1.491526 -0.41149,2.518888 -0.754094,5.375569 -1.104223,9.207184 -0.43383,4.747598 -0.742302,5.631837 -2.207205,6.32698 -1.513711,0.718302 -6.910514,1.280653 -10.029399,1.045071 l 0,0 z m 5.966101,-0.893437 c 0.09218,-0.149153 0.469405,-0.271187 0.838276,-0.271187 1.325977,0 2.548762,-0.740634 2.998034,-1.815897 0.469369,-1.12336 1.345307,-8.482473 1.089114,-9.150101 -0.126601,-0.329918 -0.308618,-0.361378 -0.865605,-0.149611 -1.012686,0.385022 -2.297107,0.337253 -2.297107,-0.08543 0,-0.194471 0.437505,-0.774132 0.972233,-1.288136 0.534729,-0.514004 1.29744,-1.483707 1.694916,-2.154893 l 0.722682,-1.220339 -0.0312,-11.525424 c -0.03462,-12.791775 -0.07406,-13.109001 -1.736778,-13.968823 -0.594855,-0.307612 -3.26675,-0.691773 -8.631531,-1.24103 -14.411068,-1.475431 -18.776642,-1.668877 -20.592254,-0.91248 -0.605723,0.252348 -2.604774,2.003008 -5.0073,4.38512 -2.199483,2.180794 -4.075156,3.888985 -4.168162,3.795979 -0.502295,-0.502295 0.506847,-1.94556 3.482095,-4.980054 2.748447,-2.803176 3.177495,-3.348817 2.628879,-3.343269 -1.454894,0.01471 -3.133816,0.615804 -4.567082,1.635121 l -1.512262,1.075498 -0.08498,-0.816252 c -0.100677,-0.967037 -0.449212,-1.049243 -0.897463,-0.211677 -0.381861,0.713514 -0.149232,17.834176 0.312362,22.988646 0.375441,4.192437 1.556098,12.246099 2.074503,14.150889 0.630921,2.318207 1.009348,2.546652 4.832865,2.917434 1.78983,0.173565 6.305084,0.682742 10.033898,1.131501 9.469795,1.139677 18.349906,1.640073 18.711864,1.054414 z"
     id="path3366"
     inkscape:connector-curvature="0" /><path
     style="fill:#ffffff"
     d="m 17.464407,52.077649 c 0,-0.205904 1.037288,-1.40627 2.305085,-2.66748 1.267796,-1.261209 2.305084,-2.38733 2.305084,-2.502486 0,-0.11516 -0.321052,-0.209378 -0.713448,-0.209378 -0.665275,0 -0.702944,-0.06473 -0.557869,-0.958728 0.435455,-2.683397 2.656712,-5.827318 5.775774,-8.174913 2.878933,-2.166859 2.977695,-2.550168 1.839028,-7.137545 -0.646723,-2.60547 -0.681899,-3.025589 -0.413917,-4.943517 0.502745,-3.598108 2.247394,-6.087132 4.710939,-6.720916 0.635857,-0.163584 1.925316,-0.546933 2.865464,-0.851888 2.719487,-0.882116 3.7209,-0.204392 4.56728,3.090987 0.637477,2.482012 0.377647,6.654577 -0.609428,9.786691 -0.883263,2.80271 -0.849664,2.910007 1.30565,4.169409 1.78312,1.04192 4.44496,3.835003 5.12941,5.382318 0.270744,0.61206 0.570915,1.782051 0.667045,2.59998 0.278598,2.370423 0.189321,2.408191 -5.250723,2.221241 -3.286388,-0.112939 -5.805252,-0.02907 -9.145713,0.304504 -7.100119,0.709014 -6.749681,0.59286 -9.238909,3.062321 -1.183007,1.173614 -2.57804,2.45283 -3.100074,2.842702 -1.177209,0.879175 -2.440678,1.245014 -2.440678,0.706698 z m 9.523799,-6.583187 c 3.687652,-0.633236 7.391523,-0.973301 12.442302,-1.142367 5.144047,-0.172186 5.423729,-0.261402 5.423729,-1.730104 0,-0.395127 -0.372371,-1.463592 -0.827489,-2.374366 -1.016422,-2.034039 -3.15516,-4.053864 -5.53102,-5.223496 l -1.734203,-0.853746 0.399478,-1.125869 c 1.043073,-2.939743 1.780949,-10.144925 1.290211,-12.598614 -0.259495,-1.297473 -1.102077,-2.039285 -2.109446,-1.857161 -0.463904,0.08387 -1.56202,0.276468 -2.440257,0.427995 -1.879175,0.324224 -2.375271,0.714023 -3.291112,2.585934 -1.465676,2.995734 -1.403125,7.584708 0.156475,11.479624 0.447346,1.117194 0.779669,2.050234 0.738496,2.073422 -3.661162,2.061829 -6.961938,4.964757 -7.935457,6.978983 -0.964656,1.995888 -1.040043,2.578222 -0.414721,3.203546 0.651311,0.651311 0.89259,0.661144 3.833014,0.156219 l 0,0 z"
     id="path3368"
     inkscape:connector-curvature="0" /><path
     style="fill:#ffffff"
     d=""
     id="path3370"
     inkscape:connector-curvature="0" /><path
     style="fill:#ffffff"
     d=""
     id="path3372"
     inkscape:connector-curvature="0" /><path
     style="fill:#ffffff"
     d="m 40.901084,30.632299 c -0.165013,-0.51991 0.216823,-0.99736 2.625794,-3.283309 6.651214,-6.31155 7.966454,-7.237679 7.470112,-5.260096 -0.236098,0.94069 -8.782726,9.151784 -9.525757,9.151784 -0.207381,0 -0.463948,-0.273771 -0.570149,-0.608379 z"
     id="path3374"
     inkscape:connector-curvature="0" /><path
     style="fill:#ffffff"
     d=""
     id="path3376"
     inkscape:connector-curvature="0" /><path
     style="fill:#ffffff"
     d="m 42.207934,24.396588 c 0.590166,-0.888838 6.695198,-6.553343 6.872213,-6.376328 0.307789,0.307789 -0.638312,1.356023 -3.729911,4.13256 -3.194572,2.869017 -3.884607,3.361738 -3.142302,2.243768 z"
     id="path3378"
     inkscape:connector-curvature="0" /><path
     style="fill:#ffffff"
     d=""
     id="path3380"
     inkscape:connector-curvature="0" /><path
     style="fill:#ffffff"
     d=""
     id="path3382"
     inkscape:connector-curvature="0" /><path
     style="fill:#ffffff"
     d=""
     id="path3384"
     inkscape:connector-curvature="0" /><path
     style="fill:#ffffff"
     d="m 13.250142,32.850201 c -0.09816,-0.158831 -0.09495,-0.738492 0.0071,-1.288136 0.152567,-0.821406 0.915866,-1.735746 4.286697,-5.134946 2.255594,-2.274577 4.258738,-4.135594 4.451431,-4.135594 0.445764,0 0.442415,1.291229 -0.0054,2.097317 -0.434198,0.781507 -8.017216,8.750141 -8.326707,8.750141 -0.129055,0 -0.31496,-0.129952 -0.413123,-0.288782 z"
     id="path3386"
     inkscape:connector-curvature="0" /><path
     style="fill:#ffffff"
     d=""
     id="path3388"
     inkscape:connector-curvature="0" /><path
     style="fill:#ffffff"
     d=""
     id="path3390"
     inkscape:connector-curvature="0" /><path
     style="fill:#ffffff"
     d="m 13.667797,24.272915 c 0,-0.12377 1.952542,-2.174717 4.338983,-4.557661 2.38644,-2.382944 4.338983,-4.169181 4.338983,-3.969416 0,0.199766 -1.616949,2.010119 -3.593221,4.023008 -3.487743,3.552366 -5.084745,4.966991 -5.084745,4.504069 z"
     id="path3392"
     inkscape:connector-curvature="0" /><path
     style="fill:#ffffff"
     d="m 13.565698,37.803349 c -0.299645,-0.484838 1.205403,-2.358035 4.832342,-6.014378 2.07815,-2.094997 3.882092,-3.705449 4.008759,-3.578782 0.505425,0.505425 -0.497868,1.895413 -3.795013,5.257711 -3.612345,3.683728 -4.811909,4.714358 -5.046088,4.335449 z"
     id="path3394"
     inkscape:connector-curvature="0" /><path
     style="fill:#ffffff"
     d="m 42.767778,54.93056 c -0.178064,-0.07244 -0.262685,-0.290831 -0.188055,-0.485323 0.168009,-0.437817 -0.692764,-0.68745 -2.387446,-0.692383 -1.31488,-0.0038 -1.924694,0.406937 -1.271089,0.85619 0.250834,0.172407 0.01703,0.209904 -0.711019,0.114031 -0.59661,-0.07857 -2.061016,-0.222316 -3.254237,-0.319441 -1.19322,-0.09713 -2.352542,-0.280404 -2.576271,-0.40729 -0.265777,-0.15073 -0.289278,-0.233556 -0.0678,-0.238945 0.468498,-0.01139 0.427417,-0.729844 -0.05226,-0.913912 -0.501141,-0.192306 -2.087995,0.258078 -2.338735,0.663784 -0.143922,0.23287 -0.893753,0.23066 -3.002117,-0.0088 -4.566205,-0.518726 -4.353702,-0.354218 -2.665598,-2.063555 0.797862,-0.807897 1.371167,-1.548394 1.274013,-1.645546 -0.195871,-0.195873 -2.715232,1.827051 -3.280491,2.634074 -0.311266,0.444394 -0.580552,0.489538 -2.021596,0.338918 l -1.662497,-0.173765 1.145826,-0.730793 c 0.630204,-0.401939 2.213411,-1.77251 3.518237,-3.045717 2.683302,-2.618272 1.768428,-2.309651 9.153012,-3.087647 3.054014,-0.321752 5.501691,-0.400537 8.951417,-0.288128 2.731864,0.08902 4.919799,0.04836 5.152542,-0.09576 0.290531,-0.179894 0.403279,-0.734847 0.400125,-1.969432 -0.0036,-1.38813 -0.175181,-2.065882 -0.891802,-3.521545 -0.985825,-2.00251 -3.323856,-4.34417 -5.544485,-5.553105 -0.708475,-0.385702 -1.288136,-0.845827 -1.288136,-1.022502 0,-0.176674 0.225698,-0.981008 0.501551,-1.787409 0.882967,-2.581183 1.208651,-5.029763 1.05625,-7.941231 -0.164017,-3.133393 -0.686232,-4.725162 -1.879645,-5.729352 -0.974272,-0.819796 -1.502957,-0.838738 -3.610359,-0.129354 -0.894916,0.301243 -2.115255,0.664358 -2.711865,0.806923 -2.467048,0.589522 -4.223184,3.110538 -4.774199,6.853588 -0.288324,1.958583 -0.25713,2.333574 0.444466,5.343072 0.991184,4.251687 0.921279,4.492979 -1.94164,6.701997 -3.276798,2.528364 -5.314298,5.52198 -5.706658,8.384556 -0.143695,1.048372 -0.103084,1.153999 0.475709,1.237294 0.563133,0.08104 0.387671,0.327821 -1.593448,2.241112 -1.224445,1.182525 -2.226264,2.372355 -2.226264,2.644068 0,0.620951 -0.883137,0.656892 -1.479805,0.06023 -0.831779,-0.831778 -1.254064,-2.419675 -2.044302,-7.687086 -1.138463,-7.588537 -1.339546,-10.358329 -1.537805,-21.182304 -0.127417,-6.956379 -0.0914,-9.789057 0.129319,-10.169492 0.273014,-0.47058 0.306818,-0.432486 0.314177,0.354038 0.01047,1.119326 0.436276,1.129108 1.801466,0.04139 1.382787,-1.101744 2.180023,-1.488613 3.482662,-1.690008 l 1.072491,-0.165813 -3.136967,3.178404 c -2.819395,2.856637 -3.133872,3.272068 -3.10639,4.103611 0.01682,0.508864 0.185928,0.977597 0.3758,1.041628 0.189872,0.06403 1.959353,-1.555541 3.93218,-3.59905 4.491798,-4.652729 5.127382,-5.014317 8.798329,-5.00543 5.487527,0.01328 24.479643,1.920415 25.448909,2.555503 1.535024,1.005786 1.555414,1.180469 1.584353,13.572066 0.03007,12.876224 0.142809,12.130158 -2.198108,14.545843 -1.67658,1.730126 -1.540978,2.287411 0.539314,2.216458 1.824141,-0.06221 1.720391,-0.474609 1.152331,4.580464 -0.212786,1.893573 -0.578573,3.81354 -0.812859,4.266598 -0.496386,0.959905 -1.675645,1.646476 -2.827995,1.646476 -0.446064,0 -0.886443,0.122034 -0.978625,0.271186 -0.09218,0.149153 -0.583688,0.271187 -1.092239,0.271187 -0.710484,0 -0.888485,-0.09421 -0.768542,-0.40678 0.08586,-0.223729 0.01717,-0.40678 -0.152616,-0.40678 -0.16979,0 -0.378953,0.183051 -0.464805,0.40678 -0.151252,0.394156 -1.698118,0.540456 -2.455715,0.232255 l 0,0 z M 20.753934,40.40989 c 1.717918,-1.854186 2.450004,-2.848647 2.487644,-3.379204 0.111767,-1.575401 -0.786514,-1.066982 -4.422521,2.503109 -3.808106,3.73907 -4.886277,5.325926 -4.327732,6.369579 0.304983,0.569865 0.374837,0.531492 2.071962,-1.13817 0.965986,-0.950354 2.851777,-2.910245 4.190647,-4.355314 z m -4.781053,-1.575992 c 1.036068,-1.044067 1.761725,-1.898305 1.612573,-1.898305 -0.149153,0 -1.118878,0.854238 -2.154946,1.898305 -1.036067,1.044068 -1.761725,1.898305 -1.612572,1.898305 0.149153,0 1.118878,-0.854237 2.154945,-1.898305 z m 33.20822,-2.053842 c 2.163341,-2.253388 2.732347,-3.232816 1.178942,-2.029315 -1.175132,0.910434 -4.149874,3.866921 -4.149874,4.124407 0,0.672535 0.971878,-0.01283 2.970932,-2.095092 z M 17.592502,34.883949 c 2.002502,-1.874168 4.018022,-3.976908 4.478933,-4.672756 0.855394,-1.29141 0.973674,-2.221411 0.310338,-2.440095 -0.534702,-0.176277 -8.329577,7.742557 -8.851912,8.992679 -0.414023,0.990897 -0.357714,1.527748 0.160243,1.527748 0.143817,0 1.899896,-1.533409 3.902398,-3.407576 z m 29.906294,-2.678087 c 2.043355,-2.004743 3.624472,-3.735701 3.513597,-3.846575 -0.110872,-0.110874 -1.572325,1.132759 -3.247669,2.76363 -3.573749,3.478881 -4.706066,4.72793 -4.286069,4.72793 0.167726,0 1.976789,-1.640243 4.020141,-3.644985 z M 17.855059,29.45416 c 4.211174,-4.369419 4.813881,-5.218007 4.702016,-6.620262 -0.06209,-0.778333 -0.17333,-0.933505 -0.618092,-0.862209 -0.740963,0.118777 -8.234341,7.56418 -8.705846,8.650109 -0.398838,0.918566 -0.503925,2.301764 -0.198109,2.60758 0.500249,0.500249 1.312702,-0.136093 4.820031,-3.775218 z m 25.27991,1.005069 c 0.721869,-0.578949 2.868421,-2.562346 4.770116,-4.407548 3.004824,-2.915561 3.457627,-3.468136 3.457627,-4.219495 0,-1.965158 -0.707271,-1.5567 -6.353719,3.669349 -2.66086,2.462748 -4.493739,4.361723 -4.493739,4.655787 0,1.64913 0.821828,1.743841 2.619715,0.301907 l 0,0 z m 2.37375,-7.997606 c 3.512835,-3.209003 3.934562,-3.669094 3.946665,-4.305691 0.0183,-0.96231 -0.881342,-0.408354 -3.809713,2.34585 -3.063382,2.881186 -4.316857,4.324491 -4.316857,4.970615 0,0.621241 0.964537,-0.07351 4.179905,-3.010774 l 0,0 z M 16.936485,21.997231 c 2.081045,-1.951692 4.210486,-4.069345 4.732091,-4.705896 0.950313,-1.159732 1.224838,-2.050657 0.631878,-2.050657 -0.716532,0 -9.717403,9.316585 -9.717403,10.05825 0,0.630943 0.837074,-0.0039 4.353434,-3.301697 z m 27.374376,-2.82328 c 0.349749,-0.372294 0.575685,-0.737122 0.502077,-0.810731 -0.07361,-0.07361 -0.483362,0.230995 -0.910562,0.676897 -0.427203,0.445902 -0.653137,0.81073 -0.50208,0.81073 0.151059,0 0.560813,-0.304603 0.910565,-0.676896 l 0,0 z"
     id="path3396"
     inkscape:connector-curvature="0" /><path
     style="fill:#ffffff"
     d=""
     id="path3398"
     inkscape:connector-curvature="0" /><path
     style="fill:#ffffff"
     d="m 14.69133,45.571125 c -0.296724,-0.779421 0.487253,-1.820837 4.13345,-5.490774 2.842865,-2.861375 3.858744,-3.72903 4.092446,-3.495329 0.506243,0.506243 -0.488873,1.78753 -4.45167,5.731866 -2.318158,2.307357 -3.685782,3.486559 -3.774226,3.254237 l 0,0 z"
     id="path3400"
     inkscape:connector-curvature="0" /><path
     style="fill:#ffffff"
     d="m 40.588212,54.645969 c 0.263856,-0.06876 0.629957,-0.06424 0.813559,0.01005 0.183602,0.07428 -0.03228,0.130541 -0.479737,0.125014 -0.447458,-0.0055 -0.597678,-0.0663 -0.333822,-0.135062 z"
     id="path3402"
     inkscape:connector-curvature="0" /><path
     style="fill:#ffffff"
     d="m 39.159322,54.291525 c 0,-0.353855 2.628763,-0.353855 2.847458,0 0.104057,0.168369 -0.403964,0.271187 -1.339928,0.271187 -0.829141,0 -1.50753,-0.122034 -1.50753,-0.271187 z"
     id="path3404"
     inkscape:connector-curvature="0" /><path
     style="fill:#ffffff"
     d=""
     id="path3406"
     inkscape:connector-curvature="0" /><path
     style="fill:#ffffff"
     d="m 42.767778,54.93056 c -0.178064,-0.07244 -0.262685,-0.290831 -0.188055,-0.485323 0.168009,-0.437817 -0.692764,-0.68745 -2.387446,-0.692383 -1.316757,-0.0038 -1.922648,0.405874 -1.271089,0.859512 0.251387,0.175024 -0.02576,0.212241 -0.846612,0.113692 -0.671186,-0.08058 -2.135593,-0.226714 -3.254237,-0.32474 -1.118644,-0.09803 -2.216949,-0.281158 -2.440678,-0.406953 -0.265283,-0.149161 -0.288865,-0.231588 -0.0678,-0.236966 0.518662,-0.01261 0.40306,-0.767997 -0.135593,-0.886012 -0.636292,-0.139406 -2.016792,0.249809 -2.255399,0.635884 -0.143922,0.23287 -0.893753,0.23066 -3.002117,-0.0088 -4.566205,-0.518726 -4.353702,-0.354218 -2.665598,-2.063555 0.797862,-0.807897 1.371167,-1.548394 1.274013,-1.645546 -0.195871,-0.195873 -2.715232,1.827051 -3.280491,2.634074 -0.311266,0.444394 -0.580552,0.489538 -2.021596,0.338918 l -1.662497,-0.173765 1.145826,-0.737375 c 0.630204,-0.405559 2.214143,-1.776876 3.519866,-3.047376 l 2.37404,-2.309999 2.507316,-0.301961 c 5.954515,-0.717117 8.764088,-0.885334 13.398542,-0.802207 2.708819,0.04859 5.027463,-0.0134 5.152543,-0.137709 0.515159,-0.512054 0.198486,-3.560018 -0.536722,-5.165925 -0.866142,-1.891905 -3.518389,-4.615132 -5.596303,-5.746075 -1.1296,-0.614805 -1.384738,-0.878513 -1.280348,-1.323355 0.07171,-0.305561 0.457145,-1.775896 0.856532,-3.267421 0.643338,-2.40255 0.712073,-3.067577 0.602639,-5.830509 -0.139737,-3.527968 -0.601684,-5.036298 -1.869039,-6.102705 -0.966472,-0.813233 -1.611186,-0.841976 -3.518431,-0.156858 -0.796323,0.286054 -2.014552,0.664384 -2.707175,0.840734 -2.596596,0.661122 -4.307928,3.084227 -4.876064,6.904104 -0.284273,1.911315 -0.251767,2.302596 0.431527,5.194364 1.020776,4.320025 0.965182,4.514308 -1.969007,6.881072 -3.347618,2.700241 -5.279127,5.510535 -5.650727,8.221654 -0.15517,1.132092 -0.120795,1.228632 0.467522,1.313006 0.568164,0.08148 0.413734,0.30407 -1.467098,2.114584 -1.156157,1.112933 -2.172192,2.302764 -2.257853,2.644068 -0.317868,1.266487 -1.662061,0.587024 -2.418032,-1.22227 -0.470297,-1.125578 -1.865881,-10.117627 -2.2814,-14.69955 -0.447032,-4.929408 -0.697073,-22.297798 -0.330113,-22.930309 0.273014,-0.47058 0.306818,-0.432486 0.314177,0.354038 0.01047,1.119326 0.436276,1.129108 1.801466,0.04139 1.382682,-1.101661 2.180022,-1.488614 3.482206,-1.689935 l 1.072036,-0.165739 -2.872959,2.907144 c -1.580128,1.598929 -3.008307,3.173698 -3.173731,3.499486 -0.381338,0.75101 -0.386387,1.62782 -0.01071,1.860001 0.159684,0.09869 2.018543,-1.526629 4.135593,-3.616017 2.115043,-2.087406 4.359315,-4.0524 4.987271,-4.366652 1.866928,-0.93428 5.245774,-0.810644 20.642782,0.755344 8.551702,0.86977 8.891609,0.95865 9.708659,2.538647 0.40157,0.776554 0.45667,2.184202 0.48022,12.268632 0.03002,12.855654 0.149347,12.057819 -2.178574,14.566255 -0.651561,0.702086 -1.184656,1.456572 -1.184656,1.67664 0,0.551211 0.900407,0.786677 2.180927,0.570332 0.996833,-0.168412 1.072933,-0.136157 1.068019,0.452673 -0.01611,1.931132 -0.840396,7.638324 -1.205038,8.343463 -0.496386,0.959905 -1.675645,1.646476 -2.827995,1.646476 -0.446064,0 -0.886443,0.122034 -0.978625,0.271186 -0.09218,0.149153 -0.583688,0.271187 -1.092239,0.271187 -0.710484,0 -0.888485,-0.09421 -0.768542,-0.40678 0.08586,-0.223729 0.01717,-0.40678 -0.152616,-0.40678 -0.16979,0 -0.378953,0.183051 -0.464805,0.40678 -0.151252,0.394156 -1.698118,0.540456 -2.455715,0.232255 l 0,0 z M 20.753934,40.40989 c 1.717918,-1.854186 2.450004,-2.848647 2.487644,-3.379204 0.11365,-1.601935 -0.792405,-1.071756 -4.55103,2.663044 -3.841301,3.816952 -4.75352,5.173928 -4.188216,6.23021 0.289962,0.541798 0.389112,0.486053 2.060955,-1.158736 0.965986,-0.950354 2.851777,-2.910245 4.190647,-4.355314 z m -3.289527,-3.323035 c 0,-0.149153 -0.793221,0.514983 -1.762712,1.475857 -0.969492,0.960873 -1.762712,1.869076 -1.762712,2.018229 0,0.149153 0.79322,-0.514983 1.762712,-1.475856 0.969491,-0.960873 1.762712,-1.869078 1.762712,-2.01823 z m 31.204336,0.187721 c 2.269193,-2.352002 2.842929,-3.050847 2.504675,-3.050847 -0.350793,0 -4.963249,4.307064 -4.963249,4.634628 0,0.634671 0.840779,0.09305 2.458574,-1.583781 z M 17.592502,34.883949 c 2.002502,-1.874168 4.018022,-3.976908 4.478933,-4.672756 0.859308,-1.297319 0.973373,-2.221486 0.301529,-2.443031 -0.5092,-0.167913 -8.171535,7.644258 -8.79506,8.967045 -0.466213,0.989054 -0.425317,1.556318 0.1122,1.556318 0.143817,0 1.899896,-1.533409 3.902398,-3.407576 z m 29.766101,-2.532728 c 1.978531,-1.924795 3.500996,-3.597399 3.383257,-3.716898 -0.117741,-0.119499 -1.886679,1.455333 -3.930972,3.499627 -2.044293,2.044294 -3.566758,3.716897 -3.383254,3.716897 0.183501,0 1.952439,-1.574832 3.930969,-3.499626 z M 17.695957,29.590006 c 2.035359,-2.10109 3.974604,-4.267192 4.309433,-4.813559 0.610349,-0.995956 0.818933,-2.595935 0.374251,-2.870763 -0.40573,-0.250755 -2.208909,1.272138 -5.64496,4.767507 -3.294651,3.351529 -3.880444,4.200633 -3.880444,5.624689 0,1.93971 0.740986,1.525292 4.84172,-2.707874 z m 25.720471,0.599365 c 0.865373,-0.727372 3.007301,-2.712182 4.759843,-4.41069 2.750937,-2.666119 3.186441,-3.205932 3.186441,-3.949637 0,-1.948649 -0.677665,-1.55019 -6.485174,3.813201 -2.549139,2.354199 -4.362284,4.232977 -4.362284,4.520194 0,1.734709 0.859897,1.742692 2.901174,0.02693 l 0,1e-6 z m 2.770013,-8.394611 c 3.081036,-2.88842 3.937236,-4.113404 2.875056,-4.113404 -0.432005,0 -5.749866,4.921001 -6.986921,6.465504 -0.410169,0.51211 -0.745762,1.109363 -0.745762,1.32723 0,0.650258 1.246082,-0.293567 4.857627,-3.67933 z m -29.178882,0.134975 c 2.115673,-1.988816 4.243288,-4.133896 4.728034,-4.766845 0.904475,-1.181004 1.12294,-1.922212 0.566556,-1.922212 -0.696948,0 -9.719098,9.327446 -9.719098,10.047977 0,0.648305 0.840274,0.0104 4.424508,-3.35892 z m 27.304305,-2.756854 c 0.350305,-0.372881 0.514883,-0.677966 0.365731,-0.677966 -0.149153,0 -0.557798,0.305085 -0.908103,0.677966 -0.350306,0.372882 -0.514883,0.677966 -0.365731,0.677966 0.149153,0 0.557798,-0.305084 0.908103,-0.677966 z"
     id="path3408"
     inkscape:connector-curvature="0" /><path
     style="fill:#ffffff"
     d="m 42.767778,54.93056 c -0.178064,-0.07244 -0.262685,-0.290831 -0.188055,-0.485323 0.245977,-0.641001 -2.823197,-0.990807 -3.691587,-0.420746 -0.361582,0.237364 -0.361582,0.299314 0,0.557556 0.303604,0.216833 0.09725,0.253359 -0.81356,0.144011 -0.671186,-0.08058 -2.135593,-0.226714 -3.254237,-0.32474 -1.118644,-0.09803 -2.216949,-0.281158 -2.440678,-0.406953 -0.265283,-0.149161 -0.288865,-0.231588 -0.0678,-0.236966 0.186441,-0.0045 0.338983,-0.191297 0.338983,-0.415026 0,-0.564667 -1.84295,-0.540936 -2.475906,0.03188 -0.43021,0.389334 -0.798542,0.403029 -3.27559,0.121787 C 22.388036,52.983832 22.606292,53.150414 24.216226,51.448146 24.977301,50.64342 25.6,49.912393 25.6,49.823642 c 0,-0.340195 -1.189575,0.499395 -2.507729,1.769925 l -1.374424,1.324771 -1.57763,-0.164895 -1.577631,-0.164898 1.145826,-0.742831 c 0.630204,-0.408559 2.212751,-1.779705 3.516771,-3.046986 l 2.370946,-2.304154 2.51041,-0.302352 c 5.855953,-0.705282 8.751959,-0.877789 13.403026,-0.798375 2.709581,0.04627 5.028225,-0.0176 5.152542,-0.141939 0.124315,-0.124334 0.209473,-1.009833 0.189237,-1.967778 -0.06613,-3.130375 -2.266821,-6.337844 -5.943301,-8.662243 -0.887219,-0.560931 -1.658627,-1.057692 -1.714237,-1.103912 -0.05561,-0.04622 0.248857,-1.279215 0.676597,-2.739989 0.672469,-2.296561 0.777882,-3.114649 0.779018,-6.045783 0.0019,-4.689097 -0.801871,-6.845523 -2.774113,-7.443424 -0.912606,-0.276665 -6.332515,1.397748 -7.501965,2.317638 -1.001284,0.78761 -2.275555,3.62282 -2.637142,5.867554 -0.292451,1.815531 -0.260552,2.197029 0.427015,5.106881 0.991041,4.194183 0.904161,4.588094 -1.422577,6.449954 -3.644725,2.916516 -5.823621,5.975011 -6.196925,8.698566 -0.150924,1.101107 -0.114405,1.200627 0.471409,1.284643 0.568164,0.08148 0.413734,0.30407 -1.467098,2.114584 -1.156157,1.112933 -2.172192,2.302764 -2.257853,2.644068 -0.317868,1.266487 -1.662061,0.587024 -2.418032,-1.22227 -0.470297,-1.125578 -1.865881,-10.117627 -2.2814,-14.69955 -0.447032,-4.929408 -0.697073,-22.297798 -0.330113,-22.930309 0.282366,-0.4867 0.306566,-0.471106 0.314177,0.20244 0.0045,0.401367 0.124129,0.801378 0.265762,0.888912 0.141634,0.08753 1.064602,-0.393399 2.05104,-1.068741 0.986438,-0.675342 1.99937,-1.229561 2.250959,-1.231598 0.251589,-0.002 0.76252,-0.07831 1.135401,-0.169492 0.506493,-0.123858 -0.01548,0.545824 -2.063754,2.64777 -1.507946,1.547459 -2.941844,3.11529 -3.18644,3.484071 -0.50185,0.756644 -0.58497,1.787073 -0.165088,2.046575 0.153798,0.09505 2.014815,-1.530917 4.135593,-3.613266 2.120778,-2.082349 4.369743,-4.044443 4.997699,-4.360208 1.865308,-0.937964 5.445014,-0.80644 20.780303,0.763498 8.405001,0.860455 8.757025,0.953425 9.571138,2.527742 0.40157,0.776554 0.45667,2.184202 0.48022,12.268632 0.03002,12.855654 0.149347,12.057819 -2.178574,14.566255 -0.651561,0.702086 -1.184656,1.456572 -1.184656,1.67664 0,0.551211 0.900407,0.786677 2.180927,0.570332 0.996396,-0.168339 1.073115,-0.135899 1.070601,0.452673 -0.0082,1.913041 -0.829934,7.613101 -1.201009,8.330679 -0.502384,0.971501 -1.677318,1.65926 -2.834606,1.65926 -0.446064,0 -0.886443,0.122034 -0.978625,0.271186 -0.09218,0.149153 -0.583688,0.271187 -1.092239,0.271187 -0.710484,0 -0.888485,-0.09421 -0.768542,-0.40678 0.08586,-0.223729 0.01717,-0.40678 -0.152616,-0.40678 -0.16979,0 -0.378953,0.183051 -0.464805,0.40678 -0.151252,0.394156 -1.698118,0.540456 -2.455715,0.232255 l 0,0 z M 19.003663,42.223338 c 3.736121,-3.919211 4.593996,-5.120873 4.158675,-5.825237 -0.321427,-0.52008 -1.188938,0.09403 -4.108148,2.908158 -3.162616,3.04877 -4.572834,4.897068 -4.572834,5.993367 0,0.560623 0.133533,0.856306 0.386714,0.856306 0.212692,0 2.073709,-1.769668 4.135593,-3.932594 z m -3.030782,-3.38944 c 0.885578,-0.894915 1.488107,-1.627118 1.338954,-1.627118 -0.149152,0 -0.995749,0.732203 -1.881327,1.627118 -0.885577,0.894916 -1.488106,1.627119 -1.338954,1.627119 0.149153,0 0.99575,-0.732203 1.881327,-1.627119 z m 32.455881,-1.288135 c 1.695845,-1.616405 2.811799,-2.992208 2.599374,-3.204634 -0.163244,-0.163242 -4.817967,4.200935 -4.817967,4.517228 0,0.5592 0.671805,0.161738 2.218593,-1.312594 z M 17.27729,35.105085 c 3.905742,-3.702928 4.939147,-4.844879 5.34111,-5.902122 0.318968,-0.838948 0.191183,-1.487709 -0.293029,-1.487709 -0.417944,0 -3.88608,3.367235 -6.660276,6.466502 -1.741583,1.945655 -2.268485,2.717266 -2.268485,3.322034 0,0.433254 0.116936,0.787735 0.259857,0.787735 0.142922,0 1.772292,-1.433898 3.620823,-3.18644 l 0,0 z m 31.712541,-4.351954 c 1.726313,-1.792221 2.050519,-2.224317 1.668938,-2.224317 -0.271707,0 -7.160464,6.85459 -7.160464,7.124951 0,0.334895 3.194259,-2.515661 5.491526,-4.900634 z M 17.390859,29.816949 c 4.070874,-4.026916 5.22609,-5.55081 5.22609,-6.893951 0,-1.616275 -0.843194,-1.15394 -4.659676,2.554968 -3.851303,3.742748 -5.103036,5.39105 -5.103036,6.71976 0,1.933616 0.373036,1.73785 4.536622,-2.380777 z m 25.487839,0.817038 c 2.84326,-2.431867 7.769389,-7.204782 8.104101,-7.852045 0.871566,-1.685419 0.176271,-2.489777 -1.245476,-1.440845 -1.394218,1.028621 -8.909347,8.044256 -9.072542,8.469533 -0.261812,0.682273 0.14787,1.701234 0.683995,1.701234 0.276946,0 0.965412,-0.395044 1.529922,-0.877877 z M 17.300453,21.618643 c 3.859655,-3.625087 5.316496,-5.288677 5.316496,-6.070991 0,-0.168836 -0.127511,-0.306974 -0.283357,-0.306974 -0.658159,0 -9.750541,9.354459 -9.750541,10.031588 0,0.650185 0.770357,0.05354 4.717402,-3.653623 z m 28.04003,0.951068 c 1.798392,-1.636828 3.461982,-3.250422 3.696865,-3.585764 0.545819,-0.77927 0.544865,-1.302591 -0.0024,-1.302591 -0.507582,0 -7.708553,7.031198 -7.707132,7.525424 0.0022,0.780933 0.919772,0.177942 4.012643,-2.637069 z m -1.023179,-3.403383 c 0.524033,-0.631422 0.150116,-0.750415 -0.410714,-0.130703 -0.270791,0.29922 -0.366341,0.544036 -0.212334,0.544036 0.154007,0 0.434379,-0.186 0.623048,-0.413333 z"
     id="path3410"
     inkscape:connector-curvature="0" /><path
     style="fill:none"
     d=""
     id="path3412"
     inkscape:connector-curvature="0" /><path
     style="fill:none"
     d="M 42.750853,54.924919 C 42.563482,54.84938 42.4793,54.675734 42.56378,54.539043 c 0.384996,-0.622932 -2.825838,-1.072415 -3.675644,-0.514552 -0.361582,0.237364 -0.361582,0.298923 0,0.554039 0.299549,0.211347 0.04934,0.24953 -0.949153,0.144846 -0.745763,-0.07819 -2.149152,-0.216119 -3.118644,-0.306516 -2.256972,-0.210449 -2.897443,-0.385411 -2.441766,-0.667035 0.187968,-0.116171 0.257907,-0.346896 0.15542,-0.512727 -0.272901,-0.441562 -1.566213,-0.367734 -2.276785,0.129969 -0.541481,0.379268 -0.967133,0.393351 -3.517967,0.11638 -4.259919,-0.462544 -4.138545,-0.37299 -2.60949,-1.925386 0.716076,-0.72701 1.224477,-1.399314 1.129779,-1.494012 -0.193084,-0.193082 -2.487872,1.609828 -3.024879,2.376512 -0.297175,0.42428 -0.585577,0.470587 -2.006067,0.322116 l -1.658995,-0.1734 1.142324,-0.764773 c 0.628278,-0.420623 2.222666,-1.80711 3.543083,-3.081079 1.320417,-1.273969 2.540756,-2.318723 2.711864,-2.321676 0.171109,-0.003 1.83653,-0.198454 3.700937,-0.434449 1.864406,-0.235994 6.433151,-0.508154 10.152764,-0.6048 l 6.762937,-0.17572 0.231854,-0.896738 c 0.301236,-1.165077 -0.377703,-3.879398 -1.331873,-5.324683 -0.987032,-1.495063 -3.212773,-3.569844 -4.916672,-4.583202 -1.122438,-0.667546 -1.412822,-0.975996 -1.316846,-1.398767 0.06772,-0.298305 0.399926,-1.518644 0.738234,-2.711865 0.813752,-2.870106 0.903987,-8.221849 0.17424,-10.33393 -0.871658,-2.522814 -2.075547,-3.128482 -4.602232,-2.315351 -0.928959,0.298954 -2.072466,0.619911 -2.541127,0.713236 -0.468661,0.09333 -1.401382,0.51802 -2.072713,0.943766 -1.515338,0.960999 -2.752698,3.326211 -3.196927,6.110923 -0.274837,1.72286 -0.235686,2.196522 0.423619,5.124986 0.972186,4.318195 0.902399,4.607309 -1.607079,6.657878 -1.097673,0.896941 -2.513309,2.212727 -3.14586,2.923968 -1.320978,1.485312 -2.687993,4.197719 -2.895572,5.745342 -0.126028,0.93961 -0.07361,1.071276 0.458573,1.15181 0.524357,0.07935 0.321321,0.373099 -1.594515,2.306891 -1.20746,1.218777 -2.195382,2.408608 -2.195382,2.644068 0,0.570462 -0.925542,0.548572 -1.509826,-0.03571 C 15.428292,51.674297 15.054232,51.069863 14.85215,50.586213 14.41618,49.542788 12.992932,40.276849 12.588799,35.850847 12.14145,30.951548 11.892596,13.554873 12.260784,12.920258 c 0.282127,-0.486279 0.306412,-0.470601 0.31402,0.20272 0.0045,0.401367 0.111861,0.793796 0.238502,0.872064 0.12664,0.07827 1.059988,-0.402666 2.074107,-1.068741 1.014118,-0.666076 2.039317,-1.212713 2.278219,-1.21475 0.238903,-0.002 0.739453,-0.08159 1.112334,-0.176776 0.498616,-0.127288 -0.093,0.621677 -2.236405,2.831185 -2.706701,2.790182 -3.45851,3.838945 -3.45851,4.824576 0,0.941244 1.110952,0.153816 4.571113,-3.239941 2.03504,-1.995986 4.213856,-3.887511 4.841812,-4.203389 1.863965,-0.937623 5.42074,-0.807401 20.805206,0.761726 6.450723,0.657936 7.969164,0.89182 8.542373,1.315771 1.443998,1.067997 1.455165,1.169377 1.483976,13.470833 0.03014,12.868478 0.149616,12.068979 -2.178468,14.577592 -0.651561,0.702086 -1.184656,1.456572 -1.184656,1.67664 0,0.551211 0.900407,0.786677 2.180927,0.570332 0.996396,-0.168339 1.073115,-0.135899 1.070601,0.452673 -0.0082,1.913041 -0.829934,7.613101 -1.201009,8.330679 -0.502384,0.971501 -1.677318,1.65926 -2.834606,1.65926 -0.446064,0 -0.886443,0.122034 -0.978625,0.271186 -0.09218,0.149153 -0.600575,0.271187 -1.129766,0.271187 -0.74384,0 -0.926741,-0.0923 -0.806063,-0.40678 0.08585,-0.223729 0.03406,-0.40678 -0.115092,-0.40678 -0.149152,0 -0.341429,0.183051 -0.427281,0.40678 -0.152618,0.397717 -1.697134,0.539268 -2.47264,0.226614 l 0,0 z M 17.350206,43.918644 c 4.815885,-4.944914 5.809116,-6.139732 5.809116,-6.988134 0,-0.444662 -0.123074,-0.808476 -0.273497,-0.808476 -0.765148,0 -7.256399,6.456453 -8.093356,8.049969 -0.416103,0.792236 -0.395766,1.983929 0.03386,1.983929 0.189734,0 1.32548,-1.006779 2.52388,-2.237288 l 0,0 z M 17.19322,37.3609 c 0,-0.149152 -0.671186,0.391663 -1.491525,1.201812 -0.820339,0.810148 -1.491526,1.595032 -1.491526,1.744184 0,0.149153 0.671187,-0.391663 1.491526,-1.201811 0.820339,-0.810148 1.491525,-1.595032 1.491525,-1.744185 z m 30.875908,0.50772 c 1.536887,-1.381793 3.201343,-3.373705 2.819094,-3.373705 -0.33572,0 -4.678053,4.049408 -4.678053,4.362479 0,0.494923 0.511095,0.223075 1.858959,-0.988774 l 0,0 z M 18.002135,34.337019 c 2.217495,-2.174979 4.233781,-4.38013 4.480635,-4.900337 0.470208,-0.990888 0.389115,-1.721428 -0.191084,-1.721428 -0.415566,0 -6.938798,6.601153 -8.079947,8.176463 -0.803633,1.109383 -1.087695,2.399808 -0.528271,2.399808 0.157772,0 2.101172,-1.779527 4.318667,-3.954506 z m 29.787329,-2.413878 c 2.0631,-1.976596 3.684,-3.924377 2.6135,-3.14055 -0.981193,0.718435 -6.633472,6.378367 -6.633472,6.642454 0,0.277466 0.828713,-0.444449 4.019972,-3.501904 z M 17.808068,29.365336 c 3.901869,-3.943022 4.808881,-5.198861 4.808881,-6.658321 0,-0.498822 -0.143935,-0.686676 -0.526137,-0.686676 -0.579228,0 -6.248388,5.301932 -7.914019,7.401377 -1.368911,1.725445 -1.777451,3.986329 -0.720897,3.989495 0.191121,5.73e-4 2.149599,-1.820071 4.352172,-4.045875 z m 24.469898,1.640956 c 1.269489,-0.785737 7.940117,-7.06233 8.543808,-8.039123 0.730505,-1.181983 0.713781,-2.031576 -0.03999,-2.031576 -0.64499,0 -1.883376,1.008452 -6.433657,5.239102 -3.75815,3.494161 -3.999051,3.807578 -3.599929,4.683555 0.357581,0.784802 0.481591,0.796804 1.529773,0.148042 l 0,0 z M 17.126808,21.74899 c 3.840329,-3.59075 5.490141,-5.449042 5.490141,-6.183906 0,-0.178423 -0.121666,-0.324406 -0.270369,-0.324406 -0.640096,0 -9.763529,9.368491 -9.763529,10.02578 0,0.624926 0.659315,0.11453 4.543757,-3.517468 z m 28.263142,0.738784 c 3.261432,-2.947025 4.408241,-4.291842 4.00435,-4.695734 -0.105191,-0.105191 -0.671916,0.141842 -1.259387,0.548961 -1.279309,0.886561 -6.806099,6.501381 -6.806099,6.914505 0,0.703555 0.893136,0.09487 4.061136,-2.767732 z m -1.072646,-3.321446 c 0.524033,-0.631422 0.150116,-0.750415 -0.410714,-0.130703 -0.270791,0.29922 -0.366341,0.544036 -0.212334,0.544036 0.154007,0 0.434379,-0.186 0.623048,-0.413333 z"
     id="path3414"
     inkscape:connector-curvature="0" /><path
     style="fill:none"
     d="m 23.489737,45.190624 c -0.671787,-0.470539 -0.605347,-1.481926 0.154818,-2.356726 0.226813,-0.261017 0.324874,-0.474576 0.217913,-0.474576 -0.393084,0 1.58284,-2.454006 2.807174,-3.48638 0.694271,-0.585418 2.141012,-1.632825 3.214979,-2.327571 1.073967,-0.694745 1.952667,-1.385356 1.952667,-1.534689 0,-0.149333 -0.192651,-0.644061 -0.428114,-1.099396 -1.85236,-3.582068 -2.091271,-9.064826 -0.529221,-12.145048 0.878973,-1.733256 1.547464,-2.240765 3.334584,-2.531571 2.912597,-0.473949 3.129946,-0.437319 3.656228,0.61618 1.009765,2.021324 0.369428,8.860743 -1.32049,14.10412 -0.09309,0.288825 0.401586,0.67227 1.681545,1.303447 0.997387,0.491834 2.526189,1.5741 3.397339,2.405035 2.321733,2.214559 3.621407,5.187583 2.614909,5.981643 -0.186441,0.14709 -2.535593,0.346448 -5.220339,0.443019 -5.05217,0.181728 -8.134029,0.473152 -12.035523,1.138089 -2.809264,0.478787 -2.763445,0.479254 -3.498469,-0.03558 z"
     id="path3416"
     inkscape:connector-curvature="0" /></svg>