<?xml version="1.0" encoding="UTF-8" standalone="no"?>
<!-- Generator: Adobe Illustrator 17.0.2, SVG Export Plug-In . SVG Version: 6.00 Build 0)  -->

<svg
   xmlns:dc="http://purl.org/dc/elements/1.1/"
   xmlns:cc="http://creativecommons.org/ns#"
   xmlns:rdf="http://www.w3.org/1999/02/22-rdf-syntax-ns#"
   xmlns:svg="http://www.w3.org/2000/svg"
   xmlns="http://www.w3.org/2000/svg"
   xmlns:sodipodi="http://sodipodi.sourceforge.net/DTD/sodipodi-0.dtd"
   xmlns:inkscape="http://www.inkscape.org/namespaces/inkscape"
   version="1.1"
   id="Capa_1"
   x="0px"
   y="0px"
   width="64px"
   height="64px"
   viewBox="0 0 64 64"
   style="enable-background:new 0 0 64 64;"
   xml:space="preserve"
   inkscape:version="0.48.5 r10040"
   sodipodi:docname="edges.svg"><metadata
     id="metadata3048"><rdf:RDF><cc:Work
         rdf:about=""><dc:format>image/svg+xml</dc:format><dc:type
           rdf:resource="http://purl.org/dc/dcmitype/StillImage" /></cc:Work></rdf:RDF></metadata><defs
     id="defs3046" /><sodipodi:namedview
     pagecolor="#ffffff"
     bordercolor="#666666"
     borderopacity="1"
     objecttolerance="10"
     gridtolerance="10"
     guidetolerance="10"
     inkscape:pageopacity="0"
     inkscape:pageshadow="2"
     inkscape:window-width="640"
     inkscape:window-height="480"
     id="namedview3044"
     showgrid="false"
     inkscape:zoom="3.75"
     inkscape:cx="32"
     inkscape:cy="32"
     inkscape:window-x="222"
     inkscape:window-y="102"
     inkscape:window-maximized="0"
     inkscape:current-layer="Capa_1" /><g
     id="g3040"><path
       style="fill:#010202;"
       d="M60.242,41.488c-1.966-2.36-3.931-4.72-5.896-7.081c-5.187-6.228-10.373-12.455-15.56-18.683   c-2.094-2.514-4.722-7.84-8.497-5.681c-0.058,0.024-0.112,0.052-0.162,0.084c-0.006,0.003-0.011,0.005-0.017,0.008   c-0.009,0.006-0.015,0.011-0.023,0.017c-0.018,0.012-0.036,0.024-0.052,0.038c-0.157,0.112-0.252,0.22-0.285,0.319   C21.874,19.968,13.997,29.427,6.12,38.886c-1.107,1.33-7.251,6.706-4.132,8.644c2.423,1.506,7.903,0.377,10.514,0.377   c14.495,0,28.989,0,43.484,0c2.294,0,7.71,0.718,6.838-3.214C62.634,43.831,60.843,42.209,60.242,41.488z M49.003,30.947   c0.214,0.256,0.427,0.512,0.64,0.768c-0.091,0.068-0.173,0.163-0.238,0.291c-0.94,1.837-1.901,3.664-2.891,5.475   c-0.265,0.485-0.328,0.457-0.133-0.06c0.765-2.022,1.59-4.017,2.424-6.004C48.877,31.245,48.942,31.089,49.003,30.947z    M41.719,22.61c0.046-0.09,0.069-0.196,0.088-0.304c0.074,0.089,0.148,0.179,0.224,0.268c-0.104,0.116-0.209,0.233-0.31,0.352   C41.499,23.187,41.498,23.044,41.719,22.61z M38.926,18.543c0.107,0.14,0.212,0.277,0.314,0.413   c-0.167,0.05-0.328,0.156-0.45,0.352c-0.295,0.473-0.59,0.946-0.884,1.419c-0.291,0.469-0.293,0.468-0.01-0.006   c0.291-0.487,0.58-0.975,0.865-1.465C38.882,19.05,38.927,18.796,38.926,18.543z M35.03,13.727c0.48,0.543,0.976,1.131,1.47,1.734   c-0.228,0.006-0.464,0.122-0.646,0.361c-1.334,1.75-2.654,3.512-3.954,5.288c-0.326,0.446-0.385,0.411-0.134-0.081   c1.086-2.13,2.141-4.276,3.153-6.441C35.035,14.34,35.069,14.029,35.03,13.727z M4.048,46.602c-2.846,0,1.009-4.038,1.157-4.215   c2.09-2.51,4.18-5.02,6.271-7.529c1.666-2,3.331-4.001,4.997-6.001c-3.373,5.909-6.76,11.81-10.086,17.745   C5.606,46.602,4.827,46.602,4.048,46.602z M10.005,46.602c7.167-11.639,13.187-24.067,21.06-35.174   c0.083-0.116,0.144-0.223,0.187-0.317c0.06-0.073,0.121-0.145,0.182-0.218c0.468-0.18,1.392,0.522,2.502,1.654   c-0.154,0.053-0.297,0.168-0.392,0.38c-3.971,8.778-8.657,17.214-13.466,25.593c-1.674,2.664-3.291,5.363-4.873,8.081   C13.471,46.602,11.738,46.602,10.005,46.602z M17.526,46.602c1.559-2.713,3.123-5.424,4.682-8.138   c4.599-7.32,9.538-14.427,14.747-21.322c0.175-0.232,0.259-0.52,0.262-0.794c0.274,0.345,0.546,0.69,0.812,1.03   c-0.19,0.032-0.371,0.159-0.499,0.389c-4.111,7.384-9.044,14.335-13.372,21.589c-1.433,2.401-2.842,4.819-4.239,7.246   C19.121,46.602,18.324,46.602,17.526,46.602z M22.01,46.602c2.073-3.604,4.178-7.187,6.348-10.721   c2.476-4.034,5.091-7.984,7.597-11.994c0.292-0.468,0.294-0.469,0.005,0.002c-4.646,7.565-9.262,15.149-13.912,22.713   C22.034,46.602,22.022,46.602,22.01,46.602z M26.621,46.602c-0.825,0-1.649,0-2.474,0c5.294-8.61,10.54-17.25,15.842-25.856   c0.102-0.167,0.15-0.365,0.174-0.566c0.175,0.233,0.336,0.449,0.482,0.644c-0.112,0.067-0.216,0.162-0.293,0.314   c-3.24,6.358-6.527,12.692-9.979,18.928c-1.025,1.83-2.049,3.651-3.105,5.426C27.049,45.86,26.835,46.231,26.621,46.602z    M29.122,46.602c3.071-4.657,6.138-9.316,9.223-13.965c0.305-0.46,0.376-0.422,0.151,0.082c-0.471,1.052-0.965,2.092-1.483,3.119   c-2.145,3.629-4.345,7.224-6.629,10.764C29.963,46.602,29.542,46.602,29.122,46.602z M32.726,46.602   c2.432-3.618,4.7-7.328,6.645-11.202c1.776-3.012,3.528-6.041,5.284-9.068c0.074-0.129,0.12-0.277,0.146-0.432   c0.95,1.141,1.9,2.281,2.85,3.422c-0.093,0.067-0.178,0.161-0.245,0.29c-0.598,1.137-1.202,2.27-1.814,3.399   c-2.698,4.504-5.347,9.038-7.961,13.591C35.995,46.602,34.36,46.602,32.726,46.602z M42.017,43.602c-0.352,1.002-0.707,2-1.064,3   c-0.26,0-0.52,0-0.78,0c0.134-0.248,0.267-0.497,0.402-0.744c0.427-0.775,0.855-1.551,1.285-2.326   C42.128,43.05,42.199,43.081,42.017,43.602z M43.298,46.602c0.042-0.067,0.083-0.135,0.125-0.201   c2.637-4.137,5.057-8.414,7.33-12.772c0.066-0.128,0.108-0.273,0.13-0.426c0.135,0.163,0.271,0.325,0.405,0.487   c-0.09,0.068-0.172,0.164-0.236,0.292c-2.108,4.184-4.165,8.396-6.199,12.62C44.334,46.602,43.816,46.602,43.298,46.602z    M46.981,46.602c1.776-3.689,3.568-7.369,5.398-11.029c0.063-0.128,0.103-0.273,0.124-0.424c0.702,0.844,1.405,1.687,2.108,2.53   c-0.026,0.032-0.061,0.051-0.081,0.094c-0.106,0.223-0.211,0.446-0.316,0.669c-1.267,2.694-2.462,5.421-3.632,8.16   C49.381,46.602,48.182,46.602,46.981,46.602z M59.184,43.711c-0.422,0.964-0.848,1.928-1.274,2.891c-1.478,0-2.956,0-4.435,0   c1.046-1.964,2.105-3.921,3.181-5.87c0.071-0.129,0.114-0.276,0.139-0.43c0.864,1.037,1.728,2.074,2.592,3.111   C59.308,43.487,59.238,43.586,59.184,43.711z M60.115,46.482c0.161-0.362,0.321-0.723,0.482-1.085   c0.026-0.061,0.047-0.117,0.071-0.175C60.975,45.917,60.771,46.308,60.115,46.482z"
       id="path3042" /></g><path
     style="fill:#ffffff"
     d="M 2.4295256,47.52 C 0.41694581,46.510101 1.043122,44.818123 5.1641549,40.130813 6.7385363,38.340093 13.006667,30.876996 19.093333,23.546151 27.722989,13.152505 30.351053,10.150621 31.027589,9.9143529 c 1.873158,-0.6541659 3.363803,0.3227451 6.303376,4.1309841 1.997651,2.587975 20.86387,25.336511 23.228086,28.007996 2.04841,2.314635 2.352352,2.873808 2.12492,3.909296 -0.13687,0.623163 -0.434784,0.923587 -1.284419,1.295248 -1.041536,0.455606 -2.7746,0.48911 -29.639552,0.573011 C 6.8080096,47.908816 3.126614,47.869795 2.4295256,47.52 z M 11.540532,37.845216 C 14.267865,33.037417 16.446015,29.05046 16.380866,28.98531 16.197219,28.801663 4.1109533,43.395277 3.367008,44.698947 c -0.5711371,1.000848 -0.6101917,1.215576 -0.2910323,1.600138 0.2834882,0.341582 0.7309056,0.426086 1.9371976,0.365875 l 1.568571,-0.07829 4.9587877,-8.741451 z M 17.848743,42.52 C 22.057297,35.507734 27.495117,25.607639 30.84812,18.853333 l 3.177115,-6.4 -0.947011,-0.883447 c -0.520859,-0.485896 -1.141733,-0.845896 -1.379723,-0.8 -0.898544,0.173283 -6.688992,9.401578 -14.27494,22.750114 -1.833708,3.226667 -4.248163,7.408827 -5.365455,9.293688 -1.117292,1.884861 -2.031439,3.534861 -2.031439,3.666667 0,0.131805 1.192806,0.239645 2.65068,0.239645 l 2.65068,0 2.520716,-4.2 z m 2.847224,3.066667 c 1.592056,-2.84516 5.579741,-9.382035 9.0691,-14.866667 6.13501,-9.64311 8.328602,-13.412925 8.059538,-13.850795 C 37.524525,16.38086 36.96,16.183794 36.96,16.567387 c 0,0.160507 -0.821688,1.404388 -1.825973,2.764181 -5.968075,8.080717 -11.751598,16.753373 -15.236752,22.848205 -1.322168,2.312206 -2.403942,4.279659 -2.403942,4.372118 0,0.09246 0.577904,0.168109 1.284229,0.168109 1.233602,0 1.30923,-0.04468 1.918405,-1.133333 z m 8.402406,-10.2 c 3.77127,-6.16 6.92147,-11.308541 7.000443,-11.441202 0.07897,-0.132662 0.01387,-0.161024 -0.144704,-0.06303 -0.69216,0.427779 -13.927445,21.948463 -13.927445,22.646143 0,0.15417 0.04834,0.230309 0.107427,0.1692 0.05908,-0.06111 3.193011,-5.151112 6.964279,-11.311112 z m -0.334752,7.8 c 5.305472,-9.380956 12.005235,-22.285223 11.820374,-22.766964 -0.16192,-0.421956 -0.690662,-0.497751 -0.690662,-0.09901 0,0.14705 -3.472896,5.93872 -7.717544,12.870379 -4.24465,6.931658 -7.797489,12.811346 -7.895198,13.06597 C 24.126563,46.65844 24.279954,46.72 25.434128,46.72 l 1.331189,0 1.998304,-3.533333 z m 5.216704,-2.133334 C 37.316675,35.605296 39.04488,32.32 38.574429,32.32 c -0.167762,0 -8.304949,12.111773 -9.450562,14.066667 -0.138094,0.235645 0.03641,0.333333 0.59544,0.333333 0.742917,0 1.000821,-0.342981 4.261018,-5.666667 z m 8.147187,-1.818146 c 2.364536,-4.043315 4.585723,-7.964894 4.935973,-8.714622 l 0.636819,-1.363142 -1.303485,-1.602407 c -0.716918,-0.881324 -1.407822,-1.574966 -1.535342,-1.541427 -0.257693,0.06778 -2.733586,4.230238 -6.368333,10.706411 -1.317061,2.346667 -3.160819,5.476237 -4.097235,6.954603 -0.936416,1.478368 -1.702576,2.772712 -1.702576,2.876325 0,0.103611 1.155382,0.15404 2.567512,0.112061 l 2.567512,-0.07632 4.299155,-7.35148 z m -0.51524,5.95148 c 0.265651,-0.843334 0.547957,-1.703019 0.627349,-1.910411 0.38375,-1.002475 -0.576669,0.184536 -1.285589,1.588899 C 40.019653,46.716149 40.019011,46.72 40.644635,46.72 c 0.35621,0 0.612624,-0.406317 0.967637,-1.533333 z m 6.582549,-5.038584 c 2.003398,-4.121284 3.100808,-6.665787 2.942947,-6.823647 -0.157859,-0.15786 -0.977693,1.074651 -2.198563,3.305252 -1.07076,1.956339 -2.777277,4.936979 -3.792258,6.623645 C 44.131965,44.94 43.2476,46.41 43.181691,46.52 c -0.06591,0.11 0.316282,0.2 0.849312,0.2 l 0.969144,0 3.194674,-6.571917 z m 4.542411,2.03148 2.029707,-4.540438 -1.040843,-1.259562 c -0.572461,-0.69276 -1.118779,-1.199563 -1.214035,-1.12623 -0.179514,0.1382 -5.685394,11.12247 -5.685394,11.3424 0,0.06835 0.873192,0.124267 1.940429,0.124267 l 1.940429,0 2.029707,-4.540437 z m 6.044803,2.87377 0.757138,-1.666666 -1.22292,-1.518187 c -0.672605,-0.835003 -1.304282,-1.525003 -1.403722,-1.533333 -0.208091,-0.01743 -3.419198,5.735965 -3.419198,6.126234 0,0.146755 0.980043,0.258619 2.265782,0.258619 l 2.265781,0 0.757139,-1.666667 0,0 z m 2.129845,0.663942 c 0.115747,-0.81128 -0.327496,-0.755536 -0.712576,0.08962 -0.274947,0.603448 -0.255851,0.676008 0.157197,0.597278 0.258592,-0.04929 0.508512,-0.358392 0.555379,-0.686896 l 0,0 z M 48.122848,34.755041 c 1.490469,-2.783911 1.591555,-3.076651 1.237128,-3.582666 -0.43964,-0.627675 -0.238333,-0.977954 -2.106941,3.666112 -0.822963,2.045316 -1.214843,3.445073 -0.856491,3.059292 0.05677,-0.06111 0.833603,-1.475344 1.726304,-3.142738 l 0,0 z m -6.096181,-12.19985 c 0,-0.22 -0.12,-0.325836 -0.266667,-0.235191 -0.146667,0.09064 -0.266667,0.344809 -0.266667,0.564809 0,0.22 0.12,0.325836 0.266667,0.235191 0.146667,-0.09065 0.266667,-0.344809 0.266667,-0.564809 z m -8.094112,-3.901858 c 1.13229,-1.503333 2.216922,-2.829434 2.410293,-2.946891 0.271464,-0.164892 0.184341,-0.423163 -0.382299,-1.133326 -0.794573,-0.995828 -1.133882,-1.150144 -1.133882,-0.515682 0,0.222255 -0.72,1.84041 -1.6,3.595899 -2.358104,4.70412 -2.225496,4.891977 0.705888,1 z m 5.251357,0.563148 c 0.134429,-0.0936 0.155021,-0.314829 0.04576,-0.491615 -0.129782,-0.20999 -0.418987,0.06647 -0.834166,0.797405 -0.797485,1.403998 -0.831301,2.057628 -0.04127,0.797729 0.321891,-0.513333 0.695243,-1.009917 0.829672,-1.103519 l 0,0 z"
     id="path3050"
     inkscape:connector-curvature="0" /></svg>