<?xml version="1.0" encoding="UTF-8" standalone="no"?>
<!-- Generator: Adobe Illustrator 15.0.0, SVG Export Plug-In . SVG Version: 6.00 Build 0)  -->

<svg
   xmlns:dc="http://purl.org/dc/elements/1.1/"
   xmlns:cc="http://creativecommons.org/ns#"
   xmlns:rdf="http://www.w3.org/1999/02/22-rdf-syntax-ns#"
   xmlns:svg="http://www.w3.org/2000/svg"
   xmlns="http://www.w3.org/2000/svg"
   xmlns:sodipodi="http://sodipodi.sourceforge.net/DTD/sodipodi-0.dtd"
   xmlns:inkscape="http://www.inkscape.org/namespaces/inkscape"
   version="1.1"
   id="EDYTUJ"
   x="0px"
   y="0px"
   width="113.39px"
   height="113.39px"
   viewBox="0 0 113.39 113.39"
   enable-background="new 0 0 113.39 113.39"
   xml:space="preserve"
   inkscape:version="0.48.5 r10040"
   sodipodi:docname="edycja.svg"><metadata
     id="metadata4481"><rdf:RDF><cc:Work
         rdf:about=""><dc:format>image/svg+xml</dc:format><dc:type
           rdf:resource="http://purl.org/dc/dcmitype/StillImage" /></cc:Work></rdf:RDF></metadata><defs
     id="defs4479" /><sodipodi:namedview
     pagecolor="#ffffff"
     bordercolor="#666666"
     borderopacity="1"
     objecttolerance="10"
     gridtolerance="10"
     guidetolerance="10"
     inkscape:pageopacity="0"
     inkscape:pageshadow="2"
     inkscape:window-width="640"
     inkscape:window-height="480"
     id="namedview4477"
     showgrid="false"
     inkscape:zoom="2.0813123"
     inkscape:cx="56.695"
     inkscape:cy="56.695"
     inkscape:window-x="0"
     inkscape:window-y="0"
     inkscape:window-maximized="0"
     inkscape:current-layer="EDYTUJ" /><g
     id="RACZKA"><g
       id="g4435"><g
         id="g4437"><path
           fill="#010101"
           d="M72.506,42.28c-2.255-1.84-5.246-2.871-8.14-2.89c-0.176-0.001-0.313,0.202-0.364,0.343     c-0.822,2.258-3.525,7.559,0.657,8.086c1.679,0.212,3.07,0.927,4.444,1.845c0.809,0.54,1.657-0.536,1.998-1.117     c0.756-1.296,1.121-2.903,1.632-4.31c0.218-0.595-0.305-2.821-0.729-1.657c-0.479,1.313-0.867,2.712-1.455,3.979     c-0.753,1.623-2.05,0.157-3.136-0.315c-0.389-0.17-4.032-0.998-4.018-1.165c0.035-0.378-0.066,0.158,0.038-0.13     c0.165-0.451,0.329-0.902,0.493-1.353c0.197-0.542,0.395-1.084,0.591-1.626c0.287-0.79,0.203-0.25,1.038-0.195     c2.349,0.154,4.852,1.275,6.676,2.763C72.745,44.957,73.084,42.75,72.506,42.28z"
           id="path4439" /></g></g><g
       id="g4441"><path
         fill="#010101"
         d="M83.362,0.485c-2.479-0.902-3.955-0.322-3.955-0.322L65.38,38.913c5.237,0.83,7.271,2.532,7.271,2.532    l14.03-38.546C86.68,2.898,85.926,1.417,83.362,0.485z M67.193,37.478L80.138,1.171c1.015-0.33,1.91,0.113,1.91,0.113    S67.523,38.189,67.193,37.478z"
         id="path4443" /></g></g><g
     id="KIJ"><g
       id="g4446"><g
         id="g4448"><path
           fill="#010101"
           d="M62.698,48.666c-1.103,2.663-2.203,5.324-3.306,7.987c-0.925,2.236-1.649,4.132,0.083,6.289     c0.979,1.219,3.161,2.176,4.444,3.021c2.61,1.722,5.214,3.458,7.817,5.192c6.286,4.188,12.563,8.389,18.84,12.592     c1.942,1.302,3.885,2.604,5.826,3.905c0.966,0.647,0.382,0.531,0.655-0.211c-0.416,1.127-0.83,2.255-1.247,3.381     c-0.885,2.397-1.769,4.795-2.652,7.195c0.419-0.234,0.838-0.467,1.259-0.699c-0.618-0.239-1.237-0.477-1.856-0.716     c-0.61-0.232-1.208,0.347-1.313,0.912c-0.287,1.547-0.901,3.159-1.472,4.625c-0.115,0.3-0.067,0.728,0.272,0.862     c2.484,0.989,6.212,3.213,7.845-0.197c1.41-2.945,2.264-6.239,3.315-9.325c0.714-2.089,1.805-4.316,2.128-6.517     c0.362-2.454-2.293-3.493-3.983-4.578c-11.187-7.17-22.011-14.949-32.92-22.532c-0.503-0.351-1.008-0.702-1.512-1.052     c-0.46-0.319,0.162,0.033-0.078,0.587c0.161-0.371,0.321-0.744,0.483-1.115c1.101-2.549,2.204-5.099,3.306-7.648     c0.106-0.248,0.075-0.557-0.114-0.755c-1.24-1.289-3.011-1.844-4.749-1.952c-0.877-0.055-1.69,1.591-0.615,1.658     c1.029,0.063,1.923,0.279,2.844,0.733c0.309,0.165,0.597,0.359,0.863,0.583c0.6,0.469-0.052,0.244,0.228-0.403     c-0.361,0.836-0.722,1.672-1.083,2.508c-0.903,2.086-1.805,4.171-2.704,6.256c-0.09,0.21-0.104,0.605,0.113,0.755     c9.719,6.77,19.449,13.524,29.262,20.157c2.003,1.354,4.005,2.71,6.044,4.009c0.741,0.472,1.564,0.878,2.253,1.42     c1.079,0.854,0.687,1.885,0.342,2.901c-1.109,3.276-2.224,6.552-3.351,9.822c-0.415,1.201-0.823,2.409-1.269,3.6     c-0.801,2.151-4.333,0.055-5.662-0.475c0.091,0.287,0.183,0.574,0.272,0.861c0.624-1.608,1.262-3.353,1.576-5.051     c-0.438,0.304-0.874,0.607-1.312,0.911c0.619,0.239,1.238,0.477,1.857,0.715c0.518,0.2,1.083-0.222,1.259-0.699     c1.303-3.531,2.605-7.064,3.909-10.598c0.078-0.212,0.11-0.604-0.114-0.755c-8.579-5.755-17.163-11.503-25.76-17.233     c-3.634-2.422-7.23-4.937-10.949-7.227c-2.835-1.747-1.493-3.998-0.547-6.287c1.002-2.417,2.002-4.835,3.001-7.252     C64.698,47.693,63.063,47.779,62.698,48.666z"
           id="path4450" /></g></g><g
       id="g4452"><path
         fill="#010101"
         d="M64.126,50.042l-3.665,9.202c0,0-0.194,0.888,0.132,1.585l4.39-10.561    C64.982,50.269,65.038,49.864,64.126,50.042z"
         id="path4454" /><g
         id="g4456"><path
           fill="#010101"
           d="M64.054,49.876c-0.841,2.112-1.683,4.225-2.524,6.337c-0.636,1.599-1.531,2.997-1.026,4.734     c0.025,0.088,0.109,0.175,0.163,0.047c1.05-2.527,2.102-5.056,3.152-7.584c0.362-0.869,2.347-3.759,0.308-3.602     c-0.15,0.012-0.139,0.479,0,0.469c0.851-0.066,0.87-0.381,0.661,0.123c-0.147,0.355-0.296,0.711-0.443,1.067     c-0.433,1.042-0.867,2.085-1.301,3.127c-0.816,1.967-1.636,3.934-2.452,5.9c-0.241,0.575,0.102-1.479,0.229-1.802     c0.439-1.098,0.875-2.195,1.312-3.292c0.689-1.731,1.378-3.46,2.067-5.192C64.247,50.089,64.146,49.645,64.054,49.876z"
           id="path4458" /></g></g><g
       id="g4460"><path
         fill="#010101"
         d="M95.28,97.369c0,0-0.677,2.974,0.499,0.225c1.388-3.249,2.792-7.286,3.252-8.585    c0.348-0.981-0.233-1.225-0.639-0.148C97.144,92.188,95.28,97.369,95.28,97.369z"
         id="path4462" /><g
         id="g4464"><path
           fill="#010101"
           d="M95.235,97.357c-0.069,0.312-0.369,1.137-0.149,1.425c0.016,0.018,0.03,0.024,0.054,0.021     c0.398-0.061,0.711-1.257,0.828-1.535c0.559-1.318,1.071-2.655,1.574-3.994c0.44-1.175,0.863-2.354,1.281-3.537     c0.146-0.413,0.622-1.235,0.204-1.606c-0.393-0.347-1.906,4.036-2.042,4.403C96.396,94.14,95.813,95.747,95.235,97.357     c-0.021,0.057,0.069,0.081,0.09,0.024c0.395-1.1,0.793-2.198,1.193-3.295c0.377-1.039,0.757-2.076,1.139-3.114     c0.188-0.511,0.377-1.021,0.567-1.529c0.109-0.305,0.233-0.606,0.366-0.902c0.131,0.152,0.264,0.305,0.395,0.456     c-0.037,0.106-0.075,0.213-0.112,0.319c-0.722,2.046-1.463,4.085-2.254,6.104c-0.283,0.721-0.579,1.438-0.883,2.151     c-0.042,0.103-0.602,1.055-0.604,0.995c-0.01-0.388,0.107-0.807,0.192-1.184C95.338,97.322,95.247,97.298,95.235,97.357z"
           id="path4466" /></g></g></g><g
     id="WALEK"><g
       id="W1"><g
         id="g4470"><path
           fill="#010101"
           d="M18.527,65.962c-3.308,6.404-7.596,14.976-4.664,22.196c1.636,4.026,5.859,5.198,9.551,6.587     c13.29,4.997,26.689,9.711,40.065,14.473c3.395,1.208,6.788,2.415,10.184,3.617c2.49,0.882,5.343,0.71,7.777-0.233     c4.938-1.917,6.702-7.772,8.419-12.268c1.428-3.742,2.77-7.394,2.254-11.438c-0.474-3.701-2.912-6.257-6.277-7.577     c-5.124-2.008-10.313-3.852-15.479-5.74c-10.772-3.937-21.559-7.841-32.346-11.735c-2.306-0.834-4.611-1.665-6.917-2.497     C26.204,59.584,20.936,61.152,18.527,65.962c-1.368,2.729,2.545,3.429,3.645,1.236c2.157-4.307,6.185-2.264,9.602-1.031     c6.022,2.173,12.042,4.35,18.062,6.531c7.41,2.687,14.82,5.377,22.219,8.091c2.769,1.017,5.538,2.034,8.3,3.069     c1.87,0.699,3.946,1.269,5.507,2.553c3.14,2.579,2.03,7.374,0.958,10.606c-0.848,2.552-1.842,5.06-2.911,7.524     c-0.947,2.186-1.896,4.383-4.441,4.877c-2.751,0.534-6.032-1.226-8.526-2.11c-13.36-4.747-26.72-9.497-40.03-14.385     c-2.514-0.922-5.027-1.849-7.525-2.812c-0.706-0.273-1.412-0.549-2.108-0.843c-0.173-0.072-0.345-0.147-0.514-0.229     c0.866,0.42-0.495-0.384-0.669-0.499c-6.702-4.443-0.367-16.607,2.078-21.342C23.575,64.482,19.652,63.782,18.527,65.962z"
           id="path4472" /></g></g><g
       id="W2"><path
         fill="#010101"
         d="M21.684,85.052c0,0-2.689-0.813-3.243-2.867c-0.161-0.598,0.384,4.773,3.238,5.747    c2.854,0.976,55.244,20.082,55.244,20.082s3.393,0.104,5.258-2.373c0,0-0.968,1.429-6.454-0.604"
         id="path4475" /></g></g><path
     style="fill:#ffffff;stroke:#ffffff;stroke-width:0.4804661"
     d="m 70.820703,40.227474 c -0.660641,-0.370803 -2.011952,-0.814566 -3.002913,-0.986139 -0.990961,-0.171574 -1.801748,-0.524066 -1.801748,-0.783316 0,-0.889729 8.847399,-25.032545 9.002708,-24.566621 0.08539,0.256166 -1.689341,5.616866 -3.943843,11.912668 -3.968221,11.08144 -4.967591,14.917204 -2.365589,9.079558 1.433188,-3.215387 13.642571,-33.3954055 13.642571,-33.7226743 0,-0.1171442 -0.648629,-0.1177909 -1.441398,-0.00144 -1.500642,0.2202474 -1.988995,-0.40297938 -0.702583,-0.89662207 0.904593,-0.34712489 4.730169,1.05898207 5.54177,2.03690147 0.482412,0.581271 -0.669901,4.1874757 -6.286503,19.6738249 -3.782453,10.429152 -7.004114,18.954433 -7.159247,18.945069 -0.155133,-0.0094 -0.822584,-0.32041 -1.483225,-0.691212 z"
     id="path4483"
     inkscape:connector-curvature="0" /><path
     style="fill:#ffffff;stroke:#ffffff;stroke-width:0.4804661"
     d="m 68.662507,49.109948 c -0.161173,-0.260784 -1.460506,-0.813544 -2.887404,-1.228355 -1.7433,-0.50679 -2.692704,-1.06405 -2.894147,-1.69874 -0.358677,-1.13009 0.111135,-3.543282 1.045966,-5.372619 0.561364,-1.098512 0.902554,-1.27868 1.984114,-1.047727 2.552123,0.544974 5.283815,1.700759 6.068162,2.567453 0.738803,0.816368 0.739427,1.047069 0.0087,3.225879 -1.089693,3.249292 -2.549536,4.809526 -3.325426,3.554109 l 0,0 z m 2.391981,-3.188019 c 0.399931,-0.957169 0.727147,-1.817614 0.727147,-1.912099 0,-0.405348 -3.79758,-2.060986 -5.429608,-2.367156 -1.709377,-0.320681 -1.811098,-0.263159 -2.515384,1.422435 -0.798217,1.910401 -0.615999,2.668289 0.64624,2.687863 0.446853,0.0069 1.677299,0.421848 2.734324,0.92204 2.694284,1.274954 3.01632,1.211753 3.837281,-0.753083 l 0,0 z"
     id="path4485"
     inkscape:connector-curvature="0" /><path
     style="fill:#ffffff;stroke:#ffffff;stroke-width:0.4804661"
     d="m 92.78124,101.83479 c -1.039763,-0.7757 -0.568352,-2.740055 0.677407,-2.822739 0.497692,-0.03301 1.175157,-0.08708 1.505477,-0.120116 0.330321,-0.03301 1.487798,-2.300225 2.572173,-5.038206 1.66836,-4.212512 1.890046,-5.163281 1.441398,-6.181878 C 98.622874,86.866275 92.289257,82.353626 79.829442,74.028879 69.589509,67.187297 61.210949,61.320752 61.21042,60.992114 c -8.54e-4,-0.530665 3.749596,-9.891365 4.172884,-10.415049 0.09256,-0.114511 0.367524,-0.0064 0.611034,0.240233 0.270934,0.274414 -0.219527,1.983324 -1.26387,4.403698 -0.93864,2.175395 -1.600991,4.230522 -1.471892,4.566949 0.198424,0.517086 21.82156,15.638643 34.07476,23.829265 2.029772,1.356796 3.811694,2.663008 3.959824,2.902692 0.21209,0.34317 -3.122157,10.858467 -4.779955,15.074658 -0.389533,0.99067 -2.540463,1.12913 -3.731965,0.24023 z"
     id="path4487"
     inkscape:connector-curvature="0" /><path
     style="fill:#ffffff;stroke:#ffffff;stroke-width:0.4804661"
     d=""
     id="path4489"
     inkscape:connector-curvature="0" /><path
     style="fill:#ffffff;stroke:#ffffff;stroke-width:0.4804661"
     d=""
     id="path4491"
     inkscape:connector-curvature="0" /><path
     style="fill:#ffffff;stroke:#ffffff;stroke-width:0.4804661"
     d=""
     id="path4493"
     inkscape:connector-curvature="0" /><path
     style="fill:#ffffff;stroke:#ffffff;stroke-width:0.4804661"
     d="M 73.223034,107.91375 C 71.505367,107.2531 61.343509,103.56665 50.641127,99.721646 18.513087,88.179124 19.553755,88.623888 18.251059,85.878659 c -1.579833,-3.329249 -0.818466,-7.70721 2.606899,-14.990012 2.50274,-5.321175 3.421056,-6.181293 6.189476,-5.797224 1.669954,0.231677 47.662964,16.759228 54.635502,19.633223 4.777438,1.969203 5.713847,3.0867 5.713847,6.818831 0,2.319165 -0.463505,4.218854 -2.129992,8.729793 -3.357661,9.08872 -5.214955,10.26698 -12.043757,7.64048 z m 7.188882,-0.5969 c 2.172466,-1.16511 2.334143,-1.84904 0.386655,-1.63562 -1.975609,0.21651 -1.595248,0.34648 -33.452077,-11.430636 C 29.075,87.495829 20.38937,84.058983 19.599576,83.271327 l -1.149678,-1.146567 0,1.05031 c 0,1.241434 1.083532,3.470723 2.094881,4.310069 1.05278,0.873729 55.588193,20.670421 57.009945,20.694961 0.664763,0.0115 1.9505,-0.37699 2.857192,-0.86325 l 0,0 z"
     id="path4495"
     inkscape:connector-curvature="0" /><path
     style="fill:#ffffff;stroke:#ffffff;stroke-width:0.4804661"
     d="m 72.9828,112.31755 c -1.057025,-0.3431 -9.489205,-3.33964 -18.738177,-6.65899 C 17.191841,92.360732 16.215547,91.934607 14.365936,88.252652 c -1.382694,-2.752482 -1.284082,-8.536279 0.21693,-12.723381 1.34472,-3.751122 4.625818,-10.46188 5.721681,-11.702429 0.433353,-0.490568 1.634937,-1.324235 2.670186,-1.852593 3.606406,-1.840594 5.500631,-1.360889 30.308957,7.675619 36.358754,13.243788 35.500165,12.874654 37.459026,16.104797 1.216795,2.00649 1.441095,5.878511 0.540466,9.329939 -1.151115,4.411358 -4.420975,12.128656 -5.95935,14.064846 -2.752571,3.46437 -7.596866,4.70796 -12.341032,3.1681 l 0,0 z m 8.366083,-3.46854 c 2.137814,-1.49739 6.24789,-11.904584 6.612506,-16.743659 0.250702,-3.327278 -0.741225,-5.451336 -3.120286,-6.681596 C 84.072746,85.026423 76.117477,82.017744 67.162727,78.737804 26.801452,63.9543 26.056079,63.716826 23.801993,64.923177 c -1.243399,0.665447 -3.934269,5.861536 -5.590436,10.795174 -2.241072,6.676037 -1.392223,11.116199 2.567223,13.42864 3.090292,1.804827 55.474515,20.460409 57.502356,20.478299 1.064294,0.009 2.444779,-0.33994 3.067747,-0.77628 z"
     id="path4497"
     inkscape:connector-curvature="0" /><path
     style="fill:#ffffff;stroke:#ffffff;stroke-width:0.4804661"
     d="m 70.820703,111.33624 c -1.717666,-0.65171 -10.90658,-3.975 -20.419809,-7.38508 C 26.616579,95.425508 18.235957,92.051955 16.296306,90.222628 c -3.593427,-3.389037 -3.513981,-9.898024 0.226256,-18.537086 2.30016,-5.312828 3.662106,-7.427114 5.689168,-8.831868 3.696027,-2.561349 6.137815,-1.964497 35.155922,8.593251 19.765309,7.191273 29.120921,10.829508 30.979859,12.047531 4.500074,2.948562 4.002008,11.027564 -1.345906,21.831714 -2.690341,5.43517 -4.66559,6.88895 -9.604772,7.06907 -2.721192,0.0992 -4.115048,-0.12522 -6.57613,-1.059 l 0,0 z m 11.030786,-2.63487 c 1.299848,-1.29985 2.532306,-3.83908 4.306413,-8.872485 C 88.840714,92.217344 88.645251,87.560898 85.564473,85.691727 83.127895,84.213404 37.262992,67.347154 29.875496,65.212794 28.364013,64.776103 26.31002,64.486305 25.311068,64.568797 c -1.564628,0.129206 -2.028042,0.46685 -3.344704,2.436964 -2.189619,3.276312 -4.554748,9.70977 -4.838775,13.162102 -0.542573,6.594914 0.68569,8.162508 8.896268,11.354031 6.692328,2.601367 23.228744,8.594826 35.427757,12.840426 10.280279,3.57784 10.351541,3.60018 9.291057,2.91367 C 70.303366,106.9916 61.006347,103.53382 50.082628,99.592036 25.08177,90.570563 22.621817,89.657178 20.829275,88.730219 16.519342,86.501466 16.350737,80.689063 20.337806,71.787528 c 2.311966,-5.161699 3.713681,-6.828511 5.742474,-6.828511 1.504977,0 15.358918,4.836147 43.276087,15.10686 10.702541,3.937461 15.502201,5.933688 16.449978,6.841716 2.6039,2.494693 2.358319,6.027304 -1.019612,14.666947 -2.211033,5.6551 -3.4558,7.13545 -6.403729,7.61571 l -2.036941,0.33184 2.282214,0.0601 c 1.681814,0.0443 2.529769,-0.18741 3.223212,-0.88085 l 0,0 z m -1.010296,-1.78323 1.270463,-0.84627 -2.40233,-0.35897 C 78.388044,105.51547 67.685662,101.8028 55.926254,97.462521 23.897378,85.640996 21.212612,84.609676 19.697761,83.545782 l -1.394701,-0.979512 0.345598,1.376972 c 0.863275,3.439562 0.532079,3.281596 27.020418,12.887603 13.701267,4.968765 26.208652,9.549495 27.794191,10.179395 3.195719,1.26958 5.374551,1.24238 7.377926,-0.0921 l 0,0 z"
     id="path4499"
     inkscape:connector-curvature="0" /><path
     style="fill:#ffffff;stroke:#ffffff;stroke-width:0.4804661"
     d=""
     id="path4501"
     inkscape:connector-curvature="0" /><path
     style="fill:#ffffff;stroke:#ffffff;stroke-width:0.4804661"
     d=""
     id="path4503"
     inkscape:connector-curvature="0" /><path
     style="fill:#ffffff;stroke:#ffffff;stroke-width:0.4804661"
     d=""
     id="path4505"
     inkscape:connector-curvature="0" /><path
     style="fill:#ffffff;stroke:#ffffff;stroke-width:0.4804661"
     d="M 71.301169,105.58953 C 62.870564,102.67564 29.300879,90.297198 25.367394,88.651965 21.583743,87.069402 19.41083,85.599484 19.41083,84.622505 c 0,-0.296875 0.387123,-0.271472 1.019361,0.06689 0.985935,0.527656 14.949529,5.749664 42.96032,16.066005 7.408547,2.72856 14.294592,5.11569 15.302326,5.30475 1.276464,0.23946 1.635651,0.46831 1.184133,0.75445 -1.199171,0.75994 -3.983395,0.36221 -8.575801,-1.22507 l 0,0 z"
     id="path4507"
     inkscape:connector-curvature="0" /><path
     style="fill:#ffffff;stroke:#ffffff;stroke-width:0.4804661"
     d="m 92.081328,103.55857 c -2.283935,-0.80845 -2.305176,-0.88914 -1.117872,-4.246227 0.679885,-1.922369 1.043851,-2.374425 1.821742,-2.262664 0.82568,0.118622 1.232201,-0.565571 2.698797,-4.542219 0.949678,-2.575035 1.680658,-4.719637 1.624399,-4.765783 -0.05626,-0.04615 -8.318259,-5.528372 -18.36,-12.182725 -10.041742,-6.654353 -18.636079,-12.54226 -19.098528,-13.084239 -0.462448,-0.541978 -0.840815,-1.585909 -0.840815,-2.319846 0,-1.129978 3.791617,-11.159276 4.478482,-11.846141 0.39086,-0.39086 4.027429,0.765007 4.60809,1.46466 0.426054,0.513363 0.159639,1.550967 -1.181309,4.600832 -0.952285,2.165888 -1.624402,4.216882 -1.493594,4.557763 0.261144,0.680529 15.582857,11.430522 28.422123,19.941479 4.492358,2.977917 8.453297,5.767968 8.802087,6.200113 0.39928,0.494697 0.5311,1.408578 0.35592,2.46735 -0.4442,2.684536 -4.925647,14.895037 -5.835857,15.900807 -0.97426,1.07655 -2.096558,1.1034 -4.883665,0.11684 l 0,0 z m 4.552768,-1.24331 c 0.256493,-0.33032 1.58483,-3.903392 2.951861,-7.94016 2.651943,-7.831035 2.683763,-8.585807 0.41205,-9.774294 C 97.794291,83.447891 69.313604,63.71181 64.733852,60.164027 L 63.691894,59.356858 65.4121,55.121407 c 1.667693,-4.106155 1.692274,-4.255875 0.805211,-4.904511 -1.855128,-1.356503 -2.618357,-0.634416 -4.639866,4.389751 -1.511498,3.756611 -1.832983,5.044729 -1.498917,6.005826 0.286655,0.824699 2.302483,2.456782 6.184309,5.007027 9.695029,6.369347 28.728533,19.403385 30.405895,20.821787 l 1.584492,1.339869 -2.014686,5.443016 c -1.671618,4.516158 -2.161537,5.404616 -2.877069,5.217499 -0.625965,-0.163695 -1.001969,0.174899 -1.371553,1.235091 -0.705165,2.022838 -0.657961,2.249298 0.571878,2.743638 1.579542,0.6349 3.536904,0.58436 4.072302,-0.10514 z"
     id="path4509"
     inkscape:connector-curvature="0" /><path
     style="fill:#ffffff;stroke:#ffffff;stroke-width:0.4804661"
     d=""
     id="path4511"
     inkscape:connector-curvature="0" /><path
     style="fill:#ffffff;stroke:#ffffff;stroke-width:0.4804661"
     d=""
     id="path4513"
     inkscape:connector-curvature="0" /><path
     style="fill:#ffffff;stroke:#ffffff;stroke-width:0.4804661"
     d=""
     id="path4515"
     inkscape:connector-curvature="0" /><path
     style="fill:#ffffff;stroke:#ffffff;stroke-width:0.4804661"
     d="m 73.7035,20.413062 c 0,-0.276776 0.764252,-2.614511 1.698339,-5.194965 0.934086,-2.580455 1.626325,-4.907777 1.538308,-5.171828 -0.08802,-0.2640503 -0.434835,0.437125 -0.770708,1.558168 -0.335873,1.121043 -0.718782,1.930155 -0.85091,1.798027 -0.292026,-0.292026 0.757165,-3.9599229 1.607272,-5.6189132 l 0.615507,-1.2011652 0.03872,1.2011652 c 0.02453,0.760856 0.466391,-0.02336 1.2054,-2.1393491 1.190128,-3.4076605 1.868457,-4.5234686 2.416664,-3.9752611 0.169191,0.1691909 -0.269277,1.7486811 -0.974372,3.5099782 -0.705096,1.7612972 -1.163764,3.3205866 -1.019263,3.4650872 0.144501,0.1445012 -0.04396,0.6045892 -0.418813,1.0224184 -0.374849,0.4178296 -1.583622,3.0298926 -2.686164,5.8045836 -2.018609,5.080097 -2.399984,5.865426 -2.399984,4.942054 z"
     id="path4517"
     inkscape:connector-curvature="0" /><path
     style="fill:#ffffff;stroke:#ffffff;stroke-width:0.4804661"
     d=""
     id="path4519"
     inkscape:connector-curvature="0" /><path
     style="fill:#ffffff;stroke:#ffffff;stroke-width:0.4804661"
     d=""
     id="path4521"
     inkscape:connector-curvature="0" /><path
     style="fill:#ffffff;stroke:#ffffff;stroke-width:0.4804661"
     d="m 92.809525,101.85595 c -1.313283,-0.97985 -0.59275,-2.634704 1.30193,-2.990148 1.497307,-0.280899 1.675239,-0.547015 3.348696,-5.008382 1.166504,-3.109853 1.665959,-5.115752 1.469092,-5.900134 C 98.701195,87.048668 94.226001,83.80048 79.921176,74.160834 69.630789,67.226413 61.211381,61.245001 61.211381,60.868808 c 0,-0.595745 3.698993,-9.733961 4.165921,-10.291743 0.09586,-0.114511 0.370073,-0.0064 0.609363,0.240233 0.261857,0.269897 -0.219557,2.063506 -1.209173,4.505033 -0.904335,2.231128 -1.644247,4.19807 -1.644247,4.370981 0,0.172911 6.86466,5.035065 15.254799,10.804786 20.816033,14.314745 22.638306,15.590096 22.914626,16.037195 0.13234,0.214123 -0.90586,3.825185 -2.307101,8.024581 -2.47221,7.408986 -2.58928,7.639446 -3.950221,7.776546 -0.771378,0.0777 -1.777499,-0.1385 -2.235823,-0.48047 l 0,0 z"
     id="path4523"
     inkscape:connector-curvature="0" /><path
     style="fill:#ffffff;stroke:#ffffff;stroke-width:0.4804661"
     d="m 92.743145,101.81935 c -1.292156,-0.94555 -0.638223,-2.596927 1.18712,-2.997837 1.539103,-0.338046 2.637168,-2.256964 4.498838,-7.861927 l 0.852976,-2.568072 -1.618453,-1.568851 C 96.141747,85.347426 92.344879,82.697659 70.22012,67.67032 c -4.954806,-3.36535 -9.008739,-6.414791 -9.008739,-6.776536 0,-0.689007 3.623865,-9.808576 4.078196,-10.262907 0.144108,-0.144108 0.46051,-0.06022 0.703115,0.186421 0.268848,0.273317 -0.108843,1.855634 -0.967174,4.051931 -0.774551,1.981922 -1.40907,3.953017 -1.410041,4.38021 -0.0016,0.710527 11.762658,9.183801 31.343752,22.575485 3.630831,2.483159 6.594461,4.731044 6.585841,4.9953 -0.009,0.264256 -1.14723,3.831717 -2.530247,7.927691 -2.449648,7.254935 -2.551466,7.450875 -3.943278,7.588505 -0.785786,0.0777 -1.833566,-0.15498 -2.3284,-0.51707 l 0,0 z"
     id="path4525"
     inkscape:connector-curvature="0" /><path
     style="fill:#ffffff;stroke:#ffffff;stroke-width:0.4804661"
     d="m 67.010744,51.722176 c -0.07826,-2.282555 -2.804482,-2.941859 -3.877111,-0.937633 -0.872683,1.630623 -1.236554,1.104446 -0.487235,-0.704569 0.683361,-1.649781 1.711724,-1.841908 3.87397,-0.723767 1.518988,0.785499 1.570305,0.916381 0.937072,2.389992 -0.4088,0.95133 -0.413264,0.95109 -0.446696,-0.02402 z"
     id="path4527"
     inkscape:connector-curvature="0" /><path
     style="fill:#ffffff;stroke:#ffffff;stroke-width:0.4804661"
     d=""
     id="path4529"
     inkscape:connector-curvature="0" /><path
     style="fill:#ffffff;stroke:#ffffff;stroke-width:0.4804661"
     d=""
     id="path4531"
     inkscape:connector-curvature="0" /><path
     style="fill:#ffffff;stroke:#ffffff;stroke-width:0.4804661"
     d=""
     id="path4533"
     inkscape:connector-curvature="0" /><path
     style="fill:#ffffff;stroke:#ffffff;stroke-width:0.4804661"
     d=""
     id="path4535"
     inkscape:connector-curvature="0" /><path
     style="fill:#ffffff;stroke:#ffffff;stroke-width:0.4804661"
     d=""
     id="path4537"
     inkscape:connector-curvature="0" /><path
     style="fill:#ffffff;stroke:#ffffff;stroke-width:0.4804661"
     d=""
     id="path4539"
     inkscape:connector-curvature="0" /><path
     style="fill:#ffffff;stroke:#ffffff;stroke-width:0.4804661"
     d=""
     id="path4541"
     inkscape:connector-curvature="0" /><path
     style="fill:#ffffff;stroke:#ffffff;stroke-width:0.4804661"
     d=""
     id="path4543"
     inkscape:connector-curvature="0" /><path
     style="fill:#ffffff;stroke:#ffffff;stroke-width:0.4804661"
     d=""
     id="path4545"
     inkscape:connector-curvature="0" /><path
     style="fill:#ffffff;stroke:#ffffff;stroke-width:0.4804661"
     d=""
     id="path4547"
     inkscape:connector-curvature="0" /></svg>