<?xml version="1.0" standalone="no"?>
<!DOCTYPE svg PUBLIC "-//W3C//DTD SVG 20010904//EN"
  "http://www.w3.org/TR/2001/REC-SVG-20010904/DTD/svg10.dtd">
<svg width="16" height="16">
  <circle cx="0" cy="0" r="1" fill="rgba(255,255,255,0)"/>
  <circle cx="1" cy="0" r="1" fill="rgba(255,255,255,0)"/>
  <circle cx="2" cy="0" r="1" fill="rgba(183,112,23,0.564706)"/>
  <circle cx="3" cy="0" r="1" fill="rgba(164,86,11,0.776471)"/>
  <circle cx="4" cy="0" r="1" fill="rgba(150,66,1,0.8)"/>
  <circle cx="5" cy="0" r="1" fill="rgba(148,63,0,0.8)"/>
  <circle cx="6" cy="0" r="1" fill="rgba(128,42,0,0.8)"/>
  <circle cx="7" cy="0" r="1" fill="rgba(107,22,0,0.8)"/>
  <circle cx="8" cy="0" r="1" fill="rgba(112,28,2,0.796078)"/>
  <circle cx="9" cy="0" r="1" fill="rgba(125,45,7,0.784314)"/>
  <circle cx="10" cy="0" r="1" fill="rgba(144,67,13,0.772549)"/>
  <circle cx="11" cy="0" r="1" fill="rgba(163,89,18,0.756863)"/>
  <circle cx="12" cy="0" r="1" fill="rgba(178,108,23,0.564706)"/>
  <circle cx="13" cy="0" r="1" fill="rgba(255,255,255,0)"/>
  <circle cx="14" cy="0" r="1" fill="rgba(255,255,255,0)"/>
  <circle cx="15" cy="0" r="1" fill="rgba(255,255,255,0)"/>
  <circle cx="0" cy="1" r="1" fill="rgba(255,255,255,0)"/>
  <circle cx="1" cy="1" r="1" fill="rgba(255,255,255,0)"/>
  <circle cx="2" cy="1" r="1" fill="rgba(50,118,152,0.356863)"/>
  <circle cx="3" cy="1" r="1" fill="rgba(224,234,245,0.823529)"/>
  <circle cx="4" cy="1" r="1" fill="rgba(191,212,234,0.74902)"/>
  <circle cx="5" cy="1" r="1" fill="rgba(216,229,243,0.784314)"/>
  <circle cx="6" cy="1" r="1" fill="rgba(236,242,249,0.858824)"/>
  <circle cx="7" cy="1" r="1" fill="rgba(209,225,240,0.741176)"/>
  <circle cx="8" cy="1" r="1" fill="rgba(200,218,237,0.745098)"/>
  <circle cx="9" cy="1" r="1" fill="rgba(192,213,234,0.74902)"/>
  <circle cx="10" cy="1" r="1" fill="rgba(189,211,233,0.752941)"/>
  <circle cx="11" cy="1" r="1" fill="rgba(219,231,243,0.823529)"/>
  <circle cx="12" cy="1" r="1" fill="rgba(50,118,152,0.356863)"/>
  <circle cx="13" cy="1" r="1" fill="rgba(255,255,255,0)"/>
  <circle cx="14" cy="1" r="1" fill="rgba(255,255,255,0)"/>
  <circle cx="15" cy="1" r="1" fill="rgba(255,255,255,0)"/>
  <circle cx="0" cy="2" r="1" fill="rgba(255,255,255,0)"/>
  <circle cx="1" cy="2" r="1" fill="rgba(255,255,255,0)"/>
  <circle cx="2" cy="2" r="1" fill="rgba(49,117,151,0.360784)"/>
  <circle cx="3" cy="2" r="1" fill="rgba(224,234,245,0.823529)"/>
  <circle cx="4" cy="2" r="1" fill="rgba(191,212,234,0.74902)"/>
  <circle cx="5" cy="2" r="1" fill="rgba(216,229,243,0.784314)"/>
  <circle cx="6" cy="2" r="1" fill="rgba(236,242,249,0.858824)"/>
  <circle cx="7" cy="2" r="1" fill="rgba(209,225,240,0.741176)"/>
  <circle cx="8" cy="2" r="1" fill="rgba(200,218,237,0.745098)"/>
  <circle cx="9" cy="2" r="1" fill="rgba(192,213,234,0.74902)"/>
  <circle cx="10" cy="2" r="1" fill="rgba(189,211,233,0.752941)"/>
  <circle cx="11" cy="2" r="1" fill="rgba(219,231,243,0.823529)"/>
  <circle cx="12" cy="2" r="1" fill="rgba(49,117,151,0.360784)"/>
  <circle cx="13" cy="2" r="1" fill="rgba(255,255,255,0)"/>
  <circle cx="14" cy="2" r="1" fill="rgba(255,255,255,0)"/>
  <circle cx="15" cy="2" r="1" fill="rgba(255,255,255,0)"/>
  <circle cx="0" cy="3" r="1" fill="rgba(255,255,255,0)"/>
  <circle cx="1" cy="3" r="1" fill="rgba(255,255,255,0)"/>
  <circle cx="2" cy="3" r="1" fill="rgba(48,116,150,0.364706)"/>
  <circle cx="3" cy="3" r="1" fill="rgba(224,234,245,0.823529)"/>
  <circle cx="4" cy="3" r="1" fill="rgba(99,133,235,1)"/>
  <circle cx="5" cy="3" r="1" fill="rgba(79,113,214,1)"/>
  <circle cx="6" cy="3" r="1" fill="rgba(54,88,188,1)"/>
  <circle cx="7" cy="3" r="1" fill="rgba(37,71,172,1)"/>
  <circle cx="8" cy="3" r="1" fill="rgba(36,70,177,1)"/>
  <circle cx="9" cy="3" r="1" fill="rgba(47,81,200,1)"/>
  <circle cx="10" cy="3" r="1" fill="rgba(61,95,226,1)"/>
  <circle cx="11" cy="3" r="1" fill="rgba(219,231,243,0.823529)"/>
  <circle cx="12" cy="3" r="1" fill="rgba(48,116,150,0.364706)"/>
  <circle cx="13" cy="3" r="1" fill="rgba(255,255,255,0)"/>
  <circle cx="14" cy="3" r="1" fill="rgba(255,255,255,0)"/>
  <circle cx="15" cy="3" r="1" fill="rgba(255,255,255,0)"/>
  <circle cx="0" cy="4" r="1" fill="rgba(255,255,255,0)"/>
  <circle cx="1" cy="4" r="1" fill="rgba(255,255,255,0)"/>
  <circle cx="2" cy="4" r="1" fill="rgba(47,115,149,0.372549)"/>
  <circle cx="3" cy="4" r="1" fill="rgba(233,240,248,0.862745)"/>
  <circle cx="4" cy="4" r="1" fill="rgba(141,169,234,0.87451)"/>
  <circle cx="5" cy="4" r="1" fill="rgba(104,130,210,1)"/>
  <circle cx="6" cy="4" r="1" fill="rgba(177,180,201,0.996078)"/>
  <circle cx="7" cy="4" r="1" fill="rgba(154,150,155,0.984314)"/>
  <circle cx="8" cy="4" r="1" fill="rgba(146,142,147,0.984314)"/>
  <circle cx="9" cy="4" r="1" fill="rgba(72,97,188,0.996078)"/>
  <circle cx="10" cy="4" r="1" fill="rgba(120,149,228,0.878431)"/>
  <circle cx="11" cy="4" r="1" fill="rgba(229,238,247,0.862745)"/>
  <circle cx="12" cy="4" r="1" fill="rgba(47,115,149,0.372549)"/>
  <circle cx="13" cy="4" r="1" fill="rgba(255,255,255,0)"/>
  <circle cx="14" cy="4" r="1" fill="rgba(255,255,255,0)"/>
  <circle cx="15" cy="4" r="1" fill="rgba(255,255,255,0)"/>
  <circle cx="0" cy="5" r="1" fill="rgba(255,255,255,0)"/>
  <circle cx="1" cy="5" r="1" fill="rgba(255,255,255,0)"/>
  <circle cx="2" cy="5" r="1" fill="rgba(46,114,148,0.188235)"/>
  <circle cx="3" cy="5" r="1" fill="rgba(46,114,148,0.376471)"/>
  <circle cx="4" cy="5" r="1" fill="rgba(213,227,241,0.823529)"/>
  <circle cx="5" cy="5" r="1" fill="rgba(139,164,225,0.882353)"/>
  <circle cx="6" cy="5" r="1" fill="rgba(85,111,189,1)"/>
  <circle cx="7" cy="5" r="1" fill="rgba(155,152,160,0.976471)"/>
  <circle cx="8" cy="5" r="1" fill="rgba(65,89,171,0.996078)"/>
  <circle cx="9" cy="5" r="1" fill="rgba(113,141,215,0.87451)"/>
  <circle cx="10" cy="5" r="1" fill="rgba(211,226,241,0.827451)"/>
  <circle cx="11" cy="5" r="1" fill="rgba(46,114,148,0.376471)"/>
  <circle cx="12" cy="5" r="1" fill="rgba(46,114,148,0.188235)"/>
  <circle cx="13" cy="5" r="1" fill="rgba(255,255,255,0)"/>
  <circle cx="14" cy="5" r="1" fill="rgba(255,255,255,0)"/>
  <circle cx="15" cy="5" r="1" fill="rgba(255,255,255,0)"/>
  <circle cx="0" cy="6" r="1" fill="rgba(255,255,255,0)"/>
  <circle cx="1" cy="6" r="1" fill="rgba(255,255,255,0)"/>
  <circle cx="2" cy="6" r="1" fill="rgba(46,114,148,0)"/>
  <circle cx="3" cy="6" r="1" fill="rgba(45,113,147,0.192157)"/>
  <circle cx="4" cy="6" r="1" fill="rgba(45,113,147,0.384314)"/>
  <circle cx="5" cy="6" r="1" fill="rgba(228,237,247,0.843137)"/>
  <circle cx="6" cy="6" r="1" fill="rgba(142,162,216,0.941176)"/>
  <circle cx="7" cy="6" r="1" fill="rgba(37,71,172,1)"/>
  <circle cx="8" cy="6" r="1" fill="rgba(111,138,204,0.87451)"/>
  <circle cx="9" cy="6" r="1" fill="rgba(213,227,241,0.823529)"/>
  <circle cx="10" cy="6" r="1" fill="rgba(45,113,147,0.384314)"/>
  <circle cx="11" cy="6" r="1" fill="rgba(45,113,147,0.192157)"/>
  <circle cx="12" cy="6" r="1" fill="rgba(46,114,148,0)"/>
  <circle cx="13" cy="6" r="1" fill="rgba(255,255,255,0)"/>
  <circle cx="14" cy="6" r="1" fill="rgba(255,255,255,0)"/>
  <circle cx="15" cy="6" r="1" fill="rgba(255,255,255,0)"/>
  <circle cx="0" cy="7" r="1" fill="rgba(255,255,255,0)"/>
  <circle cx="1" cy="7" r="1" fill="rgba(255,255,255,0)"/>
  <circle cx="2" cy="7" r="1" fill="rgba(46,114,148,0)"/>
  <circle cx="3" cy="7" r="1" fill="rgba(45,113,147,0)"/>
  <circle cx="4" cy="7" r="1" fill="rgba(43,111,145,0.196078)"/>
  <circle cx="5" cy="7" r="1" fill="rgba(43,111,145,0.388235)"/>
  <circle cx="6" cy="7" r="1" fill="rgba(236,242,249,0.858824)"/>
  <circle cx="7" cy="7" r="1" fill="rgba(209,225,240,0.741176)"/>
  <circle cx="8" cy="7" r="1" fill="rgba(219,231,244,0.819608)"/>
  <circle cx="9" cy="7" r="1" fill="rgba(43,111,145,0.388235)"/>
  <circle cx="10" cy="7" r="1" fill="rgba(43,111,145,0.196078)"/>
  <circle cx="11" cy="7" r="1" fill="rgba(45,113,147,0)"/>
  <circle cx="12" cy="7" r="1" fill="rgba(46,114,148,0)"/>
  <circle cx="13" cy="7" r="1" fill="rgba(255,255,255,0)"/>
  <circle cx="14" cy="7" r="1" fill="rgba(255,255,255,0)"/>
  <circle cx="15" cy="7" r="1" fill="rgba(255,255,255,0)"/>
  <circle cx="0" cy="8" r="1" fill="rgba(255,255,255,0)"/>
  <circle cx="1" cy="8" r="1" fill="rgba(255,255,255,0)"/>
  <circle cx="2" cy="8" r="1" fill="rgba(39,107,141,0)"/>
  <circle cx="3" cy="8" r="1" fill="rgba(40,108,142,0)"/>
  <circle cx="4" cy="8" r="1" fill="rgba(42,110,144,0.2)"/>
  <circle cx="5" cy="8" r="1" fill="rgba(42,110,144,0.396078)"/>
  <circle cx="6" cy="8" r="1" fill="rgba(236,242,249,0.858824)"/>
  <circle cx="7" cy="8" r="1" fill="rgba(209,225,240,0.741176)"/>
  <circle cx="8" cy="8" r="1" fill="rgba(219,231,244,0.819608)"/>
  <circle cx="9" cy="8" r="1" fill="rgba(42,110,144,0.396078)"/>
  <circle cx="10" cy="8" r="1" fill="rgba(42,110,144,0.2)"/>
  <circle cx="11" cy="8" r="1" fill="rgba(40,108,142,0)"/>
  <circle cx="12" cy="8" r="1" fill="rgba(39,107,141,0)"/>
  <circle cx="13" cy="8" r="1" fill="rgba(255,255,255,0)"/>
  <circle cx="14" cy="8" r="1" fill="rgba(255,255,255,0)"/>
  <circle cx="15" cy="8" r="1" fill="rgba(255,255,255,0)"/>
  <circle cx="0" cy="9" r="1" fill="rgba(255,255,255,0)"/>
  <circle cx="1" cy="9" r="1" fill="rgba(255,255,255,0)"/>
  <circle cx="2" cy="9" r="1" fill="rgba(39,107,141,0)"/>
  <circle cx="3" cy="9" r="1" fill="rgba(40,108,142,0.203922)"/>
  <circle cx="4" cy="9" r="1" fill="rgba(40,108,142,0.403922)"/>
  <circle cx="5" cy="9" r="1" fill="rgba(228,237,247,0.843137)"/>
  <circle cx="6" cy="9" r="1" fill="rgba(236,242,249,0.858824)"/>
  <circle cx="7" cy="9" r="1" fill="rgba(209,225,240,0.741176)"/>
  <circle cx="8" cy="9" r="1" fill="rgba(200,218,237,0.745098)"/>
  <circle cx="9" cy="9" r="1" fill="rgba(213,227,241,0.823529)"/>
  <circle cx="10" cy="9" r="1" fill="rgba(40,108,142,0.403922)"/>
  <circle cx="11" cy="9" r="1" fill="rgba(40,108,142,0.203922)"/>
  <circle cx="12" cy="9" r="1" fill="rgba(39,107,141,0)"/>
  <circle cx="13" cy="9" r="1" fill="rgba(255,255,255,0)"/>
  <circle cx="14" cy="9" r="1" fill="rgba(255,255,255,0)"/>
  <circle cx="15" cy="9" r="1" fill="rgba(255,255,255,0)"/>
  <circle cx="0" cy="10" r="1" fill="rgba(255,255,255,0)"/>
  <circle cx="1" cy="10" r="1" fill="rgba(255,255,255,0)"/>
  <circle cx="2" cy="10" r="1" fill="rgba(39,107,141,0.207843)"/>
  <circle cx="3" cy="10" r="1" fill="rgba(39,107,141,0.411765)"/>
  <circle cx="4" cy="10" r="1" fill="rgba(213,227,241,0.823529)"/>
  <circle cx="5" cy="10" r="1" fill="rgba(216,229,243,0.784314)"/>
  <circle cx="6" cy="10" r="1" fill="rgba(236,242,249,0.858824)"/>
  <circle cx="7" cy="10" r="1" fill="rgba(209,225,240,0.741176)"/>
  <circle cx="8" cy="10" r="1" fill="rgba(200,218,237,0.745098)"/>
  <circle cx="9" cy="10" r="1" fill="rgba(192,213,234,0.74902)"/>
  <circle cx="10" cy="10" r="1" fill="rgba(211,226,241,0.827451)"/>
  <circle cx="11" cy="10" r="1" fill="rgba(39,107,141,0.411765)"/>
  <circle cx="12" cy="10" r="1" fill="rgba(39,107,141,0.207843)"/>
  <circle cx="13" cy="10" r="1" fill="rgba(255,255,255,0)"/>
  <circle cx="14" cy="10" r="1" fill="rgba(255,255,255,0)"/>
  <circle cx="15" cy="10" r="1" fill="rgba(255,255,255,0)"/>
  <circle cx="0" cy="11" r="1" fill="rgba(255,255,255,0)"/>
  <circle cx="1" cy="11" r="1" fill="rgba(255,255,255,0)"/>
  <circle cx="2" cy="11" r="1" fill="rgba(37,105,139,0.415686)"/>
  <circle cx="3" cy="11" r="1" fill="rgba(233,240,248,0.862745)"/>
  <circle cx="4" cy="11" r="1" fill="rgba(191,212,234,0.74902)"/>
  <circle cx="5" cy="11" r="1" fill="rgba(216,229,243,0.784314)"/>
  <circle cx="6" cy="11" r="1" fill="rgba(236,242,249,0.858824)"/>
  <circle cx="7" cy="11" r="1" fill="rgba(209,225,240,0.741176)"/>
  <circle cx="8" cy="11" r="1" fill="rgba(200,218,237,0.745098)"/>
  <circle cx="9" cy="11" r="1" fill="rgba(192,213,234,0.74902)"/>
  <circle cx="10" cy="11" r="1" fill="rgba(189,211,233,0.752941)"/>
  <circle cx="11" cy="11" r="1" fill="rgba(229,238,247,0.862745)"/>
  <circle cx="12" cy="11" r="1" fill="rgba(37,105,139,0.415686)"/>
  <circle cx="13" cy="11" r="1" fill="rgba(255,255,255,0)"/>
  <circle cx="14" cy="11" r="1" fill="rgba(255,255,255,0)"/>
  <circle cx="15" cy="11" r="1" fill="rgba(255,255,255,0)"/>
  <circle cx="0" cy="12" r="1" fill="rgba(255,255,255,0)"/>
  <circle cx="1" cy="12" r="1" fill="rgba(255,255,255,0)"/>
  <circle cx="2" cy="12" r="1" fill="rgba(35,103,137,0.423529)"/>
  <circle cx="3" cy="12" r="1" fill="rgba(224,234,245,0.823529)"/>
  <circle cx="4" cy="12" r="1" fill="rgba(203,175,118,0.964706)"/>
  <circle cx="5" cy="12" r="1" fill="rgba(213,189,140,0.968627)"/>
  <circle cx="6" cy="12" r="1" fill="rgba(227,212,180,0.980392)"/>
  <circle cx="7" cy="12" r="1" fill="rgba(191,163,105,0.964706)"/>
  <circle cx="8" cy="12" r="1" fill="rgba(177,150,92,0.964706)"/>
  <circle cx="9" cy="12" r="1" fill="rgba(176,149,91,0.964706)"/>
  <circle cx="10" cy="12" r="1" fill="rgba(191,164,107,0.964706)"/>
  <circle cx="11" cy="12" r="1" fill="rgba(219,231,243,0.823529)"/>
  <circle cx="12" cy="12" r="1" fill="rgba(35,103,137,0.423529)"/>
  <circle cx="13" cy="12" r="1" fill="rgba(255,255,255,0)"/>
  <circle cx="14" cy="12" r="1" fill="rgba(255,255,255,0)"/>
  <circle cx="15" cy="12" r="1" fill="rgba(255,255,255,0)"/>
  <circle cx="0" cy="13" r="1" fill="rgba(255,255,255,0)"/>
  <circle cx="1" cy="13" r="1" fill="rgba(255,255,255,0)"/>
  <circle cx="2" cy="13" r="1" fill="rgba(31,99,133,0.439216)"/>
  <circle cx="3" cy="13" r="1" fill="rgba(224,234,245,0.823529)"/>
  <circle cx="4" cy="13" r="1" fill="rgba(199,187,153,0.890196)"/>
  <circle cx="5" cy="13" r="1" fill="rgba(214,202,171,0.905882)"/>
  <circle cx="6" cy="13" r="1" fill="rgba(230,222,202,0.937255)"/>
  <circle cx="7" cy="13" r="1" fill="rgba(197,181,145,0.886275)"/>
  <circle cx="8" cy="13" r="1" fill="rgba(184,170,135,0.890196)"/>
  <circle cx="9" cy="13" r="1" fill="rgba(181,168,134,0.890196)"/>
  <circle cx="10" cy="13" r="1" fill="rgba(191,179,145,0.890196)"/>
  <circle cx="11" cy="13" r="1" fill="rgba(219,231,243,0.823529)"/>
  <circle cx="12" cy="13" r="1" fill="rgba(31,99,133,0.439216)"/>
  <circle cx="13" cy="13" r="1" fill="rgba(255,255,255,0)"/>
  <circle cx="14" cy="13" r="1" fill="rgba(255,255,255,0)"/>
  <circle cx="15" cy="13" r="1" fill="rgba(255,255,255,0)"/>
  <circle cx="0" cy="14" r="1" fill="rgba(255,255,255,0)"/>
  <circle cx="1" cy="14" r="1" fill="rgba(255,255,255,0)"/>
  <circle cx="2" cy="14" r="1" fill="rgba(25,93,127,0.466667)"/>
  <circle cx="3" cy="14" r="1" fill="rgba(224,234,245,0.823529)"/>
  <circle cx="4" cy="14" r="1" fill="rgba(191,212,234,0.74902)"/>
  <circle cx="5" cy="14" r="1" fill="rgba(216,229,243,0.784314)"/>
  <circle cx="6" cy="14" r="1" fill="rgba(236,242,249,0.858824)"/>
  <circle cx="7" cy="14" r="1" fill="rgba(209,225,240,0.741176)"/>
  <circle cx="8" cy="14" r="1" fill="rgba(200,218,237,0.745098)"/>
  <circle cx="9" cy="14" r="1" fill="rgba(192,213,234,0.74902)"/>
  <circle cx="10" cy="14" r="1" fill="rgba(189,211,233,0.752941)"/>
  <circle cx="11" cy="14" r="1" fill="rgba(219,231,243,0.823529)"/>
  <circle cx="12" cy="14" r="1" fill="rgba(25,93,127,0.466667)"/>
  <circle cx="13" cy="14" r="1" fill="rgba(255,255,255,0)"/>
  <circle cx="14" cy="14" r="1" fill="rgba(255,255,255,0)"/>
  <circle cx="15" cy="14" r="1" fill="rgba(255,255,255,0)"/>
  <circle cx="0" cy="15" r="1" fill="rgba(255,255,255,0)"/>
  <circle cx="1" cy="15" r="1" fill="rgba(255,255,255,0)"/>
  <circle cx="2" cy="15" r="1" fill="rgba(145,60,0,0.6)"/>
  <circle cx="3" cy="15" r="1" fill="rgba(124,39,0,0.8)"/>
  <circle cx="4" cy="15" r="1" fill="rgba(107,22,0,0.8)"/>
  <circle cx="5" cy="15" r="1" fill="rgba(105,21,0,0.8)"/>
  <circle cx="6" cy="15" r="1" fill="rgba(85,9,0,0.8)"/>
  <circle cx="7" cy="15" r="1" fill="rgba(65,0,0,0.8)"/>
  <circle cx="8" cy="15" r="1" fill="rgba(70,5,0,0.8)"/>
  <circle cx="9" cy="15" r="1" fill="rgba(85,17,0,0.8)"/>
  <circle cx="10" cy="15" r="1" fill="rgba(104,31,0,0.8)"/>
  <circle cx="11" cy="15" r="1" fill="rgba(124,46,0,0.8)"/>
  <circle cx="12" cy="15" r="1" fill="rgba(141,58,0,0.6)"/>
  <circle cx="13" cy="15" r="1" fill="rgba(255,255,255,0)"/>
  <circle cx="14" cy="15" r="1" fill="rgba(255,255,255,0)"/>
  <circle cx="15" cy="15" r="1" fill="rgba(255,255,255,0)"/>
</svg>
