<?xml version="1.0" encoding="UTF-8" standalone="no"?>
<!-- Generator: Adobe Illustrator 15.0.0, SVG Export Plug-In . SVG Version: 6.00 Build 0)  -->

<svg
   xmlns:dc="http://purl.org/dc/elements/1.1/"
   xmlns:cc="http://creativecommons.org/ns#"
   xmlns:rdf="http://www.w3.org/1999/02/22-rdf-syntax-ns#"
   xmlns:svg="http://www.w3.org/2000/svg"
   xmlns="http://www.w3.org/2000/svg"
   xmlns:sodipodi="http://sodipodi.sourceforge.net/DTD/sodipodi-0.dtd"
   xmlns:inkscape="http://www.inkscape.org/namespaces/inkscape"
   version="1.1"
   id="JASNOSC"
   x="0px"
   y="0px"
   width="113.39px"
   height="113.39px"
   viewBox="0 0 113.39 113.39"
   enable-background="new 0 0 113.39 113.39"
   xml:space="preserve"
   inkscape:version="0.48.5 r10040"
   sodipodi:docname="jasnosc.svg"><metadata
     id="metadata3565"><rdf:RDF><cc:Work
         rdf:about=""><dc:format>image/svg+xml</dc:format><dc:type
           rdf:resource="http://purl.org/dc/dcmitype/StillImage" /></cc:Work></rdf:RDF></metadata><defs
     id="defs3563" /><sodipodi:namedview
     pagecolor="#ffffff"
     bordercolor="#666666"
     borderopacity="1"
     objecttolerance="10"
     gridtolerance="10"
     guidetolerance="10"
     inkscape:pageopacity="0"
     inkscape:pageshadow="2"
     inkscape:window-width="640"
     inkscape:window-height="480"
     id="namedview3561"
     showgrid="false"
     inkscape:zoom="2.0813123"
     inkscape:cx="56.695"
     inkscape:cy="56.695"
     inkscape:window-x="0"
     inkscape:window-y="0"
     inkscape:window-maximized="0"
     inkscape:current-layer="JASNOSC" /><g
     id="j1"><g
       id="g3516"><path
         d="M77.212,56.075c-0.323,11.207-8.367,20.528-19.734,21.516c-11.825,1.028-20.906-9.115-21.231-20.367    c-0.323-11.183,8.851-20.57,19.732-21.516C67.805,34.68,76.887,44.822,77.212,56.075c0.084,2.901,5.891,4.339,5.799,1.149    c-0.417-14.433-11.362-25.087-25.533-26.319c-14.566-1.266-26.623,11.107-27.029,25.169c-0.416,14.4,11.986,25.141,25.53,26.319    c14.565,1.267,26.626-11.107,27.032-25.169C83.095,54.315,77.306,52.851,77.212,56.075z"
         id="path3518" /></g></g><g
     id="j2"><g
       id="g3521"><path
         d="M60.229,23.92c0-6.843,0-13.687,0-20.53c0-4.514-7-4.514-7,0c0,6.843,0,13.687,0,20.53    C53.228,28.434,60.229,28.434,60.229,23.92L60.229,23.92z"
         id="path3523" /></g></g><g
     id="j3"><g
       id="g3526"><path
         d="M60.229,110.32c0-6.844,0-13.687,0-20.53c0-4.514-7-4.514-7,0c0,6.844,0,13.687,0,20.53    C53.229,114.834,60.229,114.834,60.229,110.32L60.229,110.32z"
         id="path3528" /></g></g><g
     id="j4"><g
       id="g3531"><path
         d="M23.794,53.149c-6.843,0-13.687,0-20.53,0c-4.514,0-4.514,7,0,7c6.843,0,13.687,0,20.53,0    C28.309,60.148,28.309,53.149,23.794,53.149L23.794,53.149z"
         id="path3533" /></g></g><g
     id="j5"><g
       id="g3536"><path
         d="M110.194,53.149c-6.844,0-13.687,0-20.53,0c-4.514,0-4.514,7,0,7c6.844,0,13.687,0,20.53,0    C114.708,60.148,114.708,53.149,110.194,53.149L110.194,53.149z"
         id="path3538" /></g></g><g
     id="j6"><g
       id="g3541"><path
         d="M34.562,30.958c-4.839-4.839-9.678-9.678-14.517-14.517c-3.195-3.194-8.145,1.755-4.95,4.95    c4.839,4.839,9.678,9.678,14.517,14.517C32.807,39.103,37.756,34.153,34.562,30.958L34.562,30.958z"
         id="path3543" /></g></g><g
     id="j7"><g
       id="g3546"><path
         d="M95.656,92.053c-4.839-4.84-9.679-9.68-14.519-14.519c-3.194-3.195-8.145,1.755-4.949,4.949    c4.839,4.84,9.679,9.68,14.519,14.519C93.901,100.197,98.852,95.247,95.656,92.053L95.656,92.053z"
         id="path3548" /></g></g><g
     id="j8"><g
       id="g3551"><path
         d="M29.467,77.39c-4.839,4.839-9.679,9.678-14.518,14.518c-3.194,3.194,1.755,8.144,4.95,4.949    c4.839-4.839,9.679-9.678,14.518-14.518C37.611,79.145,32.662,74.195,29.467,77.39L29.467,77.39z"
         id="path3553" /></g></g><g
     id="j9"><g
       id="g3556"><path
         d="M90.562,16.295c-4.84,4.839-9.68,9.678-14.519,14.517c-3.195,3.195,1.755,8.145,4.949,4.95    c4.84-4.839,9.68-9.678,14.519-14.517C98.706,18.05,93.756,13.101,90.562,16.295L90.562,16.295z"
         id="path3558" /></g></g><path
     id="J10"
     fill="#010101"
     d="M64.785,42.375c-9.857-6.696-29.226,7.291-20.285,24.75c2.681,3.671,5,3.875,5,3.875  c-1.813,0-6.073-1.691-8.842-7.763c-1.668-7.234-1.491-16.57,10.405-23.175C60.875,36.583,64.785,42.375,64.785,42.375" /><path
     style="fill:#ffffff;stroke:#ffffff;stroke-width:0.4804661"
     d="m 2.7188596,59.815829 c -2.34246236,-0.451745 -3.28255998,-3.710248 -1.565741,-5.427067 0.9072001,-0.9072 1.6015537,-0.960932 12.4176524,-0.960932 10.30445,0 11.532333,0.08457 12.208522,0.840816 1.655663,1.851696 1.068219,4.583213 -1.152136,5.357232 -1.449922,0.505446 -19.4625174,0.66162 -21.9082974,0.189951 l 0,0 z"
     id="path3567"
     inkscape:connector-curvature="0" /><path
     style="fill:#ffffff;stroke:#ffffff;stroke-width:0.4804661"
     d="m 23.130192,29.044176 c -4.201671,-4.162038 -7.931902,-8.122863 -8.289403,-8.801834 -1.305805,-2.480003 1.576244,-5.362053 4.056248,-4.056248 0.678971,0.357501 4.639796,4.087732 8.801834,8.289403 8.125863,8.203241 8.622061,9.055793 6.455325,11.091336 -2.122534,1.994017 -2.876707,1.547789 -11.024004,-6.522657 z"
     id="path3569"
     inkscape:connector-curvature="0" /><path
     style="fill:#ffffff;stroke:#ffffff;stroke-width:0.4804661"
     d="m 77.241691,36.049568 c -1.613244,-0.781146 -2.232372,-2.589429 -1.419481,-4.145869 1.174369,-2.24856 15.90237,-16.432691 17.062779,-16.432691 1.363602,0 3.400417,2.064307 3.400417,3.446314 0,0.767637 -2.443091,3.530754 -8.303266,9.390929 -4.566797,4.566796 -8.620729,8.288633 -9.008739,8.270748 -0.388011,-0.01788 -1.16728,-0.256129 -1.73171,-0.529431 z"
     id="path3571"
     inkscape:connector-curvature="0" /><path
     style="fill:#ffffff;stroke:#ffffff;stroke-width:0.4804661"
     d="m 54.484856,26.041263 c -0.9072,-0.907201 -0.960933,-1.601554 -0.960933,-12.417653 0,-12.3003402 4.86e-4,-12.3028483 2.557253,-13.21253008 0.905143,-0.32204393 2.702027,0.39130783 3.3211,1.31845578 0.194146,0.2907602 0.356303,5.7594812 0.360349,12.1527133 0.0073,11.4713 -0.0067,11.633888 -1.060481,12.372002 -1.456515,1.020183 -3.06537,0.93893 -4.217288,-0.212988 z"
     id="path3573"
     inkscape:connector-curvature="0" /><path
     style="fill:#ffffff;stroke:#ffffff;stroke-width:0.4804661"
     d="m 89.078415,59.826473 c -2.449354,-0.944714 -3.179584,-3.699525 -1.441399,-5.437711 0.907201,-0.9072 1.601554,-0.960932 12.417654,-0.960932 10.48889,0 11.52389,0.07422 12.25188,0.878648 1.11582,1.23296 1.00802,3.584247 -0.21512,4.692362 -0.92216,0.835439 -1.93855,0.923584 -11.6513,1.010444 -5.852561,0.05234 -10.965331,-0.02993 -11.361715,-0.182811 z"
     id="path3575"
     inkscape:connector-curvature="0" /><path
     style="fill:#ffffff;stroke:#ffffff;stroke-width:0.4804661"
     d="M 83.688839,89.567237 C 75.070162,80.94856 74.501288,80.01661 76.586296,77.931601 c 2.085009,-2.085008 3.016959,-1.516134 11.635636,7.102543 8.618676,8.618676 9.187551,9.550627 7.102542,11.635635 -2.085009,2.085009 -3.016959,1.516134 -11.635635,-7.102542 z"
     id="path3577"
     inkscape:connector-curvature="0" /><path
     style="fill:#ffffff;stroke:#ffffff;stroke-width:0.4804661"
     d="m 54.568608,112.37408 c -1.011712,-1.07692 -1.044685,-1.4701 -1.044685,-12.457249 l 0,-11.345231 1.265961,-0.995804 c 1.512807,-1.189975 2.479743,-1.251235 3.91226,-0.247861 1.054833,0.738833 1.067839,0.893578 1.067839,12.705105 0,11.81153 -0.01301,11.96628 -1.067839,12.70511 -1.505152,1.05425 -2.917998,0.92981 -4.133536,-0.36407 z"
     id="path3579"
     inkscape:connector-curvature="0" /><path
     style="fill:#ffffff;stroke:#ffffff;stroke-width:0.4804661"
     d="m 15.305029,96.451386 c -0.648629,-0.64863 -1.179326,-1.648121 -1.179326,-2.221092 0,-1.160409 14.184131,-15.88841 16.432691,-17.062779 1.009394,-0.527182 1.563044,-0.55716 2.489973,-0.134823 1.51556,0.690535 2.483113,2.876609 1.813974,4.098464 -0.266386,0.486424 -4.028925,4.397815 -8.361198,8.691981 -5.442276,5.394405 -8.207564,7.807574 -8.946824,7.807574 -0.58848,0 -1.600661,-0.530696 -2.24929,-1.179325 z"
     id="path3581"
     inkscape:connector-curvature="0" /><path
     style="fill:#ffffff;stroke:#ffffff;stroke-width:0.4804661"
     d="m 53.560048,81.733405 c -6.167949,-1.210131 -11.16059,-3.836498 -15.405796,-8.104187 -3.235978,-3.253116 -5.755344,-7.376949 -6.718174,-10.996663 -0.891937,-3.353197 -0.693206,-9.493928 0.422285,-13.048454 2.689875,-8.571324 9.734784,-15.599629 17.818283,-17.77629 2.594294,-0.698571 7.96021,-0.706477 11.512174,-0.01696 7.71901,1.498431 15.405303,7.480573 18.815666,14.643985 3.624348,7.61289 3.575331,14.038713 -0.164084,21.509833 -5.121759,10.232963 -15.81295,15.842398 -26.280354,13.788737 z m 7.129243,-4.542339 c 4.003735,-0.943737 7.073238,-2.646762 10.083689,-5.594642 4.280971,-4.191993 7.226665,-12.113481 6.48104,-17.428651 -1.041333,-7.423114 -5.336552,-13.678426 -11.546742,-16.816018 -3.757604,-1.898464 -9.929509,-2.263372 -14.395506,-0.851118 -5.434705,1.718581 -10.625567,6.07186 -13.02267,10.921367 -1.662859,3.36408 -2.191835,6.22827 -1.977648,10.708163 0.173452,3.627917 0.451605,4.767932 1.915377,7.85022 3.431792,7.226379 10.02271,11.781794 17.218957,11.90115 1.189153,0.01972 3.54873,-0.290988 5.243503,-0.690471 l 0,0 z"
     id="path3583"
     inkscape:connector-curvature="0" /><path
     style="fill:#ffffff;stroke:#ffffff;stroke-width:0.4804661"
     d="M 51.295171,80.862709 C 43.29921,78.574181 36.84673,73.338597 33.256175,66.225746 c -4.892472,-9.691932 -0.915239,-23.294018 8.848322,-30.26115 4.817865,-3.437957 7.408789,-4.265134 13.341291,-4.259332 8.023813,0.0078 13.152803,2.163994 19.031624,8.000602 6.621129,6.573582 9.340072,15.33721 7.099755,22.883732 C 77.408161,76.632932 64.252774,84.571306 51.295171,80.862709 z M 61.470785,77.185917 C 68.687474,75.306703 73.663128,70.354294 76.336905,62.389251 78.224911,56.764977 77.793432,51.927334 74.892876,46.199172 72.089114,40.662163 66.188474,36.363614 60.72667,35.879252 l -2.638319,-0.23397 2.93625,0.679577 c 4.154978,0.961643 6.725037,2.410894 9.725573,5.48423 7.043851,7.214751 8.004783,17.634322 2.400312,26.027082 -3.099237,4.641145 -7.079625,7.435509 -12.640633,8.874144 -4.671704,1.208571 -8.436795,0.784766 -12.822404,-1.44331 -4.494754,-2.283526 -8.462132,-7.147647 -10.130292,-12.420032 -1.39598,-4.412135 -1.037329,-10.108497 0.896076,-14.232116 3.072219,-6.552512 9.445046,-11.354021 16.512089,-12.440779 l 3.123029,-0.480254 -3.217249,0.161208 c -6.436584,0.322519 -13.506137,5.231028 -16.756155,11.634078 -1.616546,3.184852 -1.64757,3.359537 -1.64757,9.276892 0,5.748086 0.0697,6.177377 1.486247,9.153947 2.599681,5.46267 7.245766,9.721149 12.344469,11.314614 2.778118,0.868228 7.734527,0.846648 11.172692,-0.04865 z M 48.479029,70.303228 c -2.473707,-1.541574 -3.969284,-3.548043 -5.057844,-6.78561 -2.767124,-8.229914 1.33593,-17.27808 9.538121,-21.033717 3.448802,-1.579146 6.946744,-1.905735 9.40598,-0.878201 2.327036,0.972298 2.978923,0.97798 2.183065,0.01903 -2.780987,-3.350884 -10.681032,-3.679062 -15.421467,-0.640628 -2.772046,1.776774 -6.256136,5.454092 -7.514423,7.931173 -3.952941,7.781815 -1.615203,18.090636 4.825378,21.278671 2.528433,1.251552 4.000628,1.330371 2.04119,0.109281 l 0,0 z"
     id="path3585"
     inkscape:connector-curvature="0" /><path
     style="fill:#ffffff;stroke:#ffffff;stroke-width:0.4804661"
     d="M 55.926254,81.704562 C 47.47391,80.943634 39.719602,76.343429 35.050528,69.320138 31.868847,64.534207 31.295827,62.658737 31.295882,57.031326 c 5.6e-5,-5.828396 1.096655,-9.48425 4.283977,-14.281961 5.534083,-8.330171 13.656495,-12.176959 23.172489,-10.97453 6.386855,0.807035 10.381446,2.708051 15.140597,7.205373 3.623798,3.424432 5.719581,6.696864 7.29551,11.391477 1.985233,5.913906 1.603685,10.855417 -1.288365,16.68594 -4.922648,9.924318 -14.106514,15.535247 -23.973836,14.646937 z m 0.120116,-4.091164 c -0.33032,-0.133287 -0.870844,-0.133287 -1.201165,0 -0.33032,0.133287 -0.06006,0.24234 0.600583,0.24234 0.660641,0 0.930903,-0.109053 0.600582,-0.24234 z M 51.361826,76.777452 C 44.804733,74.698273 40.279837,70.345881 37.831769,63.763205 c -0.59075,-1.588482 -1.085356,-2.417389 -1.099125,-1.842014 -0.04262,1.780882 3.257499,7.474596 5.882951,10.149898 2.618621,2.668343 7.411462,5.369621 9.46693,5.335629 0.927164,-0.01533 0.762763,-0.158878 -0.720699,-0.629266 l 0,0 z m 8.528273,0.35548 c -0.33032,-0.133287 -0.870845,-0.133287 -1.201165,0 -0.33032,0.133287 -0.06006,0.24234 0.600583,0.24234 0.660641,0 0.930903,-0.109053 0.600582,-0.24234 z m 5.488046,-1.60084 c 3.036855,-1.517534 6.270524,-4.454738 7.959086,-7.229391 1.190498,-1.956231 0.758098,-1.558068 -1.777627,1.636881 -2.046728,2.578824 -5.580845,5.039032 -8.906825,6.200316 -1.274916,0.445144 -1.749996,0.770473 -1.157789,0.79284 0.552368,0.02086 2.299789,-0.609429 3.883155,-1.400646 z M 46.604096,68.794708 C 42.442806,64.958964 41.324117,57.313841 44.052186,51.354951 47.43967,43.955712 55.995192,39.39547 62.397072,41.57681 c 2.865651,0.976425 2.714206,0.09417 -0.257689,-1.501185 -1.861983,-0.99954 -2.620351,-1.118863 -6.043364,-0.950877 -3.422128,0.167943 -4.259275,0.39955 -6.659161,1.842343 -7.038132,4.23127 -10.520848,11.318051 -9.430127,19.188831 0.602572,4.348233 2.570819,7.553136 5.876199,9.568231 2.632051,1.604606 2.981579,1.154131 0.721166,-0.929445 z M 76.919255,57.881286 c -0.121819,-0.467478 -0.229501,-0.201331 -0.239292,0.591438 -0.0098,0.792769 0.08988,1.175251 0.221489,0.84996 0.13161,-0.325291 0.139622,-0.97392 0.0178,-1.441398 l 2e-6,0 z m -0.0018,-5.294271 c -0.120851,-0.462449 -0.219728,-0.08408 -0.219728,0.840815 0,0.924897 0.09888,1.303265 0.219728,0.840816 0.12085,-0.462449 0.12085,-1.219183 0,-1.681631 z M 39.960328,45.688542 c 1.489226,-2.395597 4.790552,-5.400028 7.798002,-7.096712 1.45341,-0.819956 2.426354,-1.49083 2.162098,-1.49083 -1.230608,0 -5.553412,3.04531 -8.058654,5.677125 -2.733911,2.872036 -5.151173,7.09117 -5.138066,8.968074 0.0037,0.528513 0.505477,-0.251545 1.115082,-1.733462 0.609604,-1.481916 1.564296,-3.427804 2.121538,-4.324195 l 0,0 z m 36.143229,4.033778 c -0.523518,-0.816451 -0.537077,-0.815403 -0.274238,0.02119 0.152081,0.484062 0.29358,1.132691 0.314442,1.441399 0.02738,0.405109 0.103684,0.399212 0.274238,-0.02119 0.129969,-0.320364 -0.01153,-0.968993 -0.314442,-1.441398 z m -1.594778,-3.815036 c -1.711393,-3.377272 -7.860472,-8.900717 -9.790159,-8.794066 -0.211315,0.01168 0.48063,0.476745 1.537655,1.033481 2.592346,1.365389 6.996633,5.947266 8.122987,8.450521 0.503797,1.11966 1.004805,1.946936 1.113351,1.838389 0.108547,-0.108546 -0.334179,-1.246292 -0.983834,-2.528325 z"
     id="path3587"
     inkscape:connector-curvature="0" /><path
     style="fill:#ffffff;stroke:#ffffff;stroke-width:0.4804661"
     d="M 52.178825,81.17296 C 41.868318,78.736765 33.064615,70.151565 31.376417,60.886858 29.025621,47.985865 38.893198,33.81723 51.661606,31.759805 c 5.727843,-0.922951 12.757938,0.375631 17.237233,3.184019 6.481342,4.063615 11.457338,10.686341 12.996848,17.297968 2.676422,11.494217 -5.491771,25.012544 -17.276138,28.591935 -4.183105,1.270578 -8.052521,1.376089 -12.440724,0.339233 z m -5.85825,-12.490331 c -2.595358,-2.611647 -3.52813,-5.279127 -3.570223,-10.209905 -0.03186,-3.732446 0.139298,-4.700156 1.25076,-7.071531 2.849783,-6.080188 8.564419,-10.147752 14.327472,-10.198012 1.717667,-0.01498 3.771659,0.138222 4.564428,0.34045 l 1.441399,0.367686 -1.127732,-0.962969 c -3.039388,-2.59533 -10.055103,-2.421685 -14.064694,0.348114 -5.910532,4.082959 -8.652888,8.593805 -8.976836,14.765822 -0.295544,5.630856 0.703839,8.779675 3.754873,11.830708 1.293133,1.293134 2.711416,2.351152 3.15174,2.351152 0.593053,0 0.398322,-0.404793 -0.751187,-1.561515 z M 38.134294,48.863402 c 0,-0.264256 -0.209588,-0.156151 -0.465752,0.240233 -0.256163,0.396385 -0.465751,0.936909 -0.465751,1.201166 0,0.264256 0.209588,0.156151 0.465751,-0.240233 0.256164,-0.396385 0.465752,-0.936909 0.465752,-1.201166 z m 0.882855,-1.934578 c -0.147929,-0.147929 -0.416587,0.118729 -0.597017,0.592575 -0.260742,0.684759 -0.205554,0.739948 0.268962,0.268962 0.32836,-0.325916 0.475984,-0.713607 0.328055,-0.861537 l 0,0 z"
     id="path3589"
     inkscape:connector-curvature="0" /><path
     style="fill:#ffffff;stroke:#ffffff;stroke-width:0.4804661"
     d="m 42.290708,64.874333 c -2.134731,-3.258012 -2.132309,-10.620712 0.005,-15.138571 1.461588,-3.089543 5.320075,-7.026749 8.431327,-8.60334 2.601313,-1.318185 6.715983,-1.888962 8.802735,-1.221093 1.431247,0.458073 1.427556,0.461613 -0.524222,0.502619 -6.976415,0.146574 -13.925062,5.580933 -16.109205,12.598599 -1.079922,3.469796 -1.138139,6.457812 -0.19488,10.002262 0.788316,2.962226 0.668174,3.506147 -0.410735,1.859524 z"
     id="path3591"
     inkscape:connector-curvature="0" /></svg>