<?xml version="1.0" encoding="UTF-8" standalone="no"?>
<!-- Generator: Adobe Illustrator 16.0.4, SVG Export Plug-In . SVG Version: 6.00 Build 0)  -->

<svg
   xmlns:dc="http://purl.org/dc/elements/1.1/"
   xmlns:cc="http://creativecommons.org/ns#"
   xmlns:rdf="http://www.w3.org/1999/02/22-rdf-syntax-ns#"
   xmlns:svg="http://www.w3.org/2000/svg"
   xmlns="http://www.w3.org/2000/svg"
   xmlns:sodipodi="http://sodipodi.sourceforge.net/DTD/sodipodi-0.dtd"
   xmlns:inkscape="http://www.inkscape.org/namespaces/inkscape"
   version="1.1"
   id="Layer_1"
   x="0px"
   y="0px"
   width="43.395px"
   height="106.898px"
   viewBox="0 0 43.395 106.898"
   enable-background="new 0 0 43.395 106.898"
   xml:space="preserve"
   inkscape:version="0.48.5 r10040"
   sodipodi:docname="mirror.svg"><metadata
     id="metadata3652"><rdf:RDF><cc:Work
         rdf:about=""><dc:format>image/svg+xml</dc:format><dc:type
           rdf:resource="http://purl.org/dc/dcmitype/StillImage" /></cc:Work></rdf:RDF></metadata><defs
     id="defs3650" /><sodipodi:namedview
     pagecolor="#ffffff"
     bordercolor="#666666"
     borderopacity="1"
     objecttolerance="10"
     gridtolerance="10"
     guidetolerance="10"
     inkscape:pageopacity="0"
     inkscape:pageshadow="2"
     inkscape:window-width="640"
     inkscape:window-height="480"
     id="namedview3648"
     showgrid="false"
     inkscape:zoom="2.207712"
     inkscape:cx="21.6975"
     inkscape:cy="53.449001"
     inkscape:window-x="0"
     inkscape:window-y="0"
     inkscape:window-maximized="0"
     inkscape:current-layer="Layer_1" /><path
     d="M42.813,92.821c-0.332,0.302-0.752,0.449-1.169,0.449c-0.479,0-0.957-0.192-1.302-0.578l-7.481-8.312l-7.779,8.337  c-0.346,0.368-0.812,0.555-1.278,0.555c-0.427,0-0.857-0.154-1.193-0.471c-0.707-0.659-0.746-1.769-0.086-2.476l9.082-9.731  c0.02-0.021,0.045-0.027,0.063-0.046c0.02-0.021,0.024-0.045,0.045-0.062c0.057-0.049,0.125-0.065,0.183-0.104v-5.647l-17.5,17.5  v-4.947l16.981-16.983l-11.246,7.065l-5.736-22.046v-3.476v-3.474l6.829,26.243l10.671-6.707l3.5-2.201l3.562-2.238l-3.562-13.374  l-3.5-13.143L22.726,2.52L2.285,1.83l10.86,41.739c-0.314-0.266-0.672-0.478-1.065-0.62c-0.304-0.11-0.621-0.176-0.955-0.198L0,0  l24.083,0.813l8.476,31.825c0.302-0.245,0.669-0.411,1.087-0.411c0.966,0,1.75,0.784,1.75,1.75v9.317l5.584,20.972l-5.584,3.509  v13.452c0,0.212-0.051,0.41-0.121,0.601l7.669,8.522C43.591,91.067,43.535,92.176,42.813,92.821z M14.316,95.957l-0.027-0.029  l-1.516-1.684c-0.018-0.021-0.042-0.026-0.062-0.048c-0.02-0.019-0.026-0.045-0.045-0.062c-0.005-0.009-0.015-0.009-0.021-0.017  V93.96v-4.928V48.595v-2.368c0-0.707-0.423-1.311-1.028-1.585c-0.222-0.102-0.463-0.165-0.722-0.165c-0.968,0-1.75,0.784-1.75,1.75  v49c0,0.033,0.019,0.062,0.02,0.097l-0.008,0.008l-1.371,1.469l-6.675,7.15c-0.659,0.707-0.62,1.813,0.085,2.475  c0.337,0.314,0.768,0.472,1.194,0.472c0.467,0,0.936-0.187,1.279-0.556l7.115-7.623l0.667-0.715l0.491,0.549l6.989,7.767  c0.345,0.387,0.823,0.579,1.302,0.579c0.417,0,0.836-0.147,1.169-0.448c0.72-0.646,0.777-1.755,0.13-2.473L14.316,95.957z   M26.475,36.999c0.17-0.384-1.844-1.648-4.497-2.823s-4.942-1.816-5.113-1.431c-0.171,0.384,1.843,1.647,4.497,2.822  C24.017,36.743,26.305,37.383,26.475,36.999z M16.188,36.344c-0.17,0.384,2.812,2.077,6.661,3.781  c3.85,1.704,7.106,2.772,7.276,2.389s-2.812-2.077-6.661-3.781C19.617,37.028,16.358,35.959,16.188,36.344z"
     id="path3646" /><path
     style="fill:#ffffff;stroke:#ffffff;stroke-width:0.45295763"
     d="m 1.3446037,106.23366 c -0.80276845,-0.80276 0.020946,-2.14327 3.774647,-6.1428 l 4.0766187,-4.343615 0,-24.898503 c 0,-26.546454 -0.024596,-26.248115 2.1297896,-25.833358 0.770252,0.148288 0.820789,1.487352 0.931556,24.683091 l 0.117121,24.526298 4.752173,5.262498 c 2.613696,2.894379 4.752174,5.435529 4.752174,5.647019 0,0.74062 -1.322991,1.47343 -2.129812,1.17971 -0.447927,-0.16306 -2.421152,-2.1163 -4.384945,-4.34052 -1.963793,-2.224222 -3.731092,-4.044039 -3.927333,-4.044039 -0.19624,0 -2.1376685,1.936394 -4.3142844,4.303099 -3.6111876,3.92656 -4.9353053,4.84352 -5.7777049,4.00112 l 0,0 z"
     id="path3654"
     inkscape:connector-curvature="0" /><path
     style="fill:#ffffff;stroke:#ffffff;stroke-width:0.45295763"
     d="m 22.55335,92.025963 c -0.228463,-0.719822 0.49741,-1.783208 3.323801,-4.869295 1.988853,-2.171592 4.246876,-4.547019 5.017827,-5.278727 1.308768,-1.242146 1.401731,-1.542262 1.401731,-4.525219 l 0,-3.194846 -8.832674,8.823963 -8.832674,8.823964 0,-2.256078 0,-2.256073 8.488485,-8.497313 c 4.668667,-4.673522 8.286666,-8.490746 8.039998,-8.482715 -0.246668,0.008 -2.791927,1.511814 -5.656131,3.341745 L 20.296068,76.982515 17.470455,66.280209 C 15.47827,58.7346 14.676254,54.909894 14.75134,53.313114 c 0.09205,-1.957515 0.505952,-0.708983 3.050725,9.202523 1.619323,6.307018 3.068107,11.67366 3.21952,11.925872 C 21.316028,74.931962 39.082733,64.009654 39.087988,63.334951 39.094369,62.515651 23.13058,3.019334 22.81313,2.6792992 22.548854,2.3962217 2.4256716,1.3891093 2.0825636,1.6417889 2.0317094,1.6792402 4.4058166,10.976554 7.3583575,22.302485 10.310898,33.628417 12.681682,42.94394 12.626767,43.003648 12.571851,43.063355 12.211884,42.859524 11.826842,42.55069 11.397701,42.206486 9.1766713,34.451307 6.087896,22.511995 3.3165185,11.799546 0.86017932,2.3800122 0.62936456,1.5796963 L 0.2097014,0.12457644 3.6836307,0.33332826 c 1.9106611,0.11481349 7.2448013,0.33133485 11.8536453,0.4811586 l 8.379717,0.27240684 3.806582,14.3362113 c 2.09362,7.884916 3.985059,14.985703 4.203197,15.779525 0.305298,1.111004 0.680339,1.476016 1.628909,1.585351 l 1.232295,0.142039 0.28708,5.88845 c 0.255964,5.250184 0.562711,6.894943 2.829959,15.17408 1.398583,5.107098 2.54334,9.525663 2.543905,9.819035 5.64e-4,0.293367 -1.221959,1.276326 -2.716719,2.184343 l -2.717746,1.650944 0,7.164866 0,7.164871 4.12362,4.583039 c 4.109328,4.567158 4.569389,5.581787 2.833051,6.248084 -0.56516,0.216871 -1.863175,-0.876895 -4.984459,-4.200132 l -4.220303,-4.493367 -4.128687,4.416337 c -4.146862,4.435778 -5.533099,5.232159 -6.084327,3.495393 l 0,0 z"
     id="path3656"
     inkscape:connector-curvature="0" /><path
     style="fill:#ffffff;stroke:#ffffff;stroke-width:0.45295763"
     d=""
     id="path3658"
     inkscape:connector-curvature="0" /><path
     style="fill:#ffffff;stroke:#ffffff;stroke-width:0.45295763"
     d=""
     id="path3660"
     inkscape:connector-curvature="0" /><path
     style="fill:#ffffff;stroke:#ffffff;stroke-width:0.45295763"
     d=""
     id="path3662"
     inkscape:connector-curvature="0" /><path
     style="fill:#ffffff;stroke:#ffffff;stroke-width:0.45295763"
     d=""
     id="path3664"
     inkscape:connector-curvature="0" /><path
     style="fill:#ffffff;stroke:#ffffff;stroke-width:0.45295763"
     d=""
     id="path3666"
     inkscape:connector-curvature="0" /><path
     style="fill:#ffffff;stroke:#ffffff;stroke-width:0.45295763"
     d=""
     id="path3668"
     inkscape:connector-curvature="0" /><path
     style="fill:#ffffff;stroke:#ffffff;stroke-width:0.45295763"
     d=""
     id="path3670"
     inkscape:connector-curvature="0" /><path
     style="fill:#ffffff;stroke:#ffffff;stroke-width:0.45295763"
     d=""
     id="path3672"
     inkscape:connector-curvature="0" /><path
     style="fill:#ffffff;stroke:#ffffff;stroke-width:0.45295763"
     d=""
     id="path3674"
     inkscape:connector-curvature="0" /><path
     style="fill:#ffffff;stroke:#ffffff;stroke-width:0.45295763"
     d=""
     id="path3676"
     inkscape:connector-curvature="0" /><path
     style="fill:#ffffff;stroke:#ffffff;stroke-width:0.45295763"
     d=""
     id="path3678"
     inkscape:connector-curvature="0" /><path
     style="fill:#ffffff;stroke:#ffffff;stroke-width:0.45295763"
     d=""
     id="path3680"
     inkscape:connector-curvature="0" /><path
     style="fill:#ffffff;stroke:#ffffff;stroke-width:0.45295763"
     d=""
     id="path3682"
     inkscape:connector-curvature="0" /><path
     style="fill:#ffffff;stroke:#ffffff;stroke-width:0.45295763"
     d="m 24.143471,40.257321 c -4.18489,-1.840801 -6.294337,-2.982111 -5.556022,-3.006068 0.741087,-0.02405 8.732973,3.43059 9.339588,4.037205 0.812187,0.812187 -0.252738,0.521962 -3.783566,-1.031137 z"
     id="path3684"
     inkscape:connector-curvature="0" /><path
     style="fill:#ffffff;stroke:#ffffff;stroke-width:0.45295763"
     d=""
     id="path3686"
     inkscape:connector-curvature="0" /><path
     style="fill:#ffffff;stroke:#ffffff;stroke-width:0.45295763"
     d="m 25.257241,40.826643 c -0.164213,-0.265701 -0.201423,-0.580238 -0.08269,-0.698971 0.118733,-0.118733 0.336577,0.09866 0.484099,0.483093 0.306282,0.79816 0.04523,0.938555 -0.401409,0.215878 z M 22.366442,39.16692 c -0.547195,-1.200961 -0.5384,-1.214123 0.302678,-0.452957 0.476436,0.431169 1.104986,0.783943 1.396778,0.783943 0.291792,0 0.530531,0.203831 0.530531,0.452958 0,0.983834 -1.696227,0.387532 -2.229987,-0.783944 z"
     id="path3688"
     inkscape:connector-curvature="0" /><path
     style="fill:#ffffff;stroke:#ffffff;stroke-width:0.45295763"
     d=""
     id="path3690"
     inkscape:connector-curvature="0" /><path
     style="fill:#ffffff;stroke:#ffffff;stroke-width:0.45295763"
     d="m 21.199247,34.993302 c -1.993014,-0.967851 -3.312164,-1.777071 -2.931446,-1.798266 0.759648,-0.04229 7.234543,2.947856 7.234543,3.340957 0,0.460003 -0.684294,0.214678 -4.303097,-1.542691 z"
     id="path3692"
     inkscape:connector-curvature="0" /></svg>