<?xml version="1.0" encoding="UTF-8" standalone="no"?>
<svg
   xmlns:dc="http://purl.org/dc/elements/1.1/"
   xmlns:cc="http://creativecommons.org/ns#"
   xmlns:rdf="http://www.w3.org/1999/02/22-rdf-syntax-ns#"
   xmlns:svg="http://www.w3.org/2000/svg"
   xmlns="http://www.w3.org/2000/svg"
   xmlns:sodipodi="http://sodipodi.sourceforge.net/DTD/sodipodi-0.dtd"
   xmlns:inkscape="http://www.inkscape.org/namespaces/inkscape"
   version="1.1"
   id="STRZALKA"
   x="0px"
   y="0px"
   width="113.391px"
   height="113.391px"
   viewBox="0 0 113.391 113.391"
   enable-background="new 0 0 113.391 113.391"
   xml:space="preserve"
   inkscape:version="0.48.5 r10040"
   sodipodi:docname="nav_down_white.svg"><metadata
     id="metadata3045"><rdf:RDF><cc:Work
         rdf:about=""><dc:format>image/svg+xml</dc:format><dc:type
           rdf:resource="http://purl.org/dc/dcmitype/StillImage" /><dc:title></dc:title></cc:Work></rdf:RDF></metadata><defs
     id="defs3043" /><sodipodi:namedview
     pagecolor="#ffffff"
     bordercolor="#666666"
     borderopacity="1"
     objecttolerance="10"
     gridtolerance="10"
     guidetolerance="10"
     inkscape:pageopacity="0"
     inkscape:pageshadow="2"
     inkscape:window-width="1366"
     inkscape:window-height="721"
     id="namedview3041"
     showgrid="false"
     inkscape:zoom="3.3424984"
     inkscape:cx="-32.073385"
     inkscape:cy="48.27296"
     inkscape:window-x="-3"
     inkscape:window-y="-3"
     inkscape:window-maximized="1"
     inkscape:current-layer="STRZALKA" /><polyline
     id="L1"
     points="113.39,66.385 30.683,66.385 53.892,90.889 30.208,90.889 0.079,56.695 30.208,22.501 54.087,22.501   30.683,47.005 113.39,47.005 "
     transform="matrix(0,1,-1,0,113.4295,-0.0395)" /><path
     style="fill:#ffffff"
     d="M 47.134882,71.845665 47.059039,30.345891 35.226507,41.57415 C 28.718614,47.749693 23.232449,52.902236 23.035028,53.02425 22.758264,53.195299 22.67608,50.617167 22.67608,41.763984 l 0,-11.482105 16.893176,-14.874914 C 48.860502,7.2257626 56.56806,0.51569931 56.697161,0.49571339 56.826265,0.4757275 64.568091,7.1788501 73.90122,15.391541 l 16.969331,14.932166 0.009,11.593124 c 0.0049,6.376219 -0.04784,11.593125 -0.117293,11.593125 -0.06946,0 -5.555622,-5.183722 -12.191479,-11.519384 l -12.065184,-11.51938 -0.07585,41.437121 -0.07584,41.437127 -9.571577,0 -9.571578,0 -0.07584,-41.499775 z"
     id="path3114"
     inkscape:connector-curvature="0" /></svg>