<?xml version="1.0" encoding="UTF-8" standalone="no"?>
<svg
   xmlns:dc="http://purl.org/dc/elements/1.1/"
   xmlns:cc="http://creativecommons.org/ns#"
   xmlns:rdf="http://www.w3.org/1999/02/22-rdf-syntax-ns#"
   xmlns:svg="http://www.w3.org/2000/svg"
   xmlns="http://www.w3.org/2000/svg"
   xmlns:sodipodi="http://sodipodi.sourceforge.net/DTD/sodipodi-0.dtd"
   xmlns:inkscape="http://www.inkscape.org/namespaces/inkscape"
   version="1.1"
   id="STRZALKA"
   x="0px"
   y="0px"
   width="113.391px"
   height="113.391px"
   viewBox="0 0 113.391 113.391"
   enable-background="new 0 0 113.391 113.391"
   xml:space="preserve"
   inkscape:version="0.48.5 r10040"
   sodipodi:docname="nav_down_white.svg"><metadata
     id="metadata3045"><rdf:RDF><cc:Work
         rdf:about=""><dc:format>image/svg+xml</dc:format><dc:type
           rdf:resource="http://purl.org/dc/dcmitype/StillImage" /></cc:Work></rdf:RDF></metadata><defs
     id="defs3043" /><sodipodi:namedview
     pagecolor="#ffffff"
     bordercolor="#666666"
     borderopacity="1"
     objecttolerance="10"
     gridtolerance="10"
     guidetolerance="10"
     inkscape:pageopacity="0"
     inkscape:pageshadow="2"
     inkscape:window-width="1366"
     inkscape:window-height="721"
     id="namedview3041"
     showgrid="false"
     inkscape:zoom="3.3424984"
     inkscape:cx="-32.073385"
     inkscape:cy="48.27296"
     inkscape:window-x="-3"
     inkscape:window-y="-3"
     inkscape:window-maximized="1"
     inkscape:current-layer="STRZALKA" /><path
     style="fill:#ffffff"
     d="m 66.421062,41.995446 0.07584,41.499774 11.832532,-11.228259 c 6.507893,-6.175543 11.994058,-11.328086 12.191479,-11.4501 0.276764,-0.171049 0.358948,2.407083 0.358948,11.260266 l 0,11.482105 -16.893176,14.874914 c -9.291246,8.181204 -16.998804,14.891264 -17.127905,14.911244 -0.129104,0.02 -7.87093,-6.68313 -17.204059,-14.89582 L 22.685393,83.517404 22.676393,71.92428 c -0.0049,-6.376219 0.04784,-11.593125 0.117293,-11.593125 0.06946,0 5.555622,5.183722 12.191479,11.519384 l 12.065184,11.51938 0.07585,-41.437121 0.07584,-41.43712714 9.571577,0 9.571578,0 0.07584,41.49977514 z"
     id="path3114"
     inkscape:connector-curvature="0" /></svg>