<?xml version="1.0" encoding="UTF-8" standalone="no"?>
<!-- Generator: Adobe Illustrator 15.0.0, SVG Export Plug-In . SVG Version: 6.00 Build 0)  -->

<svg
   xmlns:dc="http://purl.org/dc/elements/1.1/"
   xmlns:cc="http://creativecommons.org/ns#"
   xmlns:rdf="http://www.w3.org/1999/02/22-rdf-syntax-ns#"
   xmlns:svg="http://www.w3.org/2000/svg"
   xmlns="http://www.w3.org/2000/svg"
   xmlns:sodipodi="http://sodipodi.sourceforge.net/DTD/sodipodi-0.dtd"
   xmlns:inkscape="http://www.inkscape.org/namespaces/inkscape"
   version="1.1"
   id="NEGATYW"
   x="0px"
   y="0px"
   width="113.39px"
   height="113.39px"
   viewBox="0 0 113.39 113.39"
   enable-background="new 0 0 113.39 113.39"
   xml:space="preserve"
   inkscape:version="0.48.5 r10040"
   sodipodi:docname="NEGATYW.svg"><metadata
     id="metadata4736"><rdf:RDF><cc:Work
         rdf:about=""><dc:format>image/svg+xml</dc:format><dc:type
           rdf:resource="http://purl.org/dc/dcmitype/StillImage" /></cc:Work></rdf:RDF></metadata><defs
     id="defs4734" /><sodipodi:namedview
     pagecolor="#ffffff"
     bordercolor="#666666"
     borderopacity="1"
     objecttolerance="10"
     gridtolerance="10"
     guidetolerance="10"
     inkscape:pageopacity="0"
     inkscape:pageshadow="2"
     inkscape:window-width="908"
     inkscape:window-height="591"
     id="namedview4732"
     showgrid="false"
     inkscape:zoom="2.0813123"
     inkscape:cx="56.695"
     inkscape:cy="56.695"
     inkscape:window-x="0"
     inkscape:window-y="0"
     inkscape:window-maximized="0"
     inkscape:current-layer="NEGATYW" /><rect
     id="n1"
     stroke="#FFFFFF"
     stroke-width="2"
     stroke-miterlimit="10"
     width="56.554"
     height="113.39" /><rect
     id="n2"
     x="56.695"
     fill="#FFFFFF"
     stroke="#000000"
     stroke-width="2"
     stroke-miterlimit="10"
     width="56.695"
     height="113.39" /><rect
     id="n3"
     x="28.008"
     y="28.348"
     fill="#FFFFFF"
     width="28.346"
     height="56.693" /><rect
     id="n4"
     x="56.354"
     y="28.382"
     width="28.346"
     height="56.693" /><path
     style="fill:#ffffff;stroke:#ffffff;stroke-width:0.4804661"
     d="m 1.4413983,56.646953 0,-55.4938344 26.9061017,0 26.906101,0 0,13.4530504 0,13.453051 -13.693283,0 -13.693284,0 0,28.587733 0,28.587733 13.693284,0 13.693283,0 0,13.453051 0,13.453053 -26.906101,0 -26.9061017,0 0,-55.493837 z"
     id="path4738"
     inkscape:connector-curvature="0" /><path
     style="fill:#000000;stroke:#ffffff;stroke-width:0.48046610000000001"
     d="m 55.734067,99.648669 c 0,-9.28901 0.170833,-14.413983 0.480467,-14.413983 0.314927,0 0.480466,-9.849555 0.480466,-28.587733 0,-18.738178 -0.165539,-28.587733 -0.480466,-28.587733 -0.309634,0 -0.480467,-5.124972 -0.480467,-14.413983 l 0,-14.41398276 29.308433,0 29.30843,0 0,57.41569876 0,57.415697 -29.30843,0 -29.308433,0 0,-14.413981 z m 56.695003,-43.001716 0,-55.97430046 -27.38657,0 -27.386568,0 0,13.93351646 0,13.933517 13.453051,0 13.45305,0 0,28.107267 0,28.107267 -13.45305,0 -13.453051,0 0,13.933517 0,13.933513 27.386568,0 27.38657,0 0,-55.974297 z"
     id="path4740"
     inkscape:connector-curvature="0" /><path
     style="fill:#ffffff;stroke:#ffffff;stroke-width:0.48046610000000001"
     d="m 28.3475,56.646953 0,-28.107267 13.933517,0 13.933517,0 0,28.107267 0,28.107267 -13.933517,0 -13.933517,0 0,-28.107267 z"
     id="path4742"
     inkscape:connector-curvature="0" /><path
     style="fill:#000000;stroke:#ffffff;stroke-width:0.48046610000000001"
     d="m 56.467806,97.126222 c 0.497513,-21.094235 0.497513,-59.864301 0,-80.958538 l -0.388119,-16.45596366 28.895389,0 28.895394,0 0,56.93523266 0,56.935237 -28.895394,0 -28.895389,0 0.388119,-16.455968 z m 56.441724,-40.479269 0,-56.45476656 -27.86703,0 -27.867034,0 0,14.41398256 0,14.413983 13.453051,0 13.45305,0 0,27.626801 0,27.626801 -13.45305,0 -13.453051,0 0,14.413983 0,14.413983 27.867034,0 27.86703,0 0,-56.454767 z"
     id="path4744"
     inkscape:connector-curvature="0" /><path
     style="fill:#000000;stroke:#ffffff;stroke-width:0.4804661"
     d="m 28.3475,56.646953 0,-28.107267 13.933517,0 13.933517,0 0,28.107267 0,28.107267 -13.933517,0 -13.933517,0 0,-28.107267 z"
     id="path4746"
     inkscape:connector-curvature="0" /><path
     style="fill:#ffffff;stroke:#ffffff;stroke-width:0.48046610000000001"
     d="m 58.136398,98.687737 0,-13.453051 13.453051,0 13.453051,0 0,-28.587733 0,-28.587733 -13.453051,0 -13.453051,0 0,-13.453051 0,-13.4530504 26.906102,0 26.9061,0 0,55.4938344 0,55.493837 -26.9061,0 -26.906102,0 0,-13.453053 z"
     id="path5516"
     inkscape:connector-curvature="0" /><path
     style="fill:#ffffff;stroke:#ffffff;stroke-width:0.4804661"
     d="m 57.175466,56.646953 0,-27.146335 13.212818,0 13.212817,0 0,27.146335 0,27.146335 -13.212817,0 -13.212818,0 0,-27.146335 z"
     id="path5518"
     inkscape:connector-curvature="0" /><path
     style="fill:#000000;stroke:#000000;stroke-width:1px;stroke-linecap:butt;stroke-linejoin:miter;stroke-opacity:1"
     d="m 56.695,27.867034 c 0,58.616864 0.480466,58.616864 0.480466,58.616864 l -0.960932,0"
     id="path5524"
     inkscape:connector-curvature="0" /><path
     style="fill:#000000;stroke:#ffffff;stroke-width:0.4804661"
     d="m 58.136398,98.687737 0,-13.453051 13.453051,0 13.453051,0 0,-28.587733 0,-28.587733 -13.453051,0 -13.453051,0 0,-13.453051 0,-13.4530504 26.906102,0 26.9061,0 0,55.4938344 0,55.493837 -26.9061,0 -26.906102,0 0,-13.453053 z"
     id="path5526"
     inkscape:connector-curvature="0" /></svg>