<?xml version="1.0" encoding="UTF-8" standalone="no"?>
<!-- Generator: Adobe Illustrator 15.0.0, SVG Export Plug-In . SVG Version: 6.00 Build 0)  -->

<svg
   xmlns:dc="http://purl.org/dc/elements/1.1/"
   xmlns:cc="http://creativecommons.org/ns#"
   xmlns:rdf="http://www.w3.org/1999/02/22-rdf-syntax-ns#"
   xmlns:svg="http://www.w3.org/2000/svg"
   xmlns="http://www.w3.org/2000/svg"
   xmlns:sodipodi="http://sodipodi.sourceforge.net/DTD/sodipodi-0.dtd"
   xmlns:inkscape="http://www.inkscape.org/namespaces/inkscape"
   version="1.1"
   id="OBROC"
   x="0px"
   y="0px"
   width="113.391px"
   height="113.391px"
   viewBox="0 0 113.391 113.391"
   enable-background="new 0 0 113.391 113.391"
   xml:space="preserve"
   inkscape:version="0.48.5 r10040"
   sodipodi:docname="obrot.svg"><metadata
     id="metadata4606"><rdf:RDF><cc:Work
         rdf:about=""><dc:format>image/svg+xml</dc:format><dc:type
           rdf:resource="http://purl.org/dc/dcmitype/StillImage" /></cc:Work></rdf:RDF></metadata><defs
     id="defs4604" /><sodipodi:namedview
     pagecolor="#ffffff"
     bordercolor="#666666"
     borderopacity="1"
     objecttolerance="10"
     gridtolerance="10"
     guidetolerance="10"
     inkscape:pageopacity="0"
     inkscape:pageshadow="2"
     inkscape:window-width="640"
     inkscape:window-height="480"
     id="namedview4602"
     showgrid="false"
     inkscape:zoom="2.081294"
     inkscape:cx="56.695499"
     inkscape:cy="56.695499"
     inkscape:window-x="0"
     inkscape:window-y="0"
     inkscape:window-maximized="0"
     inkscape:current-layer="OBROC" /><path
     id="obroc"
     d="M55.837,48.813l21.941-24.401L56.415-0.411l-0.178,16.78c-0.018,0-0.036-0.002-0.053-0.002  C29.279,16.08,7.236,37.659,6.949,64.561C6.664,91.467,28.24,113.51,55.147,113.796c26.907,0.287,49.232-22.399,49.232-51.266  H91.096c0,21.973-16.242,38.191-35.808,37.981c-19.567-0.208-35.259-16.241-35.051-35.808c0.208-19.565,16.238-35.258,35.806-35.051  c0.017,0.002,0.035,0.001,0.052,0.004" /><path
     style="fill:#ffffff;stroke:#ffffff;stroke-width:0.48047033"
     d="M 46.233764,112.57257 C 27.834862,108.55084 14.053869,95.608297 8.8353251,77.449502 7.3456015,72.26576 6.977495,61.806781 8.0913104,56.309874 11.255413,40.694385 20.436843,28.673537 34.647523,21.540977 c 4.187227,-2.101634 10.480273,-3.985711 14.62587,-4.378844 1.677404,-0.159071 3.968726,-0.401654 5.091825,-0.539074 l 2.041999,-0.249853 0,-7.9266769 c 0,-4.5149936 0.184237,-7.81281227 0.428051,-7.6621252 0.235431,0.14550319 4.959924,5.5159916 10.498878,11.9344191 l 10.070826,11.669867 -8.639558,9.594985 c -4.75176,5.277241 -9.583961,10.644933 -10.738233,11.928204 l -2.098676,2.333219 0.318024,-9.495797 0.318028,-9.495798 -3.902965,0.325495 c -12.47233,1.040152 -23.49635,8.569063 -28.940856,19.765305 -2.572241,5.289633 -3.497457,9.467 -3.51173,15.855521 -0.02199,9.843997 3.233001,17.724882 10.239951,24.792635 6.949101,7.009399 13.625757,9.979566 23.372047,10.397251 7.28037,0.312 11.504617,-0.538658 17.446988,-3.513423 10.40704,-5.209774 18.221203,-16.387186 19.469921,-27.849838 0.171701,-1.576126 0.428263,-3.676478 0.570141,-4.667448 l 0.257964,-1.801764 6.203881,0 6.203881,0 0,2.579651 c 0,8.861352 -4.174782,20.665677 -10.128113,28.637535 -6.954332,9.312267 -15.53854,15.122947 -27.108338,18.349747 -5.071277,1.41437 -15.082732,1.63331 -20.503565,0.4484 l 0,0 z"
     id="path4608"
     inkscape:connector-curvature="0" /></svg>