<?xml version="1.0" encoding="UTF-8" standalone="no"?>
<svg
   xmlns:dc="http://purl.org/dc/elements/1.1/"
   xmlns:cc="http://creativecommons.org/ns#"
   xmlns:rdf="http://www.w3.org/1999/02/22-rdf-syntax-ns#"
   xmlns:svg="http://www.w3.org/2000/svg"
   xmlns="http://www.w3.org/2000/svg"
   xmlns:sodipodi="http://sodipodi.sourceforge.net/DTD/sodipodi-0.dtd"
   xmlns:inkscape="http://www.inkscape.org/namespaces/inkscape"
   version="1.1"
   id="POLACZ_ZDJECIA"
   x="0px"
   y="0px"
   width="113.391px"
   height="113.391px"
   viewBox="0 0 113.391 113.391"
   enable-background="new 0 0 113.391 113.391"
   xml:space="preserve"
   inkscape:version="0.48.5 r10040"
   sodipodi:docname="oryginal.svg"><metadata
     id="metadata4158"><rdf:RDF><cc:Work
         rdf:about=""><dc:format>image/svg+xml</dc:format><dc:type
           rdf:resource="http://purl.org/dc/dcmitype/StillImage" /></cc:Work></rdf:RDF></metadata><defs
     id="defs4156" /><sodipodi:namedview
     pagecolor="#ffffff"
     bordercolor="#666666"
     borderopacity="1"
     objecttolerance="10"
     gridtolerance="10"
     guidetolerance="10"
     inkscape:pageopacity="0"
     inkscape:pageshadow="2"
     inkscape:window-width="640"
     inkscape:window-height="480"
     id="namedview4154"
     showgrid="false"
     inkscape:zoom="2.081294"
     inkscape:cx="56.695499"
     inkscape:cy="56.695499"
     inkscape:window-x="0"
     inkscape:window-y="0"
     inkscape:window-maximized="0"
     inkscape:current-layer="POLACZ_ZDJECIA" /><path
     id="L1"
     d="M85.821,23.275h23.245V0h9.582v23.274h23.242v9.582h-23.242v23.212h-9.582V32.857H85.821 M33.258,44.304  c5.372-0.981,8.935-6.133,7.954-11.508c-0.979-5.375-6.134-8.934-11.507-7.954c-5.376,0.981-8.937,6.133-7.956,11.508  C22.731,41.725,27.883,45.287,33.258,44.304z M102.602,34.727c-11.063,0.188-11.063,0.188-11.063,0.188l7.471,42.429L21.779,90.96  L9.962,23.946l77.231-13.618l1.972,11.184c11.093-0.003,0,0,11.093-0.003l-3.869-21.96L0,16.544l16.996,96.39l96.391-16.997  L102.602,34.727z M67.637,67.157L54.703,56.785l-8.96,14.583L34.479,60.543l-5.162,23.938l65.043-11.47L75.289,41.02L67.637,67.157z  " /><path
     style="fill:#ffffff;stroke:#ffffff;stroke-width:0.48047033"
     d="M 8.7559246,64.839472 C 4.1179027,38.611797 0.45584786,17.023186 0.61802539,16.86478 1.0275466,16.464783 95.7428,-0.12704645 96.022131,0.15228123 96.146515,0.27666866 97.084307,5.0783004 98.106108,10.822574 l 1.857821,10.444133 -5.322247,-0.135076 -5.322247,-0.135077 -0.917002,-5.405292 c -0.519177,-3.060296 -1.146604,-5.405291 -1.446244,-5.405291 -0.92751,0 -76.847696,13.466585 -77.0476905,13.666579 -0.1370835,0.137084 11.3776765,66.819424 11.6321195,67.361971 0.09145,0.195003 77.126531,-13.58109 77.383914,-13.838473 0.166142,-0.166142 -1.332455,-9.571945 -3.330217,-20.901786 -1.997762,-11.329838 -3.632293,-20.758136 -3.632293,-20.95177 0,-0.465803 10.568398,-0.45752 10.576988,0.0083 0.004,0.198194 2.3682,13.761243 5.25455,30.140107 2.88634,16.378864 5.17148,29.856172 5.07807,29.949571 -0.16221,0.162216 -94.567606,16.90569 -95.320011,16.90569 -0.19961,0 -4.157672,-21.459002 -8.7956944,-47.686676 z"
     id="path4160"
     inkscape:connector-curvature="0" /><path
     style="fill:#ffffff;stroke:#ffffff;stroke-width:0.48047033"
     d="m 30.489753,80.242641 c 0.49351,-2.1956 1.590629,-7.289227 2.43804,-11.319172 0.847413,-4.029945 1.679051,-7.327172 1.848087,-7.327172 0.169035,0 2.717954,2.280112 5.664263,5.066915 l 5.356926,5.066915 1.147425,-1.823741 c 0.631085,-1.003056 2.610964,-4.202068 4.399732,-7.108913 1.788768,-2.906846 3.30497,-5.344839 3.369337,-5.417764 0.06437,-0.07292 2.975114,2.162371 6.468328,4.967323 3.493214,2.804951 6.4428,5.00841 6.554636,4.896574 0.111836,-0.111836 1.846423,-5.806518 3.854638,-12.654848 2.008214,-6.84833 3.705789,-12.509785 3.772387,-12.58101 0.0666,-0.07122 4.249892,6.804512 9.296215,15.279417 5.568213,9.351387 8.948659,15.485837 8.599044,15.604584 -0.316846,0.107617 -14.197418,2.584071 -30.845715,5.50323 -16.648297,2.919159 -30.843607,5.427285 -31.545133,5.573611 l -1.275501,0.266049 0.897291,-3.991998 0,0 z"
     id="path4162"
     inkscape:connector-curvature="0" /><path
     style="fill:#ffffff;stroke:#ffffff;stroke-width:0.48047033"
     d="m 28.365653,43.595566 c -3.573291,-1.273842 -6.524473,-5.294318 -6.537054,-8.905608 -0.0032,-0.924905 0.516164,-2.80284 1.154191,-4.173188 3.369251,-7.236443 13.846949,-7.194087 17.146254,0.06931 2.256168,4.966942 0.07862,10.433706 -5.102757,12.810555 -2.277917,1.044947 -4.132102,1.100324 -6.660634,0.198928 z"
     id="path4164"
     inkscape:connector-curvature="0" /><path
     style="fill:#ffffff;stroke:#ffffff;stroke-width:0.48047033"
     d="m 109.25895,44.299365 0,-11.531288 -11.531284,0 -11.531288,0 0,-4.564468 0,-4.564469 11.531288,0 11.531284,0 0,-11.771523 0,-11.77152293 4.56447,0 4.56447,0 0,11.77152293 0,11.771523 11.53129,0 11.53129,0 0,4.564469 0,4.564468 -11.53129,0 -11.53129,0 0,11.531288 0,11.531288 -4.56447,0 -4.56447,0 0,-11.531288 z"
     id="path4166"
     inkscape:connector-curvature="0" /></svg>