<?xml version="1.0" encoding="UTF-8" standalone="no"?>
<!-- Generator: Adobe Illustrator 15.0.0, SVG Export Plug-In . SVG Version: 6.00 Build 0)  -->

<svg
   xmlns:dc="http://purl.org/dc/elements/1.1/"
   xmlns:cc="http://creativecommons.org/ns#"
   xmlns:rdf="http://www.w3.org/1999/02/22-rdf-syntax-ns#"
   xmlns:svg="http://www.w3.org/2000/svg"
   xmlns="http://www.w3.org/2000/svg"
   xmlns:sodipodi="http://sodipodi.sourceforge.net/DTD/sodipodi-0.dtd"
   xmlns:inkscape="http://www.inkscape.org/namespaces/inkscape"
   version="1.1"
   id="EDYTUJ"
   x="0px"
   y="0px"
   width="300px"
   height="300px"
   viewBox="0 0 113.39 113.39"
   enable-background="new 0 0 113.39 113.39"
   xml:space="preserve"
   inkscape:version="0.48.5 r10040"
   sodipodi:docname="paint.svg"><metadata
     id="metadata3100"><rdf:RDF><cc:Work
         rdf:about=""><dc:format>image/svg+xml</dc:format><dc:type
           rdf:resource="http://purl.org/dc/dcmitype/StillImage" /><dc:title></dc:title></cc:Work></rdf:RDF></metadata><defs
     id="defs3098" /><sodipodi:namedview
     pagecolor="#ffffff"
     bordercolor="#666666"
     borderopacity="1"
     objecttolerance="10"
     gridtolerance="10"
     guidetolerance="10"
     inkscape:pageopacity="0"
     inkscape:pageshadow="2"
     inkscape:window-width="640"
     inkscape:window-height="480"
     id="namedview3096"
     showgrid="false"
     inkscape:zoom="0.8"
     inkscape:cx="150"
     inkscape:cy="150"
     inkscape:window-x="93"
     inkscape:window-y="15"
     inkscape:window-maximized="0"
     inkscape:current-layer="EDYTUJ" /><g
     id="WLOS"><g
       id="w1"><g
         id="g3068"><path
           d="M25.521,95.742c3.85-10.438,7.7-20.878,11.55-31.317c-0.966,0.259-1.932,0.519-2.897,0.777     c14.084,5.125,28.168,10.251,42.252,15.377c0.894,0.325,3.031,0.486,2.638,1.581c-1.216,3.386-2.432,6.771-3.647,10.155     c-2.479,6.904-4.959,13.808-7.439,20.712c0.966-0.259,1.933-0.519,2.898-0.777C55.756,106.748,40.638,101.245,25.521,95.742     c-0.781-0.284-2.141,1.053-2.897,0.777c15.118,5.502,30.235,11.005,45.353,16.508c0.244,0.088,2.832-0.592,2.898-0.777     c2.373-6.607,4.746-13.215,7.12-19.822c1.244-3.464,2.488-6.928,3.732-10.392c0.634-1.765-0.21-1.436-1.937-2.063     C65.551,74.79,51.311,69.607,37.07,64.425c-0.245-0.089-2.829,0.589-2.897,0.777c-3.85,10.438-7.7,20.878-11.55,31.317     C22.816,95.995,25.314,96.301,25.521,95.742z"
           id="path3070" /></g></g><g
       id="w2"><polygon
         points="27.76,97.474 39.191,66.112 41.625,66.998 30.222,98.369   "
         id="polygon3073" /></g><g
       id="w3"><polygon
         points="33.916,99.715 45.348,68.353 47.869,69.271 36.465,100.641   "
         id="polygon3076" /></g><g
       id="w4"><polygon
         points="38.511,101.387 49.957,70.03 54.85,71.812 43.458,103.188   "
         id="polygon3079" /></g><g
       id="w5"><polygon
         points="65.737,111.296 77.14,79.922 74.705,79.038 63.276,110.4   "
         id="polygon3082" /></g><g
       id="w6"><polygon
         points="54.785,107.311 66.185,75.938 63.229,74.859 51.798,106.223   "
         id="polygon3085" /></g><g
       id="w7"><polygon
         points="59.583,109.057 70.985,77.684 68.461,76.766 57.033,108.128   "
         id="polygon3088" /></g><g
       id="w8"><polygon
         points="50.04,105.582 61.442,74.21 58.98,73.315 47.553,104.678   "
         id="polygon3091" /></g></g><g
     id="RACZKA"><path
       d="M88.18,67.057c0,0,0.672-1.918,0.945-2.553c0.273-0.634,0.151-1.431-1.438-2.349c-1.587-0.918-22.901-11.05-5.436-32.411   c4.915-6.012,11.662-25.895,2.292-29.201c-9.3-3.488-16.912,16.078-17.012,23.845c-0.349,27.589-23.19,21.651-24.998,21.332   c-1.807-0.317-2.412,0.215-2.608,0.875c-0.2,0.664-0.92,2.565-0.92,2.565s-1.556-0.624-2.02,0.65   c-0.542,1.5,1.052,1.853,1.052,1.853l-1.778,5.029c0,0-1.43-0.778-1.921,0.498c-0.508,1.322,1.058,1.714,1.058,1.714   c-0.004,0.012-0.066,0.17-0.693,1.804c-1.306,3.407,0.918,4.105,0.918,4.105l45.087,16.409c0,0,2.153,0.896,3.343-2.554   c0.571-1.655,0.626-1.815,0.629-1.827c0.001,0,1.453,0.704,1.914-0.633c0.443-1.294-1.152-1.616-1.152-1.616l1.87-4.994   c0,0,1.449,0.753,1.996-0.745C89.772,67.581,88.18,67.057,88.18,67.057z M78.807,7.449c0.573-1.572,2.311-2.384,3.884-1.811   c1.572,0.573,2.383,2.311,1.81,3.884c-0.571,1.572-2.311,2.382-3.881,1.81C79.045,10.76,78.235,9.021,78.807,7.449z M59.843,65.406   l-23.193-8.442l0.259-0.709L60.1,64.696L59.843,65.406z M62.622,57.771l-23.193-8.443l0.258-0.709L62.88,57.06L62.622,57.771z"
       id="path3094" /></g><path
     style="fill:#ffffff;stroke:#ffffff;stroke-width:1.25"
     d="M 120.55129,276.75196 C 89.160754,265.27955 63.740826,255.4671 64.062564,254.94651 64.384302,254.42594 63.846916,254 62.868374,254 c -2.255238,0 26.855163,-79.59882 29.933636,-81.84986 1.462157,-1.06915 1.650769,-1.78178 0.637352,-2.4081 -1.822792,-1.12655 -1.866306,-7.60864 -0.07356,-10.95842 0.987734,-1.8456 0.987734,-2.93008 0,-3.91782 -3.538675,-3.53868 -0.08537,-6.0661 4.58866,-3.35839 C 99.793447,152.57276 158.07597,174 159.13474,174 c 0.20089,0 0.36526,-0.76659 0.36526,-1.70353 0,-1.08926 -10.93023,-5.66391 -30.3125,-12.68676 -16.67188,-6.04077 -30.530745,-11.1643 -30.797488,-11.38562 -0.266743,-0.22132 0.227169,-2.94597 1.097582,-6.05478 1.283606,-4.5846 1.278976,-6.01819 -0.02454,-7.58882 -1.149524,-1.38509 -1.223209,-2.32034 -0.258794,-3.28475 0.96442,-0.96442 10.28037,1.8979 32.71927,10.05297 C 163.3524,152.77104 167,153.82667 167,151.5 c 0,-0.6875 -0.16437,-1.25 -0.36526,-1.25 -0.20089,0 -13.56027,-4.79459 -29.6875,-10.65464 -16.12723,-5.86005 -30.02195,-10.90359 -30.87715,-11.20786 -1.17961,-0.41969 -1.22455,-1.27825 -0.18619,-3.55719 1.36801,-3.00246 1.37718,-3.00366 18.02599,-2.36837 13.64738,0.52077 17.85078,0.24525 23.26224,-1.52475 8.98181,-2.9378 16.57975,-8.66233 21.55179,-16.23781 5.78085,-8.807785 8.17239,-16.710245 9.66892,-31.94938 0.7089,-7.21875 2.37463,-17.625 3.70162,-23.125 4.55254,-18.869065 17.88811,-41.32835 27.48659,-46.2919139 8.44494,-4.3670455 18.87596,-0.8934062 23.14295,7.7068389 5.09037,10.259844 1.20999,35.521459 -8.37224,54.503727 -2.13149,4.222454 -6.9114,12.009848 -10.62204,17.305319 -11.2932,16.116593 -13.51342,22.136869 -13.56267,36.776029 -0.0366,10.8718 0.36404,13.3141 3.07555,18.75 3.92235,7.86329 15.08131,19.05345 24.20691,24.2746 3.84871,2.20201 7.28406,4.46705 7.6341,5.03344 0.35005,0.56638 -0.002,2.8644 -0.78477,5.10671 -1.07514,3.08412 -1.06118,4.65344 0.0574,6.44442 1.7404,2.78683 0.85321,4.76583 -2.13652,4.76583 -2.7936,0 -7.3529,12.11672 -5.32308,14.14655 2.13235,2.13235 1.58253,4.60345 -1.02426,4.60345 -1.50363,0 -2.8455,1.34187 -3.65019,3.65017 -0.69985,2.0076 -2.32612,4.70385 -3.61395,5.99168 -1.28781,1.28781 -8.75291,20.24397 -16.58909,42.1248 -7.83617,21.88082 -15.02385,40.55958 -15.97261,41.50834 -0.94876,0.94875 -3.23172,1.69371 -5.07323,1.65546 -1.84152,-0.0383 -29.03139,-9.45608 -60.42193,-20.92849 l -6e-5,0 z m 62.04816,16.31054 C 186.78527,282.50044 209.5,218.26276 209.5,216.98724 c 0,-2.1162 -4.94566,-4.80112 -6.29149,-3.41554 -1.05306,1.08416 -28.70851,76.47491 -28.70851,78.26149 0,0.88671 4.32046,3.12975 6.42876,3.33757 0.44207,0.0436 1.19388,-0.90514 1.67069,-2.10826 z m 0.33805,-41.36484 C 190.67187,230.50125 197,212.58959 197,211.89397 c 0,-0.69561 -2.27771,-2.15946 -5.06159,-3.25299 -4.9284,-1.93593 -5.09266,-1.91626 -6.24227,0.74788 -2.7506,6.37435 -27.44614,75.27498 -27.44614,76.57482 0,1.24345 5.7828,3.80453 9.375,4.15202 0.6875,0.0665 7.57812,-17.22161 15.3125,-38.41804 z m -16.07849,-7.12772 c 7.82871,-21.66648 14.01506,-39.61254 13.74744,-39.88015 -0.26762,-0.26763 -1.92569,-0.84778 -3.68462,-1.28924 -3.17685,-0.79734 -3.29376,-0.53924 -17.64763,38.9609 -15.14903,41.68832 -15.06718,41.28954 -8.5242,41.53245 1.34289,0.0499 5.9145,-11.10998 16.10901,-39.32396 z m -13.80412,-5.3349 c 7.82716,-21.51359 14.02621,-39.2976 13.77566,-39.52004 -0.25055,-0.22244 -1.59661,-0.75393 -2.99125,-1.1811 -2.32496,-0.71211 -3.73671,2.5213 -16.98737,38.90722 -14.21624,39.03735 -14.95464,42.11968 -9.87759,41.23264 1.20269,-0.21014 6.82547,-14.00042 16.08055,-39.43872 l 0,0 z m -11.4545,-3.44248 c 7.75815,-21.26716 14.1156,-39.01301 14.12767,-39.43524 0.0255,-0.892 -11.18188,-5.34068 -11.78308,-4.67721 -0.22172,0.24469 -6.3279,16.75739 -13.56929,36.69489 -7.24139,19.9375 -13.74763,37.75939 -14.45832,39.6042 -1.2295,3.19156 -1.03759,3.44411 3.95774,5.20834 2.88744,1.01977 5.78306,1.72327 6.43472,1.56335 0.65166,-0.15993 7.53241,-17.69118 15.29056,-38.95833 l 0,0 z m -23.7578,-9.17335 c 14.60075,-40.06882 14.87274,-41.29692 9.15741,-41.34754 -1.32926,-0.0112 -6.03682,11.47029 -16.17366,39.44864 -11.831708,32.65631 -13.988329,39.66463 -12.499995,40.6209 0.98926,0.63561 2.566605,1.01574 3.505215,0.84473 1.01169,-0.18434 7.53099,-16.29494 16.01103,-39.56673 z m -12.2781,-4.01884 C 113.22902,201.54934 119.5,183.779 119.5,183.11074 c 0,-1.57283 -10.40565,-4.71135 -10.95424,-3.30399 -0.22902,0.58754 -6.78474,18.50575 -14.568278,39.81825 l -14.151882,38.75 5.1497,2.06926 c 2.832335,1.1381 5.488095,1.7006 5.901687,1.25 0.413594,-0.45059 7.022969,-18.04284 14.687503,-39.09389 l 0,0 z m -16.464099,-5.55781 c 7.75815,-21.26716 14.115599,-39.10336 14.127669,-39.636 0.0243,-1.07398 -6.293824,-3.75746 -7.054901,-2.99639 -0.477485,0.47749 -26.853799,71.59052 -28.402972,76.57708 -0.605404,1.94871 -0.09189,2.95791 2.021634,3.97303 1.558248,0.74842 3.366353,1.22331 4.01801,1.05529 0.651656,-0.168 7.532409,-17.70586 15.29056,-38.97301 l 0,0 z M 222.3125,28.033415 C 225.24287,25.460194 225.08365,19.583655 222,16.5 c -6.46291,-6.462917 -17.01884,0.77729 -13.73311,9.41941 2.09267,5.504174 9.00082,6.54392 14.04561,2.114005 z"
     id="path3102"
     inkscape:connector-curvature="0"
     transform="scale(0.37796667,0.37796667)" /></svg>