<?xml version="1.0" encoding="UTF-8" standalone="no"?>
<!-- Generator: Adobe Illustrator 15.0.0, SVG Export Plug-In . SVG Version: 6.00 Build 0)  -->

<svg
   xmlns:dc="http://purl.org/dc/elements/1.1/"
   xmlns:cc="http://creativecommons.org/ns#"
   xmlns:rdf="http://www.w3.org/1999/02/22-rdf-syntax-ns#"
   xmlns:svg="http://www.w3.org/2000/svg"
   xmlns="http://www.w3.org/2000/svg"
   xmlns:sodipodi="http://sodipodi.sourceforge.net/DTD/sodipodi-0.dtd"
   xmlns:inkscape="http://www.inkscape.org/namespaces/inkscape"
   version="1.1"
   id="PLUS"
   x="0px"
   y="0px"
   width="113.39px"
   height="113.39px"
   viewBox="0 0 113.39 113.39"
   enable-background="new 0 0 113.39 113.39"
   xml:space="preserve"
   inkscape:version="0.48.5 r10040"
   sodipodi:docname="PLUS.svg"><metadata
     id="metadata3998"><rdf:RDF><cc:Work
         rdf:about=""><dc:format>image/svg+xml</dc:format><dc:type
           rdf:resource="http://purl.org/dc/dcmitype/StillImage" /></cc:Work></rdf:RDF></metadata><defs
     id="defs3996" /><sodipodi:namedview
     pagecolor="#ffffff"
     bordercolor="#666666"
     borderopacity="1"
     objecttolerance="10"
     gridtolerance="10"
     guidetolerance="10"
     inkscape:pageopacity="0"
     inkscape:pageshadow="2"
     inkscape:window-width="640"
     inkscape:window-height="480"
     id="namedview3994"
     showgrid="false"
     inkscape:zoom="2.0813123"
     inkscape:cx="56.695"
     inkscape:cy="56.695"
     inkscape:window-x="0"
     inkscape:window-y="0"
     inkscape:window-maximized="0"
     inkscape:current-layer="PLUS" /><polyline
     id="PLUS_1_"
     points="-0.007,47.069 46.995,47.069 46.995,0.002 66.375,0.003 66.376,47.07 113.376,47.07 113.377,66.45   66.376,66.45 66.376,113.386 46.995,113.388 46.995,66.45 -0.009,66.45 " /><path
     style="fill:#ffffff;stroke:#ffffff;stroke-width:0.4804661"
     d="m 47.277864,89.703021 0,-23.302606 -23.542839,0 -23.54283856,0 0,-9.609322 0,-9.609322 23.54283856,0 23.542839,0 0,-23.542839 0,-23.54283878 9.369089,0 9.369089,0 0,23.54283878 0,23.542839 23.542839,0 23.542839,0 0,9.609322 0,9.609322 -23.542839,0 -23.542839,0 0,23.302606 0,23.302609 -9.369089,0 -9.369089,0 0,-23.302609 z"
     id="path4000"
     inkscape:connector-curvature="0" /></svg>