<?xml version="1.0" encoding="UTF-8" standalone="no"?>
<!-- Generator: Adobe Illustrator 15.0.0, SVG Export Plug-In . SVG Version: 6.00 Build 0)  -->

<svg
   xmlns:dc="http://purl.org/dc/elements/1.1/"
   xmlns:cc="http://creativecommons.org/ns#"
   xmlns:rdf="http://www.w3.org/1999/02/22-rdf-syntax-ns#"
   xmlns:svg="http://www.w3.org/2000/svg"
   xmlns="http://www.w3.org/2000/svg"
   xmlns:sodipodi="http://sodipodi.sourceforge.net/DTD/sodipodi-0.dtd"
   xmlns:inkscape="http://www.inkscape.org/namespaces/inkscape"
   version="1.1"
   x="0px"
   y="0px"
   width="113.391px"
   height="113.391px"
   viewBox="0 0 113.391 113.391"
   enable-background="new 0 0 113.391 113.391"
   xml:space="preserve"
   id="svg4064"
   inkscape:version="0.48.5 r10040"
   sodipodi:docname="pokaz_slajdow.svg"><metadata
     id="metadata4081"><rdf:RDF><cc:Work
         rdf:about=""><dc:format>image/svg+xml</dc:format><dc:type
           rdf:resource="http://purl.org/dc/dcmitype/StillImage" /></cc:Work></rdf:RDF></metadata><defs
     id="defs4079" /><sodipodi:namedview
     pagecolor="#ffffff"
     bordercolor="#666666"
     borderopacity="1"
     objecttolerance="10"
     gridtolerance="10"
     guidetolerance="10"
     inkscape:pageopacity="0"
     inkscape:pageshadow="2"
     inkscape:window-width="640"
     inkscape:window-height="480"
     id="namedview4077"
     showgrid="false"
     inkscape:zoom="2.081294"
     inkscape:cx="56.695499"
     inkscape:cy="56.695499"
     inkscape:window-x="0"
     inkscape:window-y="0"
     inkscape:window-maximized="0"
     inkscape:current-layer="svg4064" /><g
     id="ZDJ3_2_"><polygon
       id="_x33_3"
       points="49.079,2.405 47.004,6.623 63.201,10.536 64.713,10.097  " /><polygon
       id="_x33_2"
       points="107.604,31.205 105.985,37.934 109.128,39.48 102.795,52.961 95.594,82.891 118.321,36.478  " /><polygon
       id="_x33_1"
       points="64.927,92.153 58.917,93.604 84.943,106.055 87.787,97.875  " /></g><g
     id="ZDJ2_1_"><polygon
       id="_x32_2"
       points="47.73,14.645 62.011,10.995 33.318,4.392 29.857,19.243 37.462,17.193 38.542,12.533  " /><polygon
       id="_x32_1"
       points="71.454,13.194 73.509,20.698 100.231,26.817 88.847,75.979 91.41,85.04 67.075,91.445 91.092,96.98    108.499,21.801  " /></g><g
     id="ZDJ1_1_"><polygon
       id="_x31_3"
       points="55.841,43.849 51.563,64.97 40.67,57.66 34.585,69.757 24.976,61.978 21.304,82.202 74.272,67.548     " /><path
       id="_x31_2"
       d="M-4.931,30.187l20.468,74.404l74.406-20.469L69.476,9.717L-4.931,30.187z M79.123,70.893L18.069,87.688   L3.537,34.859l61.054-16.795L79.123,70.893z" /><circle
       id="_x31_1"
       cx="20.869"
       cy="41.706"
       r="7.827" /></g><path
     style="fill:#ffffff;stroke:#ffffff;stroke-width:0.48047033"
     d="M 5.5918454,67.438831 C 0.02274643,47.181495 -4.4578922,30.531416 -4.3651296,30.438653 -4.0099739,30.083497 69.001815,10.128185 69.204506,10.330873 69.49694,10.623308 89.632,83.792787 89.458243,83.931619 89.381896,83.992619 72.995456,88.516877 53.043925,93.985518 33.092394,99.454164 16.531954,104.00542 16.242947,104.09943 15.920007,104.20447 11.814818,90.074595 5.5918454,67.438831 l 0,0 z M 49.192225,79.402816 C 65.704025,74.859094 79.259174,71.096007 79.314774,71.040407 79.425398,70.929784 64.992343,18.216446 64.778236,17.949127 64.472623,17.567561 3.9017852,34.500935 3.6968613,35.025229 3.5264389,35.461251 16.568682,84.144198 17.747286,87.471426 c 0.126723,0.357744 0.498847,0.547448 0.826942,0.421574 0.328096,-0.125878 14.106195,-3.946463 30.617997,-8.490184 z"
     id="path4083"
     inkscape:connector-curvature="0" /><path
     style="fill:#ffffff;stroke:#ffffff;stroke-width:0.48047033"
     d="m 21.813353,81.227899 c 0,-0.542171 2.669118,-15.496481 3.140656,-17.596203 0.227192,-1.011666 0.557857,-0.835426 4.732706,2.522469 2.468647,1.98557 4.687145,3.610128 4.929995,3.610128 0.24285,0 1.72443,-2.59454 3.292399,-5.765645 1.56797,-3.171104 2.919307,-5.765644 3.002972,-5.765644 0.08366,0 2.407926,1.513482 5.165024,3.363293 2.757098,1.849811 5.18931,3.363292 5.404915,3.363292 0.215605,0 1.225819,-4.27018 2.244919,-9.489289 1.019101,-5.219109 1.98991,-9.752941 2.157353,-10.075181 0.287,-0.552327 17.259542,20.674007 17.350375,21.69886 0.02756,0.310998 -49.356356,14.430256 -51.301196,14.667424 -0.06607,0.0081 -0.120118,-0.232021 -0.120118,-0.533504 z"
     id="path4085"
     inkscape:connector-curvature="0" /><path
     style="fill:#ffffff;stroke:#ffffff;stroke-width:0.48047033"
     d="m 17.195342,48.18888 c -3.577434,-2.181455 -4.796218,-6.123294 -2.976598,-9.627031 1.615852,-3.111374 3.230262,-4.112126 6.633668,-4.112126 3.402593,0 5.016,0.999711 6.636452,4.112126 1.866407,3.584824 0.868054,6.973007 -2.787803,9.461161 -2.016876,1.372673 -5.403896,1.447524 -7.505719,0.16587 l 0,0 z"
     id="path4087"
     inkscape:connector-curvature="0" /><path
     style="fill:#ffffff;stroke:#ffffff;stroke-width:0.48047033"
     d="M 79.498675,94.074741 C 73.56874,92.688853 68.92019,91.436911 69.168563,91.29265 c 0.248374,-0.144266 5.208245,-1.507245 11.021936,-3.028851 5.813691,-1.521602 10.751883,-2.931321 10.97376,-3.132705 0.221877,-0.201385 -0.141039,-2.358255 -0.806479,-4.793048 l -1.209892,-4.426895 5.684081,-24.574476 c 3.126244,-13.515963 5.643211,-24.618579 5.593261,-24.672481 -0.05,-0.0539 -6.073666,-1.459278 -13.386024,-3.123058 L 73.744011,20.516083 72.827214,17.152791 c -0.504238,-1.849811 -0.883995,-3.40691 -0.843905,-3.46022 0.07634,-0.101505 34.717721,7.898635 35.648921,8.232822 0.35281,0.126617 -1.98181,11.060787 -6.84604,32.063398 -4.059779,17.529189 -7.943387,34.303639 -8.630237,37.276549 -0.686849,2.97291 -1.389838,5.388172 -1.562197,5.367248 -0.172359,-0.0209 -5.165145,-1.171954 -11.095081,-2.557847 l 0,0 z"
     id="path4089"
     inkscape:connector-curvature="0" /><path
     style="fill:#ffffff;stroke:#ffffff;stroke-width:0.48047033"
     d="m 96.799851,79.324595 c -0.01822,-0.159137 1.383448,-6.155604 3.114815,-13.325483 2.883384,-11.940579 3.408314,-13.585412 6.246114,-19.571905 1.704,-3.594668 3.09817,-6.706912 3.09817,-6.916098 0,-0.209185 -0.6639,-0.655334 -1.47534,-0.991442 -1.14262,-0.47329 -1.42091,-0.83859 -1.23398,-1.61982 0.13275,-0.554792 0.38874,-1.821895 0.56887,-2.815784 0.18013,-0.993889 0.50957,-1.919594 0.7321,-2.057123 0.22253,-0.137529 2.56518,0.83418 5.2059,2.159353 l 4.8013,2.409406 -3.52771,7.335243 c -6.14238,12.77198 -17.495787,35.694572 -17.530239,35.393653 z"
     id="path4091"
     inkscape:connector-curvature="0" /><path
     style="fill:#ffffff;stroke:#ffffff;stroke-width:0.48047033"
     d="m 72.159047,99.673571 c -6.526686,-3.10504 -11.876009,-5.771259 -11.887384,-5.924931 -0.01138,-0.153673 1.006322,-0.516876 2.261551,-0.80712 2.099727,-0.485514 3.14674,-0.313727 13.092817,2.148192 5.94582,1.471749 10.992706,2.838681 11.215302,3.037627 0.523006,0.467438 -1.632469,7.191761 -2.305312,7.191761 -0.280649,0 -5.850287,-2.54049 -12.376974,-5.645529 z"
     id="path4093"
     inkscape:connector-curvature="0" /><path
     style="fill:#ffffff;stroke:#ffffff;stroke-width:0.48047033"
     d=""
     id="path4095"
     inkscape:connector-curvature="0" /><path
     style="fill:#ffffff;stroke:#ffffff;stroke-width:0.48047033"
     d="m 30.461819,18.347147 c 0,-0.767067 2.909523,-13.1498657 3.145612,-13.3875826 0.09912,-0.099807 6.130182,1.1837356 13.402352,2.852318 7.272169,1.6685824 13.139774,3.1161386 13.03912,3.2167926 -0.100653,0.100653 -2.884322,0.902955 -6.185931,1.782893 l -6.002925,1.599887 -4.014528,-0.926235 c -2.207991,-0.50943 -4.372525,-1.035844 -4.810077,-1.16981 -0.616031,-0.188611 -0.867814,0.184166 -1.115803,1.652001 -0.431458,2.553777 -1.058188,3.208462 -3.672313,3.83612 -1.221205,0.293215 -2.572528,0.668252 -3.00294,0.833417 -0.461328,0.177028 -0.782567,0.05807 -0.782567,-0.289801 z"
     id="path4097"
     inkscape:connector-curvature="0" /><path
     style="fill:#ffffff;stroke:#ffffff;stroke-width:0.48047033"
     d="M 54.965806,8.3550803 C 51.134055,7.4013726 47.906183,6.5556079 47.792757,6.4756037 47.474846,6.2513679 49.135626,2.9755618 49.552742,3.0041214 c 0.929157,0.063619 14.189071,7.1287146 13.340825,7.1082056 -0.528518,-0.01278 -4.09601,-0.8035386 -7.927761,-1.7572467 z"
     id="path4099"
     inkscape:connector-curvature="0" /></svg>