<?xml version="1.0" encoding="utf-8"?>
<!-- Generator: Adobe Illustrator 15.0.0, SVG Export Plug-In . SVG Version: 6.00 Build 0)  -->
<!DOCTYPE svg PUBLIC "-//W3C//DTD SVG 1.1//EN" "http://www.w3.org/Graphics/SVG/1.1/DTD/svg11.dtd">
<svg version="1.1" id="PREDYKCJA" xmlns="http://www.w3.org/2000/svg" xmlns:xlink="http://www.w3.org/1999/xlink" x="0px" y="0px"
	 width="113.391px" height="113.391px" viewBox="0 0 113.391 113.391" enable-background="new 0 0 113.391 113.391"
	 xml:space="preserve">
<path id="_x31_" d="M85.287,99.9c-2.918-25.378-1.381-44.709-1.381-44.709c-28.702,4.052-53.181,0.545-53.181,0.545
	s0.891,32.542-0.258,42.656s-2.873,9.797,0.914,11.441c4.346,1.888,16.484,3.678,26.453,3.548c9.907-0.13,21.963-2.279,26.356-3.725
	C88.557,108.22,86.367,109.306,85.287,99.9z M34.03,106.108c-1.695-1.81-0.402-3.043-0.256-10.287
	c0.216-10.744-0.263-33.429-0.575-35.718c-0.204-1.495,1.509-0.969,2.713-0.76c1.406,0.244,3.433,0.589,3.433,0.589
	s-0.521,1.092-2.026,0.633c-1.504-0.461-2.399,0.011-2.484,0.573c-0.545,3.592,0.318,26.805,0.778,36.458
	c0.46,9.654,5.861,9.754,5.861,9.754S35.239,107.399,34.03,106.108z M64.858,40.406l-5.841,2.089l-3.608-5.02l-8.102,2.899
	l0.355,6.183l-5.84,2.09l-2.56-34.768l5.638-2.018L64.858,40.406z M51.984,32.435l-6.828-10.78l1.563,12.665L51.984,32.435z
	 M56.363,7.716l9.419-3.371C71.5,2.3,76.357,4.46,78.121,9.395c0.691,1.932,1.015,4-0.891,6.583
	c3.541-0.477,7.064,1.462,8.625,5.823c2.547,7.119-0.061,11.113-7.712,13.851l-10.447,3.739L56.363,7.716z M71.491,32.231
	l4.895-1.751c4.402-1.575,4.5-3.373,3.427-6.375c-1.119-3.127-2.662-4.198-6.776-2.727l-4.812,1.722L71.491,32.231z M63.776,10.54
	l2.62,7.321l3.786-1.354c2.344-0.84,2.853-2.923,2.129-4.94c-0.572-1.604-1.993-3.367-4.791-2.366L63.776,10.54L63.776,10.54z
	 M16.851,42.761l6.643-6.737l8.056,3.958l-4.075-8.668l6.643-6.736l-9.352,2.073l-4.075-8.668l-1.272,9.375l-9.351,2.073
	l8.056,3.958L16.851,42.761z M23.732,16.069l6.946-2.465l4.303,5.513l0.089-7.462l6.947-2.464l-7.26-1.725l0.089-7.463l-4.078,6.14
	l-7.26-1.725l4.303,5.513L23.732,16.069z M40.558,46.974l0.252,3.088l8.278-2.824l-0.047-0.928c2.621-0.138,5.196-0.22,8.149-0.262
	c13.543-0.191,24.537,0.817,24.558,2.252c0.02,1.437-10.942,2.755-24.484,2.947c-13.542,0.192-24.537-0.817-24.557-2.253
	C32.696,48.229,35.606,47.519,40.558,46.974z M103.324,47.96c0.048,3.363-20.545,6.383-45.994,6.742
	c-25.449,0.36-46.118-2.077-46.166-5.44c-0.037-2.585,11.922-4.953,29.103-6.08l0.201,2.75c-6.759,0.763-10.922,1.867-10.905,3.069
	c0.029,2.021,12.445,3.483,27.733,3.267s27.658-2.029,27.629-4.049s-12.444-3.484-27.733-3.268c-2.99,0.043-5.616,0.133-8.312,0.287
	l-0.224-2.494c2.878-0.115,5.457-0.181,8.502-0.225C82.608,42.161,103.277,44.596,103.324,47.96z"/>
</svg>
