<?xml version="1.0" encoding="UTF-8" standalone="no"?>
<!-- Generator: Adobe Illustrator 16.0.0, SVG Export Plug-In . SVG Version: 6.00 Build 0)  -->

<svg
   xmlns:dc="http://purl.org/dc/elements/1.1/"
   xmlns:cc="http://creativecommons.org/ns#"
   xmlns:rdf="http://www.w3.org/1999/02/22-rdf-syntax-ns#"
   xmlns:svg="http://www.w3.org/2000/svg"
   xmlns="http://www.w3.org/2000/svg"
   xmlns:sodipodi="http://sodipodi.sourceforge.net/DTD/sodipodi-0.dtd"
   xmlns:inkscape="http://www.inkscape.org/namespaces/inkscape"
   version="1.1"
   id="Layer_1"
   x="0px"
   y="0px"
   width="126px"
   height="126px"
   viewBox="0 0 126 126"
   enable-background="new 0 0 126 126"
   xml:space="preserve"
   inkscape:version="0.48.5 r10040"
   sodipodi:docname="psycho.svg"><metadata
     id="metadata4227"><rdf:RDF><cc:Work
         rdf:about=""><dc:format>image/svg+xml</dc:format><dc:type
           rdf:resource="http://purl.org/dc/dcmitype/StillImage" /></cc:Work></rdf:RDF></metadata><defs
     id="defs4225" /><sodipodi:namedview
     pagecolor="#ffffff"
     bordercolor="#666666"
     borderopacity="1"
     objecttolerance="10"
     gridtolerance="10"
     guidetolerance="10"
     inkscape:pageopacity="0"
     inkscape:pageshadow="2"
     inkscape:window-width="640"
     inkscape:window-height="480"
     id="namedview4223"
     showgrid="false"
     inkscape:zoom="1.8730159"
     inkscape:cx="63"
     inkscape:cy="63"
     inkscape:window-x="0"
     inkscape:window-y="0"
     inkscape:window-maximized="0"
     inkscape:current-layer="Layer_1" /><path
     stroke="#6D6E70"
     stroke-width="0"
     stroke-linecap="round"
     stroke-linejoin="round"
     d="M25.486,25.483  C4.798,46.17,4.8,79.829,25.488,100.517c20.682,20.685,54.34,20.685,75.026-0.004c20.687-20.684,20.685-54.341,0.002-75.024  C79.828,4.8,46.17,4.8,25.486,25.483z M94.728,94.728c-17.493,17.494-45.962,17.496-63.455,0.003  c-17.498-17.497-17.495-45.966,0-63.46c17.493-17.493,45.96-17.495,63.457,0.002C112.225,48.767,112.223,77.235,94.728,94.728z   M84.688,87.521c-22.713,20.02-43.377,0-43.377,0c0-11.55,9.711-20.913,21.688-20.913S84.688,75.971,84.688,87.521z M58.87,47.643  c0-5.773-4.688-10.459-10.459-10.459c-5.773,0-10.459,4.686-10.459,10.459c0,5.772,4.686,10.459,10.459,10.459  C54.182,58.102,58.87,53.415,58.87,47.643z M40.107,47.643c0-4.579,3.724-8.305,8.304-8.305c4.577,0,8.304,3.726,8.304,8.305  s-3.727,8.305-8.304,8.305C43.831,55.947,40.107,52.222,40.107,47.643z M54.911,47.643c0-3.588-2.914-6.5-6.5-6.5  c-3.588,0-6.5,2.912-6.5,6.5c0,3.587,2.912,6.5,6.5,6.5C51.997,54.143,54.911,51.229,54.911,47.643z M43.911,47.643  c0-2.481,2.018-4.5,4.5-4.5c2.48,0,4.5,2.019,4.5,4.5s-2.02,4.5-4.5,4.5C45.929,52.143,43.911,50.124,43.911,47.643z M48.411,49.643  c-1.104,0-2-0.896-2-2s0.896-2,2-2s2,0.896,2,2S49.515,49.643,48.411,49.643z M78.529,37.184c-5.773,0-10.459,4.686-10.459,10.459  c0,5.772,4.686,10.459,10.459,10.459c5.77,0,10.459-4.687,10.459-10.459C88.988,41.869,84.299,37.184,78.529,37.184z M78.529,55.947  c-4.581,0-8.304-3.726-8.304-8.305s3.723-8.305,8.304-8.305c4.577,0,8.304,3.726,8.304,8.305S83.106,55.947,78.529,55.947z   M78.529,41.143c-3.588,0-6.5,2.912-6.5,6.5c0,3.587,2.912,6.5,6.5,6.5c3.586,0,6.5-2.913,6.5-6.5  C85.029,44.055,82.115,41.143,78.529,41.143z M78.529,52.143c-2.482,0-4.5-2.019-4.5-4.5s2.018-4.5,4.5-4.5  c2.48,0,4.5,2.019,4.5,4.5S81.01,52.143,78.529,52.143z M80.529,47.643c0,1.104-0.896,2-2,2s-2-0.896-2-2s0.896-2,2-2  S80.529,46.539,80.529,47.643z"
     id="path4221" /><path
     style="fill:#ffffff;stroke:#ffffff;stroke-width:0.53389829"
     d="M 56.471851,95.152028 C 52.23026,94.039983 47.583964,91.836478 44.057519,89.264534 l -2.338245,-1.705352 0.303977,-2.945252 c 0.852623,-8.261124 8.530857,-15.829973 17.579892,-17.329446 11.451637,-1.897598 22.619198,6.008533 24.400051,17.274139 0.497724,3.148587 0.749562,2.782447 -4.234321,6.156171 -5.144002,3.482114 -11.525799,5.529958 -17.028609,5.464283 -1.35473,-0.01617 -4.175516,-0.47834 -6.268413,-1.027049 l 0,0 z"
     id="path4229"
     inkscape:connector-curvature="0" /><path
     style="fill:#ffffff;stroke:#ffffff;stroke-width:0.53389829"
     d="M 59.476271,115.58244 C 54.379644,115.19155 48.093124,113.71718 43.301842,111.78906 24.41881,104.19012 11.501483,86.049906 10.494077,65.716074 9.2168485,39.936031 26.375801,17.381409 51.734746,11.507187 c 6.634506,-1.5368368 17.609237,-1.308451 24.450673,0.508821 19.473503,5.172693 34.155261,20.634145 38.374851,40.412806 0.89785,4.208499 1.03657,6.34461 0.81479,12.54661 -0.38711,10.825108 -2.81251,18.461258 -8.64844,27.228813 -7.648485,11.490653 -20.155699,19.902153 -33.279688,22.381673 -4.570388,0.86349 -10.339699,1.27501 -13.970661,0.99653 l 0,0 z m 16.016949,-9.21271 c 12.944738,-3.74441 24.183351,-13.805907 29.14672,-26.093961 2.58386,-6.397004 3.14721,-9.53222 3.133,-17.435938 -0.0109,-6.099188 -0.23231,-8.240709 -1.20288,-11.638136 C 103.00927,38.737454 95.315572,29.185983 83.941638,23.109276 68.427712,14.820713 48.5765,16.720601 34.815375,27.810973 16.632914,42.46459 12.596952,68.680139 25.528727,88.132307 c 2.885055,4.339744 9.569281,10.786246 13.817293,13.325883 3.951374,2.3623 9.755998,4.68928 14.154078,5.67414 5.221262,1.16919 16.689441,0.77154 21.993122,-0.7626 z"
     id="path4231"
     inkscape:connector-curvature="0" /><path
     style="fill:#ffffff;stroke:#ffffff;stroke-width:0.53389829"
     d="m 44.238082,56.794139 c -3.444341,-1.612264 -6.111788,-5.614624 -6.111788,-9.17041 0,-1.929662 1.243928,-4.975315 2.717541,-6.653667 4.345735,-4.949519 12.197345,-4.338376 16.024719,1.247312 1.830574,2.671547 1.823679,8.151225 -0.01363,10.832601 -2.916816,4.256815 -8.183001,5.819604 -12.616842,3.744164 l 0,0 z m 8.581554,-1.944574 c 5.648383,-3.310173 5.24977,-11.892312 -0.685818,-14.765681 -8.085216,-3.913985 -15.896328,5.640944 -10.44941,12.782222 2.632381,3.451229 7.232481,4.270621 11.135228,1.983459 z"
     id="path4233"
     inkscape:connector-curvature="0" /><path
     style="fill:#ffffff;stroke:#ffffff;stroke-width:0.53389829"
     d="m 46.350481,53.25867 c -2.429757,-1.038814 -3.958956,-3.263818 -3.958956,-5.760332 0,-1.695684 0.361252,-2.478234 1.815255,-3.932236 3.36462,-3.364621 8.625172,-2.111426 9.96932,2.37494 1.424396,4.754207 -3.359136,9.227221 -7.825619,7.317628 z m 4.218093,-1.450963 c 1.772105,-0.943829 2.465244,-2.122637 2.483938,-4.224387 0.04472,-5.027903 -7.332566,-6.285081 -8.989526,-1.531923 -1.412452,4.051762 2.765339,7.748378 6.505588,5.75631 l 0,0 z"
     id="path4235"
     inkscape:connector-curvature="0" /><path
     style="fill:#ffffff;stroke:#ffffff;stroke-width:0.53389829"
     d="m 45.802653,50.644666 c -3.491998,-3.00369 0.176696,-8.83117 4.207878,-6.683938 3.361714,1.790635 3.374056,5.528908 0.02414,7.31308 -1.701355,0.906148 -2.602967,0.772112 -4.232022,-0.629142 z m 4.330398,-3.020937 c 0,-1.544685 -0.213354,-1.898889 -1.230658,-2.043103 -2.273621,-0.322309 -3.65756,2.013359 -2.109957,3.560963 0.364993,0.364993 1.265946,0.593234 2.002119,0.507203 1.143983,-0.133688 1.338496,-0.427974 1.338496,-2.025063 z"
     id="path4237"
     inkscape:connector-curvature="0" /><path
     style="fill:#ffffff;stroke:#ffffff;stroke-width:0.53389829"
     d=""
     id="path4239"
     inkscape:connector-curvature="0" /><path
     style="fill:#ffffff;stroke:#ffffff;stroke-width:0.53389829"
     d="m 76.904073,53.481551 c -3.369005,-1.0096 -5.172294,-4.417827 -4.083309,-7.717483 1.436466,-4.352534 6.629786,-5.501654 9.933473,-2.197966 2.234455,2.234455 2.492785,5.187878 0.657816,7.520663 -0.92669,1.178096 -4.143688,3.10749 -4.831769,2.897853 -0.08284,-0.02524 -0.837137,-0.25162 -1.676211,-0.503067 z m 3.652249,-1.58324 c 1.947208,-0.740327 3.109877,-3.643346 2.341709,-5.846914 -1.65696,-4.753158 -9.034246,-3.49598 -8.989526,1.531923 0.03298,3.707734 3.066365,5.676657 6.647817,4.314991 z"
     id="path4241"
     inkscape:connector-curvature="0" /><path
     style="fill:#ffffff;stroke:#ffffff;stroke-width:0.53389829"
     d="M 74.674237,57.020321 C 67.31035,53.81224 66.465259,43.571736 73.200075,39.156957 c 7.482235,-4.904724 17.462899,2.386024 15.129433,11.051858 -1.542885,5.729837 -8.347214,9.123964 -13.655271,6.811506 z m 7.749019,-1.789371 c 3.823288,-1.920886 5.578062,-6.524831 4.030953,-10.575878 -1.823559,-4.774921 -7.025702,-6.822905 -11.591821,-4.563476 -3.049358,1.508897 -4.318332,3.372562 -4.598737,6.75388 -0.304183,3.668043 0.935428,6.256412 3.826163,7.989218 2.631347,1.57732 5.692923,1.722898 8.333442,0.396256 z"
     id="path4243"
     inkscape:connector-curvature="0" /><path
     style="fill:#ffffff;stroke:#ffffff;stroke-width:0.53389829"
     d="m 47.19661,48.424576 c -0.53026,-0.638924 -0.53026,-0.96277 0,-1.601695 1.111377,-1.339127 2.135593,-0.955046 2.135593,0.800848 0,1.755894 -1.024216,2.139975 -2.135593,0.800847 z"
     id="path4245"
     inkscape:connector-curvature="0" /><path
     style="fill:#ffffff;stroke:#ffffff;stroke-width:0.53389829"
     d=""
     id="path4247"
     inkscape:connector-curvature="0" /><path
     style="fill:#ffffff;stroke:#ffffff;stroke-width:0.53389829"
     d=""
     id="path4249"
     inkscape:connector-curvature="0" /><path
     style="fill:#ffffff;stroke:#ffffff;stroke-width:0.53389829"
     d=""
     id="path4251"
     inkscape:connector-curvature="0" /><path
     style="fill:#ffffff;stroke:#ffffff;stroke-width:0.53389829"
     d=""
     id="path4253"
     inkscape:connector-curvature="0" /><path
     style="fill:#ffffff;stroke:#ffffff;stroke-width:0.53389829"
     d=""
     id="path4255"
     inkscape:connector-curvature="0" /><path
     style="fill:#ffffff;stroke:#ffffff;stroke-width:0.53389829"
     d=""
     id="path4257"
     inkscape:connector-curvature="0" /><path
     style="fill:#ffffff;stroke:#ffffff;stroke-width:0.53389829"
     d="m 76.434327,51.059195 c -2.714272,-1.47275 -2.62091,-5.484966 0.161108,-6.923603 2.91204,-1.505875 5.838463,0.264544 5.838463,3.532134 0,1.539949 -0.331167,2.274592 -1.406746,3.120642 -1.648938,1.297055 -2.598317,1.353037 -4.592825,0.270827 z m 4.074346,-2.501144 c 0.807115,-1.28903 -0.180758,-2.754706 -2.003332,-2.972284 -1.078108,-0.128704 -1.530302,0.127425 -1.88518,1.067796 -0.676426,1.792418 0.230438,3.207704 1.925034,3.004282 0.758153,-0.09101 1.641719,-0.585917 1.963478,-1.099794 z"
     id="path4259"
     inkscape:connector-curvature="0" /><path
     style="fill:#ffffff;stroke:#ffffff;stroke-width:0.53389829"
     d="m 75.735901,50.584438 c -2.426747,-2.426748 -1.262775,-6.153626 2.192759,-7.02091 3.674958,-0.922356 6.164312,4.813265 3.12623,7.203021 -1.892638,1.488749 -3.710363,1.426514 -5.318989,-0.182111 z m 4.562404,-1.892913 c 1.153527,-2.155384 -1.394897,-4.264425 -3.09661,-2.562711 -0.839948,0.839947 -0.822888,2.934103 0.0267,3.276917 1.412356,0.569899 2.520679,0.312051 3.069915,-0.714206 z"
     id="path4261"
     inkscape:connector-curvature="0" /><path
     style="fill:#ffffff;stroke:#ffffff;stroke-width:0.53389829"
     d="m 77.285378,48.417777 c -0.404466,-1.054022 0.740865,-2.414599 1.717216,-2.039937 1.025974,0.393703 0.969407,2.119782 -0.0827,2.523513 -1.184655,0.454595 -1.286012,0.424609 -1.634515,-0.483576 z"
     id="path4263"
     inkscape:connector-curvature="0" /><path
     style="fill:#ffffff;stroke:#ffffff;stroke-width:0.53389829"
     d="m 75.735901,50.584438 c -1.733752,-1.733753 -1.733752,-4.187665 0,-5.921418 1.632789,-1.632789 3.548939,-1.671789 5.365432,-0.109206 1.973731,1.697842 1.996896,4.422251 0.05183,6.095329 -1.865675,1.604787 -3.770516,1.582035 -5.417257,-0.06471 l 0,0 z m 4.562404,-2.960709 c 0,-1.342957 -1.598949,-2.211413 -2.816753,-1.529895 -2.074931,1.16119 -0.229588,4.190475 1.868644,3.067535 0.52146,-0.279077 0.948109,-0.971015 0.948109,-1.53764 z"
     id="path4265"
     inkscape:connector-curvature="0" /></svg>