<?xml version="1.0" encoding="UTF-8" standalone="no"?>
<!-- Generator: Adobe Illustrator 15.0.0, SVG Export Plug-In . SVG Version: 6.00 Build 0)  -->

<svg
   xmlns:dc="http://purl.org/dc/elements/1.1/"
   xmlns:cc="http://creativecommons.org/ns#"
   xmlns:rdf="http://www.w3.org/1999/02/22-rdf-syntax-ns#"
   xmlns:svg="http://www.w3.org/2000/svg"
   xmlns="http://www.w3.org/2000/svg"
   xmlns:sodipodi="http://sodipodi.sourceforge.net/DTD/sodipodi-0.dtd"
   xmlns:inkscape="http://www.inkscape.org/namespaces/inkscape"
   version="1.1"
   id="ULUBIONE"
   x="0px"
   y="0px"
   width="113.39px"
   height="113.39px"
   viewBox="0 0 113.39 113.39"
   enable-background="new 0 0 113.39 113.39"
   xml:space="preserve"
   inkscape:version="0.48.5 r10040"
   sodipodi:docname="ulubione.svg"><metadata
     id="metadata4334"><rdf:RDF><cc:Work
         rdf:about=""><dc:format>image/svg+xml</dc:format><dc:type
           rdf:resource="http://purl.org/dc/dcmitype/StillImage" /></cc:Work></rdf:RDF></metadata><defs
     id="defs4332" /><sodipodi:namedview
     pagecolor="#ffffff"
     bordercolor="#666666"
     borderopacity="1"
     objecttolerance="10"
     gridtolerance="10"
     guidetolerance="10"
     inkscape:pageopacity="0"
     inkscape:pageshadow="2"
     inkscape:window-width="640"
     inkscape:window-height="480"
     id="namedview4330"
     showgrid="false"
     inkscape:zoom="2.0813123"
     inkscape:cx="56.695"
     inkscape:cy="56.695"
     inkscape:window-x="0"
     inkscape:window-y="0"
     inkscape:window-maximized="0"
     inkscape:current-layer="ULUBIONE" /><g
     id="ulubione2"><g
       id="g4325"><path
         d="M58.648,100.661C45.139,91.85,31.4,82.277,21.132,69.689c-5.767-7.069-10.79-15.873-11.4-25.136    c-0.657-9.959,6.642-21.897,17.161-23.181c7.826-0.955,15.626,3.632,21.463,8.389c3.389,2.762,7.669,8.352,12.219,3.659    c4.049-4.176,9.068-7.869,14.436-10.132c10.123-4.27,19.142-0.81,24.996,8.378c9.199,14.438-2.438,32.056-12.263,42.728    c-9.536,10.357-21.699,18.608-33.44,26.267c-5.377,3.508-0.372,12.169,5.047,8.635c22.494-14.672,50.745-34.338,53.791-63.563    c1.791-17.18-12.653-34.928-30.29-34.425c-11.027,0.315-22.156,7.416-29.56,15.263c1.179-0.488,2.357-0.976,3.536-1.464    c-0.234,0-0.468,0-0.702,0c1.179,0.488,2.357,0.976,3.536,1.464c-7.458-7.905-17.666-13.891-28.502-15.184    C13.075,9.229-0.708,28.007-0.269,44.554c0.39,14.706,10.033,28.303,19.899,38.48c9.866,10.178,22.132,18.54,33.97,26.262    C59.02,112.83,64.025,104.169,58.648,100.661L58.648,100.661z"
         id="path4327" /></g></g><path
     id="ulubione1"
     d="M67.84,32.645c0,0,6.703-10.208,20.25-6.502c16,4.377,11.533,22.676,8.625,27.377  c-3.499,5.658-3.75,6.285-21,25.323c0,0,7.836-6.956,17.038-24.929C104.77,30.447,81.09,23.645,67.84,32.645" /><path
     style="fill:#ffffff;stroke:#ffffff;stroke-width:0.4804661"
     d="M 46.765522,104.30895 C 28.519396,91.984178 17.435456,81.846276 9.608547,70.323406 2.6290999,60.048182 -0.13672143,51.632042 0.30714699,42.020101 0.50443333,37.747877 0.81839477,36.112357 2.1178968,32.587355 5.810303,22.571409 13.093139,15.213125 21.997562,12.50174 c 8.494327,-2.586511 20.851663,0.811829 30.941187,8.509007 l 3.498783,2.669182 4.118042,-3.090637 c 9.773007,-7.334764 20.098459,-10.314266 28.708647,-8.284138 10.229349,2.411897 19.370449,11.526391 22.690779,22.624731 1.27808,4.272057 1.16594,11.762119 -0.25898,17.29678 -4.82135,18.727156 -19.279264,34.888527 -48.353681,54.050815 -7.069909,4.65962 -6.699018,4.70366 -16.576817,-1.96853 l 0,0 z M 60.15203,97.074947 C 81.767124,82.608314 94.514572,69.692386 100.40909,56.28583 c 5.10086,-11.601433 3.82546,-21.423464 -3.767827,-29.016755 -3.330269,-3.330269 -5.547586,-4.636306 -9.418423,-5.547613 -7.054837,-1.660915 -16.02351,1.791546 -24.761353,9.5318 -2.087131,1.848847 -4.141123,3.449142 -4.564428,3.556211 -1.515165,0.383242 -3.705023,-0.605281 -6.538548,-2.951567 -4.546705,-3.764873 -10.456228,-7.657822 -13.769099,-9.070512 -2.685562,-1.14519 -3.666082,-1.298733 -8.329027,-1.304276 -4.837379,-0.0058 -5.496285,0.105053 -7.777599,1.307903 -2.946649,1.553657 -6.706502,5.178714 -8.440958,8.138339 -9.4927113,16.198088 1.233059,37.86331 28.950909,58.478582 5.094549,3.789091 13.98373,10.075504 14.315564,10.123935 0.078,0.01139 1.807677,-1.094237 3.843729,-2.45693 l 0,0 z"
     id="path4336"
     inkscape:connector-curvature="0" /><path
     style="fill:#ffffff;stroke:#ffffff;stroke-width:0.4804661"
     d="m 86.207338,66.288761 c -0.0064,-0.193538 0.884131,-1.815111 1.97906,-3.603496 3.50711,-5.728283 6.596342,-12.297985 7.406188,-15.750336 2.273305,-9.691037 -2.131575,-16.320732 -11.983687,-18.036403 -3.417599,-0.59515 -7.416982,-0.159821 -11.381174,1.238827 -1.120561,0.395357 -2.115678,0.640536 -2.211372,0.544843 -0.289781,-0.289782 3.291917,-2.602985 5.849244,-3.777674 1.968602,-0.904263 3.183042,-1.096995 6.726525,-1.067503 7.158941,0.05958 12.252174,2.79213 15.033777,8.065701 1.187261,2.250898 1.302071,2.934581 1.302071,7.753691 0,6.786969 -1.049456,9.96505 -5.174842,15.671043 -3.158575,4.368758 -7.526002,9.555471 -7.54579,8.961307 z"
     id="path4338"
     inkscape:connector-curvature="0" /></svg>