<?xml version="1.0" encoding="UTF-8" standalone="no"?>
<!-- Generator: Adobe Illustrator 15.0.0, SVG Export Plug-In . SVG Version: 6.00 Build 0)  -->

<svg
   xmlns:dc="http://purl.org/dc/elements/1.1/"
   xmlns:cc="http://creativecommons.org/ns#"
   xmlns:rdf="http://www.w3.org/1999/02/22-rdf-syntax-ns#"
   xmlns:svg="http://www.w3.org/2000/svg"
   xmlns="http://www.w3.org/2000/svg"
   xmlns:sodipodi="http://sodipodi.sourceforge.net/DTD/sodipodi-0.dtd"
   xmlns:inkscape="http://www.inkscape.org/namespaces/inkscape"
   version="1.1"
   x="0px"
   y="0px"
   width="300px"
   height="300px"
   viewBox="0 0 113.39 113.39"
   enable-background="new 0 0 113.39 113.39"
   xml:space="preserve"
   id="svg3029"
   inkscape:version="0.48.5 r10040"
   sodipodi:docname="viewer_white.svg"><metadata
     id="metadata3044"><rdf:RDF><cc:Work
         rdf:about=""><dc:format>image/svg+xml</dc:format><dc:type
           rdf:resource="http://purl.org/dc/dcmitype/StillImage" /></cc:Work></rdf:RDF></metadata><defs
     id="defs3042" /><sodipodi:namedview
     pagecolor="#ffffff"
     bordercolor="#666666"
     borderopacity="1"
     objecttolerance="10"
     gridtolerance="10"
     guidetolerance="10"
     inkscape:pageopacity="0"
     inkscape:pageshadow="2"
     inkscape:window-width="640"
     inkscape:window-height="480"
     id="namedview3040"
     showgrid="false"
     inkscape:zoom="2.1165888"
     inkscape:cx="56.695"
     inkscape:cy="56.695"
     inkscape:window-x="0"
     inkscape:window-y="0"
     inkscape:window-maximized="0"
     inkscape:current-layer="svg3029" /><g
     id="ZDJ1"><polygon
       id="_x31_3"
       points="61.514,58.373 51.844,77.632 43.25,67.72 34.204,77.796 26.973,67.768 18.123,86.32 73.081,86.078     " /><path
       id="_x31_2"
       d="M6.457,29.243l0.227,77.169l77.169-0.227l-0.226-77.17L6.457,29.243z M76.884,90.579l-63.322,0.187   l-0.161-54.791l63.323-0.186L76.884,90.579z" /><circle
       id="_x31_1"
       cx="28.33"
       cy="47.129"
       r="7.827" /></g><g
     id="ZDJ2"><path
       d="M86.18,95.21l9.339-0.024l-0.226-77.17l-77.17,0.228l0.025,9.13l0.003,0.395c2.35-0.001,4.598-0.002,6.924-0.021   l-0.002-0.219l-0.005-2.554l63.323-0.186l0.16,54.791l-2.401,0.006"
       id="path3036" /><path
       d="M97.594,84.173l9.339-0.024l-0.226-77.17l-77.17,0.228l0.024,9.13l0.003,0.395c2.35-0.001,4.598-0.002,6.924-0.021   l-0.002-0.219l-0.006-2.554l63.323-0.186l0.16,54.791l-2.401,0.006"
       id="path3038" /></g><path
     style="fill:#ffffff;stroke:#ffffff;stroke-width:0.47245833"
     d="M 26.105774,54.191718 C 22.328,52.883831 20.092318,49.087422 21.036021,45.582776 c 1.020885,-3.791279 3.606647,-5.801785 7.461818,-5.801785 4.205688,0 7.220011,3.205941 7.220011,7.678982 0,4.816577 -5.009729,8.325104 -9.612076,6.731745 z"
     id="path3046"
     inkscape:connector-curvature="0" /><path
     style="fill:#ffffff;stroke:#ffffff;stroke-width:0.47245833"
     d="m 18.846309,85.491335 c 1.46099,-3.624471 8.122895,-16.805201 8.405527,-16.630525 0.205112,0.126766 1.801819,2.246219 3.548239,4.709895 1.74642,2.463676 3.301606,4.461385 3.455969,4.439353 0.154363,-0.02203 2.161264,-2.148094 4.45978,-4.724583 2.298516,-2.576489 4.349284,-4.684525 4.557262,-4.684525 0.207978,0 2.244766,2.155655 4.526196,4.790344 l 4.148054,4.790344 4.784634,-9.560157 4.784634,-9.560156 5.270129,12.683489 c 2.898575,6.97592 5.408245,13.055551 5.57705,13.510292 0.290046,0.781373 -1.17834,0.826802 -26.724308,0.826802 -21.436967,0 -26.981954,-0.122222 -26.793166,-0.590573 z"
     id="path3048"
     inkscape:connector-curvature="0" /><path
     style="fill:#ffffff;stroke:#ffffff;stroke-width:0.47245833"
     d="m 6.8978916,67.96352 0,-38.576612 38.2691244,0 38.269125,0 0,38.269125 0,38.269127 -33.662656,0.002 c -18.514461,0.001 -35.735567,0.13972 -38.269125,0.30749 l -4.6064684,0.30512 0,-38.57661 z M 77.134142,76.555783 C 76.962309,68.71789 76.821725,56.280425 76.821725,48.916968 l 0,-13.388102 -31.890938,0 -31.890937,0 0,15.514486 c 0,8.532967 0.14039,20.970433 0.311978,27.638814 l 0.311979,12.124325 31.891374,0 31.891374,0 -0.312413,-14.250708 z"
     id="path3050"
     inkscape:connector-curvature="0" /><path
     style="fill:#ffffff;stroke:#ffffff;stroke-width:0.47245833"
     d="m 86.270891,87.499283 0,-7.559333 1.181146,0 1.181146,0 0,-27.638813 0,-27.638812 -31.890937,0 -31.890938,0 0,1.417375 0,1.417375 -3.307208,0 -3.307208,0 0,-4.488354 0,-4.488354 29.925365,0 c 16.458949,0 33.786359,-0.139854 38.505353,-0.310787 l 8.579989,-0.310787 0,38.579912 0,38.579911 -4.488354,0 -4.488354,0 0,-7.559333 z"
     id="path3052"
     inkscape:connector-curvature="0" /><path
     style="fill:#ffffff;stroke:#ffffff;stroke-width:0.47245833"
     d="m 97.609891,76.160283 0,-7.559333 1.181146,0 1.181146,0 0,-27.714053 0,-27.714052 -10.275969,0.31031 c -5.651783,0.170671 -20.002704,0.310832 -31.890937,0.311469 l -21.614969,0.0012 0,1.417375 0,1.417375 -3.307208,0 -3.307208,0 0,-4.415108 0,-4.4151082 6.452888,-0.3094751 C 39.577869,7.3206304 56.905278,7.1813666 74.534134,7.1813666 l 32.052466,0 0,38.2691244 0,38.269125 -4.48835,0 -4.488359,0 0,-7.559333 z"
     id="path3054"
     inkscape:connector-curvature="0" /></svg>
