<?xml version="1.0" encoding="UTF-8" standalone="no"?>
<svg
   xmlns:dc="http://purl.org/dc/elements/1.1/"
   xmlns:cc="http://creativecommons.org/ns#"
   xmlns:rdf="http://www.w3.org/1999/02/22-rdf-syntax-ns#"
   xmlns:svg="http://www.w3.org/2000/svg"
   xmlns="http://www.w3.org/2000/svg"
   xmlns:sodipodi="http://sodipodi.sourceforge.net/DTD/sodipodi-0.dtd"
   xmlns:inkscape="http://www.inkscape.org/namespaces/inkscape"
   version="1.1"
   id="PODGLĄD"
   x="0px"
   y="0px"
   width="113.391px"
   height="113.391px"
   viewBox="0 0 113.391 113.391"
   enable-background="new 0 0 113.391 113.391"
   xml:space="preserve"
   inkscape:version="0.48.5 r10040"
   sodipodi:docname="wyswietl.svg"><metadata
     id="metadata8"><rdf:RDF><cc:Work
         rdf:about=""><dc:format>image/svg+xml</dc:format><dc:type
           rdf:resource="http://purl.org/dc/dcmitype/StillImage" /><dc:title></dc:title></cc:Work></rdf:RDF></metadata><defs
     id="defs6" /><sodipodi:namedview
     pagecolor="#ffffff"
     bordercolor="#666666"
     borderopacity="1"
     objecttolerance="10"
     gridtolerance="10"
     guidetolerance="10"
     inkscape:pageopacity="0"
     inkscape:pageshadow="2"
     inkscape:window-width="640"
     inkscape:window-height="480"
     id="namedview4"
     showgrid="false"
     inkscape:zoom="2.081294"
     inkscape:cx="56.695499"
     inkscape:cy="56.695499"
     inkscape:window-x="0"
     inkscape:window-y="0"
     inkscape:window-maximized="0"
     inkscape:current-layer="PODGLĄD" /><path
     id="L1"
     d="M37.388,22.845h-4.599l2.299-10.241L37.388,22.845z M68.785,0.037v25.569h26.077L68.785,0.037z M94.862,103.825  v-19.38c-0.995,0.422-3.104,1.063-4.917,1.417c-1.61,0.315-4.875,0.646-4.875,0.646l-6.125,17.317H94.862z M66.533,93.385  l0.305-0.819l-0.419,0.819H66.533z M63.195,77.196c0.24,0,0.421-0.03,0.558-0.083h-0.529C63.211,77.141,63.21,77.166,63.195,77.196z   M94.862,27.963v9.899c0,0-12.21-3.188-22.558,2.329H24.23v3.951h42.703c-1.289,1.271-2.495,2.741-3.571,4.47  c-1.808,2.904-2.983,5.639-3.688,8.2H24.111v3.952H58.93c-0.348,3.565,0.225,6.717,1.241,9.412c0.425,1.123,0.836,2.021,1.379,2.984  l0,0H24.23v3.952h38.993c-0.013,0.028-0.014,0.054-0.028,0.083c0.24,0,0.421-0.03,0.558-0.083h0.539  c2.277,2.718,4.403,4.167,4.403,4.167l-3.229,8.153H24.864v3.952h39.394l-3.625,10.44H18.512L18.535,0h47.815v27.962H94.862z   M45.148,32.58L37.604,4.951h-4.921L25.029,32.58h5.101l1.437-4.887h7.078l1.401,4.887H45.148z M107.731,69.128  c-4.474,11.5-18.2,18.825-30.221,14.744C65.718,79.868,58.274,67.14,62.999,54.993C67.472,43.494,81.2,36.169,93.222,40.25  C105.419,44.391,111.918,56.797,107.731,69.128c-0.835,2.464-7.178,3.27-6.048-0.056c3.069-9.044-0.927-19.752-9.902-23.702  c-9.028-3.976-19.488,0.118-22.731,9.677c-3.072,9.046,0.924,19.753,9.902,23.703c9.333,4.111,19.082-0.292,22.731-9.678  C102.624,66.651,108.995,65.878,107.731,69.128z M80.184,47.994c2.813-2.187,9.783-1.202,13.795,1.104  c4.031,2.317,12.995,13.172,0.642,24.669c4.036-4.36,5.251-9.129,4.765-13.27c-0.036-0.311-0.193-1.22-0.137-0.918  c1.406,7.737-8.581-12.232-3.612-7.169c0.215,0.219-0.431-0.424-0.659-0.619c-0.495-0.429-1.017-0.802-1.558-1.112  C90.801,49.174,84.022,46.805,80.184,47.994z M72.885,71.141c4.067,5.5,10.568,5.646,10.568,5.646s-5.014-0.782-8.805-5.133  c-5.831-6.693-4.015-11.943-4.015-11.943S67.995,64.53,72.885,71.141z M71.776,82.667l-9.184,25.229l0.249,1.286l9.52-26.149  c2.712,1.653,6.137,2.951,10.423,3.116l-9.25,25.411c0,0-0.845,1.447-2.06,1.721c-1.217,0.276-5.639,0.26-9.235-2.883  c-1.471-1.287-0.656-3.667-0.656-3.667l9.024-24.88C70.979,82.129,71.371,82.4,71.776,82.667z M69.651,109.751  c-0.384,1.055,0.826,1.653,1.598,1.607c0.691-0.044,0.938-0.687,0.938-0.687l8.813-24.213l-2.725-0.396  C78.272,86.064,71.293,105.24,69.651,109.751z" /><path
     style="fill:#ffffff;stroke:#ffffff;stroke-width:0.48047033"
     d="m 18.546155,51.751705 0,-51.65561093 23.783281,0 23.783282,0 0,13.93363993 0,13.933639 14.173875,0 14.173875,0 0,4.813858 0,4.813857 -1.321294,-0.352573 c -0.726711,-0.193914 -3.915833,-0.333788 -7.086937,-0.31083 -5.098218,0.03691 -6.182784,0.198979 -9.369172,1.400052 l -3.603527,1.358311 -24.624105,0.153074 -24.624104,0.153075 0,2.153583 0,2.153585 21.139895,0 21.139894,0 -1.669046,2.323193 c -1.466106,2.040712 -3.928019,6.880495 -4.745101,9.328212 -0.260573,0.780597 -1.555179,0.840823 -18.073161,0.840823 l -17.792481,0 0,2.162117 0,2.162116 17.522087,0 c 15.33725,0 17.487782,0.0894 17.246959,0.716973 -0.400521,1.043745 0.704389,6.87688 1.752659,9.252787 l 0.900946,2.041999 -18.711325,0 -18.711326,0 0,2.162116 0,2.162117 20.213464,0 20.213465,0 2.041012,2.028185 2.041009,2.02819 -1.474136,3.734499 -1.474131,3.734499 -20.299871,0.0029 -20.299872,0.003 0,2.402352 0,2.402351 19.459049,0 c 10.702476,0 19.444986,0.162159 19.427799,0.360353 -0.01719,0.198194 -0.719875,2.306258 -1.561529,4.684586 l -1.530279,4.324227 -21.020577,0.12517 -21.020577,0.12517 0,-51.65561 z m 12.492229,-21.38598 0.576315,-2.402352 3.464772,0 3.464773,0 0.615704,2.402352 0.615704,2.402352 2.838421,0 c 1.561131,0 2.834612,-0.05405 2.829958,-0.120118 -0.0047,-0.06606 -1.696278,-6.282149 -3.759164,-13.813522 l -3.750702,-13.6934044 -2.790765,0 -2.790764,0 -3.46079,12.4922284 c -1.903433,6.870726 -3.608635,13.086811 -3.789337,13.813522 l -0.328548,1.321294 2.844054,0 2.844053,0 0.576316,-2.402352 z"
     id="path2985"
     inkscape:connector-curvature="0" /><path
     style="fill:#ffffff;stroke:#ffffff;stroke-width:0.48047033"
     d="m 68.99554,13.257037 0,-12.30398483 4.204115,3.86318533 c 2.312264,2.1247518 7.985503,7.6615455 12.607198,12.3039845 l 8.403082,8.4408 -12.607197,0 -12.607198,0 0,-12.303985 z"
     id="path2987"
     inkscape:connector-curvature="0" /><path
     style="fill:#ffffff;stroke:#ffffff;stroke-width:0.48047033"
     d="M 79.386941,84.125424 C 73.682438,82.785841 66.595945,76.993733 64.032882,71.575863 62.393424,68.110334 61.570105,63.418897 61.998981,59.986292 c 0.455703,-3.64733 3.540902,-9.753055 6.345162,-12.557315 5.035732,-5.035732 10.126305,-7.409413 16.726923,-7.799591 3.818857,-0.225742 4.769574,-0.10865 7.858268,0.967831 10.690506,3.725889 16.952126,13.394702 15.465026,23.880151 -0.5649,3.983014 -1.56425,6.445794 -3.95503,9.746674 -5.649303,7.799817 -16.216573,11.976288 -25.052389,9.901382 z m 13.632116,-5.285042 c 5.241569,-2.457499 8.830833,-7.453083 9.566923,-13.315375 1.09099,-8.688635 -2.73562,-16.340439 -9.945179,-19.886692 -2.981293,-1.466445 -3.554037,-1.579185 -8.022586,-1.579185 -4.173363,0 -5.130268,0.159437 -7.209175,1.201175 -3.258714,1.632938 -6.311793,4.780568 -7.831066,8.073585 -1.792983,3.886283 -2.081649,10.676128 -0.618971,14.559106 2.099366,5.573201 5.792729,9.451811 10.982792,11.533654 3.371401,1.35234 9.531453,1.076178 13.077262,-0.586268 z"
     id="path2989"
     inkscape:connector-curvature="0" /><path
     style="fill:#ffffff;stroke:#ffffff;stroke-width:0.48047033"
     d=""
     id="path2991"
     inkscape:connector-curvature="0" /><path
     style="fill:#ffffff;stroke:#ffffff;stroke-width:0.48047033"
     d="m 34.098918,18.245645 0.993511,-4.432554 0.836104,3.591731 c 1.212991,5.210764 1.201429,5.273378 -0.973815,5.273378 l -1.84931,0 0.99351,-4.432555 z"
     id="path2993"
     inkscape:connector-curvature="0" /><path
     style="fill:#ffffff;stroke:#ffffff;stroke-width:0.48047033"
     d="m 79.840504,102.31616 c 0.186655,-0.59458 1.473203,-4.324038 2.858995,-8.287676 l 2.519622,-7.206616 3.059145,-0.518944 c 1.68253,-0.285419 3.761832,-0.681167 4.620673,-0.879438 l 1.561529,-0.360495 0,9.167113 0,9.167116 -7.479668,0 -7.479668,0 0.339372,-1.08106 z"
     id="path2995"
     inkscape:connector-curvature="0" /><path
     style="fill:#ffffff;stroke:#ffffff;stroke-width:0.48047033"
     d="m 66.352953,112.42691 c -2.570844,-0.89864 -4.564468,-2.70761 -4.564468,-4.14168 0,-1.65815 8.897211,-26.311886 9.27501,-25.700594 0.154092,0.249325 -1.764432,6.060115 -4.263387,12.912867 -2.498954,6.852747 -4.427568,12.761797 -4.285808,13.131217 0.141759,0.36942 0.366113,0.56331 0.498563,0.43086 0.13245,-0.13245 2.267773,-5.79923 4.745162,-12.592845 2.47739,-6.793615 4.597919,-12.445601 4.712287,-12.559969 0.114369,-0.114368 1.41158,0.28175 2.882692,0.880263 l 2.67475,1.088206 -4.275872,11.754859 c -2.351729,6.465176 -4.275872,12.122746 -4.275872,12.572376 0,0.95555 1.80378,1.67303 2.487404,0.98941 0.551914,-0.55192 9.043884,-23.509899 9.043884,-24.450082 0,-0.352833 0.34745,-0.641514 0.772111,-0.641514 0.540721,0 0.673232,0.251981 0.44217,0.840823 -0.181467,0.462453 -2.250778,6.11233 -4.59847,12.555284 -2.347692,6.442949 -4.634189,12.118509 -5.081106,12.612349 -0.914163,1.01014 -3.786965,1.15782 -6.18905,0.31817 z"
     id="path2997"
     inkscape:connector-curvature="0" /><path
     style="fill:#ffffff;stroke:#ffffff;stroke-width:0.48047033"
     d="m 99.599883,63.157825 c 0.197238,-2.409644 0.120192,-3.48341 -0.249946,-3.48341 -0.294293,0 -0.416107,0.378371 -0.270698,0.840824 0.474256,1.508311 -1.209636,-0.837371 -2.673089,-3.723646 -1.67098,-3.295565 -2.249677,-5.049294 -1.516687,-4.596281 0.29257,0.180818 0.531945,0.124655 0.531945,-0.124807 0,-1.195334 -6.295155,-3.772026 -10.810582,-4.424918 -2.736937,-0.395738 -2.676151,-0.408125 1.201176,-0.244777 6.661547,0.280645 10.546718,2.733444 13.352657,8.429843 1.018111,2.066883 1.298861,3.322963 1.288721,5.765644 -0.007,1.717681 -0.26624,3.55548 -0.575798,4.083998 -0.451122,0.770219 -0.506238,0.269574 -0.277699,-2.52247 z"
     id="path2999"
     inkscape:connector-curvature="0" /><path
     style="fill:#ffffff;stroke:#ffffff;stroke-width:0.48047033"
     d="M 78.059203,83.455616 C 75.053261,82.489728 69.257251,78.251903 66.788075,75.21459 63.677431,71.388213 62.550517,68.030393 62.527996,62.521014 c -0.01823,-4.459956 0.04343,-4.726287 2.015691,-8.706477 6.533439,-13.185028 22.503651,-17.873088 34.000779,-9.980938 5.218864,3.582463 8.558014,8.795952 9.489964,14.816868 1.53882,9.941623 -4.57494,19.597912 -15.173043,23.96483 -3.746198,1.54361 -11.282076,1.971422 -14.802184,0.840319 z m 15.553688,-4.719504 c 8.504119,-4.160677 11.818389,-15.543204 7.304329,-25.085942 -2.388266,-5.048792 -8.128102,-9.269662 -13.073939,-9.614105 -2.653111,-0.184771 -2.678375,-0.175711 -0.703194,0.252162 8.000618,1.73313 13.712703,7.668402 15.001613,15.587763 1.21109,7.441226 -2.762134,15.307633 -9.375409,18.561943 -1.998736,0.983553 -3.097466,1.176001 -6.714054,1.176001 -3.654112,0 -4.737149,-0.193673 -6.988744,-1.249757 -4.908029,-2.302053 -8.371818,-6.312877 -9.860411,-11.417662 -1.062014,-3.641929 -0.733804,-10.015426 0.673221,-13.073226 2.207148,-4.796661 6.806821,-8.430254 12.113702,-9.569432 l 2.14035,-0.459449 -2.732752,0.189672 c -3.301831,0.229169 -6.181869,1.786032 -9.040026,4.886766 -3.403701,3.692579 -4.082743,5.760805 -4.082743,12.435216 0,4.978701 0.148806,6.088312 1.090245,8.129722 1.440676,3.123949 3.980493,6.165637 6.725084,8.053964 3.483545,2.396743 5.113961,2.822412 10.218324,2.667799 3.858821,-0.116885 5.009639,-0.348712 7.304404,-1.471435 z M 80.199386,75.276399 c -5.508272,-2.680186 -9.158294,-7.801817 -9.346332,-13.11457 -0.122072,-3.448981 -1.031098,-2.431179 -0.999199,1.118765 0.04735,5.269362 4.607824,11.386706 9.644889,12.93749 3.933278,1.210956 4.249961,0.785323 0.700642,-0.941685 l 0,0 z m 19.44917,-7.674223 c 1.657704,-3.212593 1.753084,-8.495144 0.214462,-11.877082 -1.461858,-3.213202 -4.51081,-6.325768 -7.424157,-7.579056 -3.07395,-1.322378 -9.09975,-1.818984 -11.191328,-0.922315 -1.379715,0.591491 -1.276889,0.632224 2.402352,0.951667 3.827139,0.332284 8.869286,1.879873 9.737776,2.988821 0.250882,0.320344 0.815023,1.659453 1.253647,2.975798 0.865007,2.595953 3.632025,7.456288 4.24491,7.456288 1.308262,0 -0.499289,6.280523 -2.748684,9.550568 -0.922387,1.340914 -1.668199,2.605396 -1.657361,2.80996 0.04158,0.784867 3.988363,-4.067792 5.168383,-6.354649 z"
     id="path3001"
     inkscape:connector-curvature="0" /><path
     style="fill:#ffffff;stroke:#ffffff;stroke-width:0.48047033"
     d="m 78.505474,83.703708 c -2.388529,-0.720055 -6.65388,-3.444561 -9.460246,-6.042761 -6.63985,-6.14733 -8.653264,-15.716944 -4.896286,-23.271705 2.799568,-5.629543 6.241015,-9.236717 11.206786,-11.746459 4.137222,-2.090986 7.751091,-2.829398 12.59896,-2.574309 12.265302,0.645384 22.131642,12.788121 20.087442,24.722077 -1.46219,8.536257 -8.443302,16.012371 -17.392513,18.625762 -2.765014,0.807452 -9.861921,0.975403 -12.144143,0.287395 z m 7.426645,-3.708152 c -0.594582,-0.114521 -1.567534,-0.114521 -2.162116,0 -0.594582,0.114522 -0.108106,0.208221 1.081058,0.208221 1.189164,0 1.67564,-0.0937 1.081058,-0.208221 z m -5.937433,-1.272511 c -5.02267,-2.066137 -8.273905,-5.302648 -10.316499,-10.269775 -0.62717,-1.525137 -1.143329,-2.448658 -1.14702,-2.05227 -0.01418,1.522652 2.435727,5.859722 4.643587,8.220552 2.592794,2.772432 6.504379,5.227087 8.313015,5.216704 0.858122,-0.0049 0.431699,-0.323428 -1.493083,-1.115211 z m 13.679905,-0.171672 c 2.304736,-1.173251 5.611209,-4.535502 6.834759,-6.950055 0.63699,-1.257053 1.14811,-2.454897 1.1358,-2.661876 -0.0123,-0.206979 -0.56714,0.670676 -1.23297,1.950345 -1.623505,3.120254 -4.972116,6.381056 -8.019754,7.809459 -1.373034,0.643531 -1.955897,1.031154 -1.295251,0.861385 0.660647,-0.169767 1.820484,-0.623934 2.577416,-1.009258 l 0,0 z M 79.325652,74.879928 C 74.689924,72.307861 71.747571,68.074604 70.593707,62.317002 l -0.385158,-1.921881 -0.149485,2.745057 c -0.264983,4.866007 3.244323,10.158618 8.239821,12.427004 3.387474,1.538205 4.135453,1.037555 1.026767,-0.687254 l 0,0 z m 18.249132,-4.142787 c 3.930966,-5.35505 4.439406,-10.115962 1.679122,-15.722899 -2.566355,-5.213006 -6.651098,-7.691333 -13.441904,-8.155576 -2.600078,-0.17775 -3.840933,-0.06607 -4.456082,0.401071 -0.751644,0.570789 -0.532826,0.664951 1.848707,0.795536 4.705215,0.257999 10.77537,2.570152 10.77537,4.104395 0,0.987747 3.632446,8.184398 4.489608,8.894872 0.437561,0.36268 0.795566,1.134232 0.795566,1.714558 0,1.864162 -1.366338,5.728709 -2.855417,8.076253 -1.911144,3.012933 -1.068658,2.934681 1.16503,-0.10821 z m 4.420956,-3.465288 c -0.15338,-0.383287 -0.26723,-0.269437 -0.29029,0.290284 -0.0209,0.506495 0.0927,0.790273 0.25236,0.630617 0.15965,-0.159656 0.17672,-0.574062 0.0379,-0.920901 l 0,0 z m 0.48521,-2.663472 c -0.12182,-0.467483 -0.2295,-0.201333 -0.23929,0.591443 -0.01,0.792776 0.0899,1.175262 0.22149,0.849968 0.13161,-0.325295 0.13962,-0.973929 0.0178,-1.441411 l 0,0 z m -0.002,-5.294318 c -0.12085,-0.462453 -0.21973,-0.08408 -0.21973,0.840823 0,0.924905 0.0989,1.303276 0.21973,0.840823 0.12085,-0.462453 0.12085,-1.219194 0,-1.681646 z m -1.29756,-4.588796 C 99.540675,50.33943 94.017092,45.366749 89.896,44.565229 c -1.273657,-0.247716 -1.239526,-0.201253 0.293265,0.399224 2.730082,1.069522 5.320285,2.868182 7.323505,5.085507 1.788235,1.979362 4.10108,6.233166 4.18799,7.702574 0.0234,0.396388 0.14176,0.480198 0.26293,0.186243 0.12116,-0.293954 -0.23076,-1.740033 -0.78206,-3.21351 l 0,0 z m -27.3185,-6.306984 c 1.314318,-1.181685 3.513539,-2.580592 4.887157,-3.108683 1.373617,-0.528091 2.11676,-0.97143 1.651427,-0.9852 -3.46811,-0.102622 -11.405934,7.288594 -11.405934,10.620509 0,0.326672 0.557478,-0.524764 1.23884,-1.892079 0.681362,-1.367315 2.314191,-3.452861 3.62851,-4.634547 l 0,0 z"
     id="path3003"
     inkscape:connector-curvature="0" /><path
     style="fill:#ffffff;stroke:#ffffff;stroke-width:0.48047033"
     d="M 77.884241,83.587859 C 75.649799,82.790015 71.374798,79.964315 69.072502,77.763456 64.110569,73.02014 62.057673,68.07218 62.362011,61.5896 c 0.166735,-3.551563 0.432042,-4.576411 2.013037,-7.776096 2.061014,-4.17117 5.22445,-7.72815 9.009577,-10.130404 4.528011,-2.873729 6.739055,-3.467733 12.907847,-3.467733 5.044676,0 5.774893,0.116819 8.39291,1.34269 6.518078,3.052048 10.850308,7.917022 12.817558,14.393752 2.21246,7.28405 0.0463,15.144982 -5.77343,20.951314 -2.972962,2.966127 -7.445697,5.583799 -11.289806,6.607366 -2.892328,0.770136 -10.48428,0.81692 -12.555463,0.07737 z m 1.201176,-5.1751 c -0.924905,-0.506365 -1.897858,-0.920663 -2.162117,-0.920663 -0.264258,0 0.276271,0.414298 1.201176,0.920663 0.924906,0.506364 1.897858,0.920662 2.162117,0.920662 0.264259,0 -0.276271,-0.414298 -1.201176,-0.920662 z m -0.545898,-3.963881 c -3.483287,-2.343301 -5.723672,-5.064786 -6.897521,-8.37869 -1.44348,-4.075103 -1.730593,-4.441649 -1.452536,-1.854399 0.492769,4.585099 3.774257,9.160485 8.061175,11.239716 3.374988,1.636929 3.511482,1.161304 0.288882,-1.006627 l 0,0 z m 20.791236,-6.907099 c 1.333945,-2.709637 1.464475,-3.366487 1.295895,-6.521305 -0.4294,-8.035851 -5.487039,-12.977183 -14.403864,-14.072622 -1.415096,-0.173846 -3.11343,-0.108526 -3.774077,0.145155 -1.146807,0.440361 -1.114186,0.475711 0.720706,0.780977 4.015913,0.668117 6.31737,1.277958 8.424546,2.232337 1.980724,0.897107 2.275889,1.258396 3.252264,3.980839 0.590608,1.646802 1.848668,4.170713 2.795689,5.608691 1.50319,2.282479 1.686361,2.873462 1.44236,4.65364 -0.153722,1.121524 -0.960266,3.393242 -1.79232,5.048262 -1.291548,2.568988 -1.361566,2.873685 -0.478692,2.083141 0.568773,-0.509291 1.701645,-2.281893 2.517493,-3.939115 l 0,0 z m 1.135595,-14.113478 c -0.40996,-0.792776 -0.853491,-1.441411 -0.985621,-1.441411 -0.132129,0 0.09519,0.648635 0.505148,1.441411 0.409963,0.792776 0.853483,1.441411 0.985613,1.441411 0.13213,0 -0.0952,-0.648635 -0.50514,-1.441411 z M 79.045378,44.954988 c 0.659361,-0.576881 -0.904504,-0.04114 -1.669892,0.572058 -0.879408,0.704551 -0.864077,0.714551 0.26852,0.175154 0.660647,-0.314632 1.291264,-0.650878 1.401372,-0.747212 l 0,0 z"
     id="path3005"
     inkscape:connector-curvature="0" /></svg>