<?xml version="1.0" encoding="utf-8"?>
<!-- Generator: Adobe Illustrator 15.0.0, SVG Export Plug-In . SVG Version: 6.00 Build 0)  -->
<!DOCTYPE svg PUBLIC "-//W3C//DTD SVG 1.1//EN" "http://www.w3.org/Graphics/SVG/1.1/DTD/svg11.dtd">
<svg version="1.1" id="ZOOM" xmlns="http://www.w3.org/2000/svg" xmlns:xlink="http://www.w3.org/1999/xlink" x="0px" y="0px"
	 width="113.39px" height="113.39px" viewBox="0 0 113.39 113.39" enable-background="new 0 0 113.39 113.39" xml:space="preserve">
<g id="z1">
	<g>
		<path d="M89.421,45.922c-5.556,14.287-20.395,20.992-34.607,14.734C41.149,54.641,35.066,38.34,39.74,24.57
			C44.679,10.018,60.601,3.784,74.348,9.836C88.012,15.852,94.095,32.152,89.421,45.922c-1.719,5.063,7.936,3.834,9.209,0.082
			c6.371-18.767-3.518-37.659-22.09-43.962C58.238-4.17,37.34,6.981,30.531,24.488c-7.193,18.493,4.137,37.869,22.09,43.962
			c18.302,6.213,39.201-4.938,46.009-22.446C100.554,41.059,90.854,42.235,89.421,45.922z"/>
	</g>
</g>
<path id="z3" d="M59.51,71.519l-13.981,38.412l-1.549,1.257l14.489-39.811c-4.783-0.725-10.045-2.563-15.206-6.566l-14.08,38.686
	c0,0-0.43,2.513,0.719,4.022c1.15,1.513,6.323,5.821,13.59,5.676c2.974-0.059,4.356-3.634,4.356-3.634l13.822-37.848
	C60.964,71.671,60.243,71.607,59.51,71.519z M35.484,105.183c-0.585,1.608-2.582,1.124-3.436,0.313
	c-0.764-0.728-0.422-1.717-0.422-1.717l13.417-36.863l3.565,2.208C48.609,69.123,37.982,98.322,35.484,105.183z"/>
<path id="z2" fill="#020202" d="M76.842,17.918c0.822,0.473,1.616,1.042,2.371,1.696c0.344,0.296,1.329,1.275,1.002,0.943
	c-7.565-7.708,7.64,22.694,5.499,10.915c-0.084-0.458,0.153,0.925,0.209,1.398c0.74,6.303-1.108,13.564-7.254,20.203
	c18.807-17.504,5.16-34.031-0.973-37.557c-6.109-3.512-16.72-5.01-21.001-1.682C62.536,12.022,72.856,15.627,76.842,17.918z"/>
<path fill="#020202" d="M42.154,31.669c0,0-2.766,7.993,6.112,18.183c5.77,6.622,13.402,7.812,13.402,7.812
	s-9.895-0.219-16.088-8.593C38.136,39.004,42.154,31.669,42.154,31.669z"/>
</svg>
