<?xml version="1.0" encoding="UTF-8" standalone="no"?>
<!-- Generator: Adobe Illustrator 15.0.0, SVG Export Plug-In . SVG Version: 6.00 Build 0)  -->

<svg
   xmlns:dc="http://purl.org/dc/elements/1.1/"
   xmlns:cc="http://creativecommons.org/ns#"
   xmlns:rdf="http://www.w3.org/1999/02/22-rdf-syntax-ns#"
   xmlns:svg="http://www.w3.org/2000/svg"
   xmlns="http://www.w3.org/2000/svg"
   xmlns:sodipodi="http://sodipodi.sourceforge.net/DTD/sodipodi-0.dtd"
   xmlns:inkscape="http://www.inkscape.org/namespaces/inkscape"
   version="1.1"
   id="ZOOM"
   x="0px"
   y="0px"
   width="113.39px"
   height="113.39px"
   viewBox="0 0 113.39 113.39"
   enable-background="new 0 0 113.39 113.39"
   xml:space="preserve"
   inkscape:version="0.48.5 r10040"
   sodipodi:docname="ZOOM.svg"><metadata
     id="metadata3767"><rdf:RDF><cc:Work
         rdf:about=""><dc:format>image/svg+xml</dc:format><dc:type
           rdf:resource="http://purl.org/dc/dcmitype/StillImage" /></cc:Work></rdf:RDF></metadata><defs
     id="defs3765" /><sodipodi:namedview
     pagecolor="#ffffff"
     bordercolor="#666666"
     borderopacity="1"
     objecttolerance="10"
     gridtolerance="10"
     guidetolerance="10"
     inkscape:pageopacity="0"
     inkscape:pageshadow="2"
     inkscape:window-width="640"
     inkscape:window-height="480"
     id="namedview3763"
     showgrid="false"
     inkscape:zoom="2.0813123"
     inkscape:cx="56.695"
     inkscape:cy="56.695"
     inkscape:window-x="0"
     inkscape:window-y="0"
     inkscape:window-maximized="0"
     inkscape:current-layer="ZOOM" /><g
     id="z1"><g
       id="g3755"><path
         d="M89.421,45.922c-5.556,14.287-20.395,20.992-34.607,14.734C41.149,54.641,35.066,38.34,39.74,24.57    C44.679,10.018,60.601,3.784,74.348,9.836C88.012,15.852,94.095,32.152,89.421,45.922c-1.719,5.063,7.936,3.834,9.209,0.082    c6.371-18.767-3.518-37.659-22.09-43.962C58.238-4.17,37.34,6.981,30.531,24.488c-7.193,18.493,4.137,37.869,22.09,43.962    c18.302,6.213,39.201-4.938,46.009-22.446C100.554,41.059,90.854,42.235,89.421,45.922z"
         id="path3757" /></g></g><path
     id="z3"
     d="M59.51,71.519l-13.981,38.412l-1.549,1.257l14.489-39.811c-4.783-0.725-10.045-2.563-15.206-6.566l-14.08,38.686  c0,0-0.43,2.513,0.719,4.022c1.15,1.513,6.323,5.821,13.59,5.676c2.974-0.059,4.356-3.634,4.356-3.634l13.822-37.848  C60.964,71.671,60.243,71.607,59.51,71.519z M35.484,105.183c-0.585,1.608-2.582,1.124-3.436,0.313  c-0.764-0.728-0.422-1.717-0.422-1.717l13.417-36.863l3.565,2.208C48.609,69.123,37.982,98.322,35.484,105.183z" /><path
     id="z2"
     fill="#020202"
     d="M76.842,17.918c0.822,0.473,1.616,1.042,2.371,1.696c0.344,0.296,1.329,1.275,1.002,0.943  c-7.565-7.708,7.64,22.694,5.499,10.915c-0.084-0.458,0.153,0.925,0.209,1.398c0.74,6.303-1.108,13.564-7.254,20.203  c18.807-17.504,5.16-34.031-0.973-37.557c-6.109-3.512-16.72-5.01-21.001-1.682C62.536,12.022,72.856,15.627,76.842,17.918z" /><path
     fill="#020202"
     d="M42.154,31.669c0,0-2.766,7.993,6.112,18.183c5.77,6.622,13.402,7.812,13.402,7.812  s-9.895-0.219-16.088-8.593C38.136,39.004,42.154,31.669,42.154,31.669z"
     id="path3761" /><path
     style="fill:#ffffff;stroke:#ffffff;stroke-width:0.4804661"
     d="m 38.070391,112.08369 c -5.066129,-1.6202 -8.569773,-4.60068 -8.569773,-7.29015 0,-1.06673 9.021276,-26.669636 13.407796,-38.05211 0.450558,-1.169143 0.644098,-1.272403 1.513135,-0.807309 0.69227,0.370492 0.852937,0.706433 0.526267,1.100384 -0.661498,0.797738 -13.525333,36.295135 -13.525333,37.322785 0,1.22066 1.179896,2.01465 2.728997,1.83641 1.312261,-0.15098 1.513003,-0.61747 8.076861,-18.769063 5.387719,-14.899115 6.874995,-18.552936 7.451854,-18.307122 0.396384,0.168909 2.283035,0.774596 4.192558,1.34597 1.909523,0.571374 3.601877,1.168879 3.760787,1.32779 0.158911,0.15891 -2.862842,8.9594 -6.715005,19.556644 -3.852163,10.597241 -7.003934,19.529201 -7.003934,19.848781 0,0.32757 0.419779,0.16129 0.962207,-0.38114 0.544961,-0.54496 3.955095,-9.18555 7.864084,-19.925995 5.249411,-14.423427 7.106443,-19.004216 7.756288,-19.132637 0.551002,-0.108888 0.774986,0.06173 0.630749,0.480466 -0.123013,0.357122 -3.235549,8.954833 -6.916746,19.106025 -7.46659,20.589711 -8.051453,21.684901 -11.554479,21.636371 -1.025823,-0.0142 -3.089664,-0.41746 -4.586313,-0.8961 l 0,0 z"
     id="path3769"
     inkscape:connector-curvature="0" /><path
     style="fill:#ffffff;stroke:#ffffff;stroke-width:0.4804661"
     d="M 55.049507,68.788865 C 43.411614,65.740264 34.084542,57.009225 30.17096,45.50014 28.356852,40.165203 28.248797,32.777646 29.907601,27.49478 33.688361,15.454027 42.447783,6.6943221 54.965322,2.436248 59.11363,1.0251239 60.077276,0.88052884 65.535576,0.8501826 72.114183,0.8136081 75.959557,1.6785257 81.377216,4.4133524 90.355277,8.9454629 97.313584,17.756989 99.43133,27.275857 c 0.99013,4.450445 0.7738,12.521207 -0.443408,16.542651 -4.457706,14.727449 -20.04554,26.009235 -35.811417,25.918715 -2.919727,-0.01677 -5.896937,-0.364179 -8.126998,-0.948358 l 0,0 z M 74.297135,61.643772 C 82.530363,58.438616 88.911804,50.909909 90.548223,42.471033 91.350025,38.33619 90.88022,30.453457 89.618401,26.869923 87.245691,20.131462 82.790382,14.293552 77.779351,11.356892 61.963329,2.0880857 43.208956,9.6190039 38.817586,27.002195 c -0.933885,3.696777 -0.687536,12.323124 0.453837,15.891895 3.123311,9.765763 10.62195,17.198031 19.646819,19.472927 3.9087,0.985268 11.963177,0.606473 15.378893,-0.723245 l 0,0 z"
     id="path3771"
     inkscape:connector-curvature="0" /><path
     style="fill:#ffffff;stroke:#ffffff;stroke-width:0.4804661"
     d="m 84.475718,45.019673 c 0.117624,-0.528512 0.550155,-2.150085 0.961178,-3.603495 0.414221,-1.464715 0.720695,-4.248722 0.687589,-6.24606 -0.03285,-1.981922 -0.153427,-3.117023 -0.267948,-2.522447 -0.11452,0.594577 -0.35965,1.081049 -0.544731,1.081049 -0.547761,0 -4.210891,-6.245028 -5.557568,-9.474728 -1.485975,-3.563776 -1.583088,-4.551529 -0.405262,-4.122006 0.778618,0.283942 0.776072,0.232787 -0.03442,-0.691528 -1.990664,-2.270229 -9.596558,-5.109621 -16.421544,-6.130404 l -3.843728,-0.574889 3.123029,-0.349869 c 6.855481,-0.76801 14.922653,2.113063 19.371362,6.9182 6.588651,7.116529 8.114186,15.822988 4.164552,23.767718 -0.795504,1.600166 -1.350134,2.476972 -1.232509,1.948459 z"
     id="path3773"
     inkscape:connector-curvature="0" /><path
     style="fill:#ffffff;stroke:#ffffff;stroke-width:0.4804661"
     d=""
     id="path3775"
     inkscape:connector-curvature="0" /><path
     style="fill:#ffffff;stroke:#ffffff;stroke-width:0.4804661"
     d=""
     id="path3777"
     inkscape:connector-curvature="0" /><path
     style="fill:#ffffff;stroke:#ffffff;stroke-width:0.4804661"
     d="M 49.748019,52.814595 C 45.783235,49.677148 42.1034,43.633769 41.784452,39.736057 c -0.08656,-1.057856 -0.05953,-1.490956 0.06007,-0.962443 0.119603,0.528513 1.068793,2.736184 2.109312,4.905935 1.397057,2.913223 2.764212,4.829561 5.227312,7.327108 3.567593,3.617487 3.80321,4.368942 0.566873,1.807938 l 0,0 z"
     id="path3779"
     inkscape:connector-curvature="0" /><path
     style="fill:#ffffff;stroke:#ffffff;stroke-width:0.4804661"
     d=""
     id="path3781"
     inkscape:connector-curvature="0" /><path
     style="fill:#ffffff;stroke:#ffffff;stroke-width:0.4804661"
     d=""
     id="path3783"
     inkscape:connector-curvature="0" /></svg>