<?xml version="1.0" encoding="utf-8"?>
<?xml-stylesheet type="text/css" href="JASNOSC.css" ?> 
<svg version="1.1" id="JASNOSC" xmlns="http://www.w3.org/2000/svg" xmlns:xlink="http://www.w3.org/1999/xlink" x="0px" y="0px"
	 width="113.391px" height="113.391px" viewBox="0 0 113.391 113.391" enable-background="new 0 0 113.391 113.391"
	 xml:space="preserve">
<path id="j1" d="M77.212,56.075c-0.322,11.207-8.366,20.528-19.733,21.516c-11.825,1.028-20.906-9.114-21.231-20.366
	c-0.323-11.184,8.852-20.57,19.732-21.517C67.805,34.68,76.887,44.822,77.212,56.075c0.084,2.901,5.892,4.339,5.8,1.149
	c-0.418-14.434-11.362-25.087-25.533-26.319c-14.566-1.266-26.623,11.107-27.029,25.169c-0.416,14.4,11.986,25.141,25.53,26.319
	c14.564,1.267,26.626-11.107,27.032-25.169C83.095,54.315,77.306,52.851,77.212,56.075z"/>
<path id="j2" d="M60.229,23.92c0-6.843,0-13.687,0-20.529c0-4.515-7-4.515-7,0c0,6.843,0,13.687,0,20.529
	C53.228,28.434,60.229,28.434,60.229,23.92L60.229,23.92z"/>
<path id="j3" d="M60.229,110.32c0-6.844,0-13.688,0-20.53c0-4.514-7-4.514-7,0c0,6.844,0,13.688,0,20.53
	C53.229,114.834,60.229,114.834,60.229,110.32L60.229,110.32z"/>
<path id="j4" d="M23.794,53.149c-6.843,0-13.687,0-20.529,0c-4.515,0-4.515,7,0,7c6.843,0,13.687,0,20.529,0
	C28.309,60.148,28.309,53.149,23.794,53.149L23.794,53.149z"/>
<path id="j5" d="M110.194,53.149c-6.844,0-13.688,0-20.53,0c-4.514,0-4.514,7,0,7c6.844,0,13.688,0,20.53,0
	C114.708,60.148,114.708,53.149,110.194,53.149L110.194,53.149z"/>
<path id="j6" d="M34.562,30.958c-4.839-4.839-9.679-9.678-14.518-14.517c-3.194-3.194-8.145,1.755-4.949,4.95
	c4.839,4.839,9.678,9.678,14.517,14.517C32.807,39.103,37.756,34.153,34.562,30.958L34.562,30.958z"/>
<path id="j7" d="M95.656,92.053c-4.839-4.841-9.679-9.681-14.519-14.52c-3.194-3.195-8.146,1.755-4.949,4.949
	c4.839,4.84,9.679,9.68,14.519,14.519C93.901,100.197,98.852,95.247,95.656,92.053L95.656,92.053z"/>
<path id="j8" d="M29.467,77.39c-4.839,4.839-9.679,9.678-14.518,14.518c-3.194,3.194,1.755,8.144,4.95,4.949
	c4.839-4.839,9.679-9.678,14.518-14.519C37.611,79.145,32.662,74.195,29.467,77.39L29.467,77.39z"/>
<path id="j9_1_" d="M90.562,16.295c-4.84,4.839-9.681,9.679-14.52,14.518c-3.194,3.194,1.755,8.145,4.949,4.95
	c4.84-4.84,9.68-9.679,14.519-14.518C98.706,18.05,93.756,13.101,90.562,16.295L90.562,16.295z"/>
<path id="J10" fill="#010101" d="M64.785,42.375c-9.856-6.695-29.226,7.291-20.285,24.75c2.682,3.671,5,3.875,5,3.875
	c-1.813,0-6.073-1.69-8.842-7.763c-1.668-7.234-1.491-16.57,10.405-23.175C60.875,36.583,64.785,42.375,64.785,42.375"/>
</svg>
